<svg width="200" height="200" viewBox="0 0 200 200" fill="none" xmlns="http://www.w3.org/2000/svg">
<mask id="mask0" mask-type="alpha" maskUnits="userSpaceOnUse" x="49" y="14" width="100" height="100">
<circle cx="99" cy="64" r="49.5" fill="#C4C4C4" stroke="black"/>
</mask>
<g mask="url(#mask0)">
<rect x="87" y="9" width="81" height="124" fill="#07849F"/>
<g filter="url(#filter0_d)">
<circle cx="99" cy="64" r="36" fill="#FF9E75"/>
</g>
<path d="M49 14H93V119H49V14Z" fill="#07849F"/>
<rect x="74" y="14" width="5" height="109" fill="#FF9E75"/>
</g>
<path d="M43.504 128.792C42.832 128.792 42.256 128.632 41.776 128.312C41.328 127.992 41.104 127.528 41.104 126.92C41.104 126.184 41.504 125.544 42.304 125C43.136 124.424 44.016 124.136 44.944 124.136C46.32 124.136 47.008 124.728 47.008 125.912C47.008 126.584 46.64 127.24 45.904 127.88C45.168 128.488 44.368 128.792 43.504 128.792ZM37.84 150.44C36.496 150.44 35.456 150.04 34.72 149.24C33.984 148.44 33.616 147.416 33.616 146.168C33.616 144.888 33.968 143.16 34.672 140.984C35.408 138.776 36.32 136.84 37.408 135.176C38.528 133.512 39.648 132.68 40.768 132.68C41.184 132.68 41.52 132.808 41.776 133.064C42.064 133.288 42.208 133.624 42.208 134.072C42.208 134.36 42.08 134.76 41.824 135.272C41.568 135.752 41.152 136.456 40.576 137.384C39.552 139.08 38.736 140.584 38.128 141.896C37.552 143.176 37.264 144.392 37.264 145.544C37.264 146.536 37.44 147.208 37.792 147.56C38.144 147.912 38.688 148.088 39.424 148.088C41.952 148.088 44.464 145.64 46.96 140.744L47.68 141.512C46.56 144.328 45.136 146.52 43.408 148.088C41.68 149.656 39.824 150.44 37.84 150.44ZM61.8948 149.96C60.6788 149.96 59.7348 149.656 59.0628 149.048C58.3908 148.44 58.0547 147.64 58.0547 146.648C58.0547 146.232 58.1188 145.752 58.2468 145.208C58.4068 144.664 58.5668 144.12 58.7268 143.576C59.1748 142.104 59.3988 141.016 59.3988 140.312C59.3988 139.672 59.2388 139.208 58.9188 138.92C58.5988 138.6 58.1988 138.44 57.7188 138.44C56.0228 138.44 54.3108 139.512 52.5828 141.656C50.8548 143.768 48.9988 146.456 47.0148 149.72C45.6387 149.72 44.5987 149.256 43.8947 148.328L44.3267 147.128C46.2148 142.552 47.1588 139.16 47.1588 136.952C47.4148 136.664 47.7828 136.408 48.2628 136.184C48.7428 135.928 49.2068 135.8 49.6548 135.8C50.1988 135.8 50.6148 135.928 50.9028 136.184C51.1908 136.44 51.3348 136.792 51.3348 137.24C51.3348 138.104 51.0628 139.528 50.5188 141.512C51.9588 139.592 53.4468 138.024 54.9828 136.808C56.5508 135.592 58.0868 134.984 59.5908 134.984C60.8708 134.984 61.8628 135.432 62.5668 136.328C63.2708 137.192 63.6228 138.232 63.6228 139.448C63.6228 140.152 63.5268 140.824 63.3348 141.464C63.1748 142.104 62.9188 142.824 62.5668 143.624C62.0228 144.968 61.7508 145.976 61.7508 146.648C61.7508 147.128 61.8628 147.48 62.0868 147.704C62.3108 147.928 62.5828 148.04 62.9028 148.04C63.9588 148.04 65.0948 147.32 66.3108 145.88C67.5588 144.408 68.6788 142.68 69.6708 140.696L70.4868 141.368C69.3348 144.024 68.0548 146.12 66.6468 147.656C65.2708 149.192 63.6868 149.96 61.8948 149.96ZM72.7743 151.208C71.3023 151.208 70.1503 150.776 69.3183 149.912C68.4863 149.08 68.0702 147.832 68.0702 146.168C68.0702 144.92 68.3102 143.336 68.7903 141.416C69.2703 139.464 69.9103 137.4 70.7103 135.224C69.8783 135.064 69.3183 134.92 69.0303 134.792V133.304C69.7983 133.4 70.5663 133.48 71.3343 133.544C72.7743 129.928 74.3103 126.824 75.9423 124.232C77.6063 121.64 78.9503 120.344 79.9743 120.344C80.3263 120.344 80.6303 120.472 80.8863 120.728C81.1743 120.984 81.3183 121.32 81.3183 121.736C81.3183 122.248 81.0943 122.936 80.6463 123.8C80.1983 124.664 79.4623 125.976 78.4383 127.736C77.0303 130.104 75.9263 132.088 75.1263 133.688C78.8063 133.688 81.7343 133.576 83.9103 133.352V134.936C80.1343 135.32 76.9183 135.512 74.2623 135.512C72.5983 139.448 71.7663 142.664 71.7663 145.16C71.7663 146.472 71.9743 147.4 72.3903 147.944C72.8063 148.488 73.4623 148.76 74.3583 148.76C75.9583 148.76 77.5903 148.04 79.2543 146.6C80.9503 145.128 82.4223 143.144 83.6703 140.648L84.3423 141.128C83.0303 144.104 81.3343 146.536 79.2543 148.424C77.1743 150.28 75.0143 151.208 72.7743 151.208ZM87.8024 151.112C85.7864 151.112 84.2184 150.568 83.0984 149.48C81.9784 148.392 81.4184 147 81.4184 145.304C81.4184 143.448 82.0424 141.448 83.2904 139.304C84.5384 137.128 86.1384 135.32 88.0904 133.88C90.0424 132.408 91.9624 131.672 93.8504 131.672C94.8424 131.672 95.6744 131.928 96.3464 132.44C97.0184 132.92 97.3544 133.736 97.3544 134.888C97.3544 136.424 96.7624 137.88 95.5784 139.256C94.3944 140.6 92.8584 141.704 90.9704 142.568C89.1144 143.432 87.2104 143.976 85.2584 144.2C85.1944 144.52 85.1624 144.888 85.1624 145.304C85.1624 146.136 85.3864 146.968 85.8344 147.8C86.3144 148.632 87.3224 149.048 88.8584 149.048C90.8104 149.048 92.7944 148.264 94.8104 146.696C96.8584 145.096 98.5064 143.112 99.7544 140.744L100.714 141.512C99.4344 144.392 97.5944 146.712 95.1944 148.472C92.8264 150.232 90.3624 151.112 87.8024 151.112ZM85.7864 142.424C86.9384 142.296 88.2184 141.832 89.6264 141.032C91.0664 140.232 92.2824 139.256 93.2744 138.104C94.2664 136.92 94.7624 135.768 94.7624 134.648C94.7624 134.296 94.6984 134.056 94.5704 133.928C94.4424 133.8 94.2344 133.736 93.9464 133.736C93.0184 133.736 91.9944 134.184 90.8744 135.08C89.7864 135.944 88.7784 137.048 87.8504 138.392C86.9224 139.736 86.2344 141.08 85.7864 142.424ZM107.474 150.248C106.29 150.248 105.33 149.928 104.594 149.288C103.858 148.68 103.49 147.848 103.49 146.792C103.49 146.184 103.602 145.528 103.826 144.824C104.082 144.088 104.45 143.208 104.93 142.184C105.346 141.288 105.666 140.536 105.89 139.928C106.114 139.288 106.226 138.728 106.226 138.248C106.226 137.032 105.426 136.008 103.826 135.176C103.186 136.776 102.434 138.392 101.57 140.024C100.738 141.656 99.9858 143.032 99.3138 144.152L98.5938 142.76C100.066 140.136 101.362 137.24 102.482 134.072C102.162 133.752 102.002 133.32 102.002 132.776C102.002 131.944 102.258 131.16 102.77 130.424C103.282 129.688 103.778 129.32 104.258 129.32C104.578 129.32 104.834 129.512 105.026 129.896C105.25 130.28 105.362 130.6 105.362 130.856C105.362 130.984 105.282 131.272 105.122 131.72C104.994 132.136 104.898 132.44 104.834 132.632C104.866 132.856 104.994 133.08 105.218 133.304C105.442 133.496 105.858 133.784 106.466 134.168C107.586 134.904 108.45 135.624 109.058 136.328C109.698 137 110.018 137.912 110.018 139.064C110.018 139.768 109.89 140.472 109.634 141.176C109.41 141.88 109.058 142.728 108.578 143.72C107.874 145.128 107.522 146.136 107.522 146.744C107.522 147.48 107.922 147.848 108.722 147.848C109.682 147.848 110.722 147.464 111.842 146.696C112.994 145.928 114.034 145 114.962 143.912C115.922 142.792 116.626 141.752 117.074 140.792L118.226 141.656C117.586 143.096 116.69 144.472 115.538 145.784C114.386 147.096 113.09 148.168 111.65 149C110.242 149.832 108.85 150.248 107.474 150.248ZM125.535 128.792C124.863 128.792 124.287 128.632 123.807 128.312C123.359 127.992 123.135 127.528 123.135 126.92C123.135 126.184 123.535 125.544 124.335 125C125.167 124.424 126.047 124.136 126.975 124.136C128.351 124.136 129.039 124.728 129.039 125.912C129.039 126.584 128.671 127.24 127.935 127.88C127.199 128.488 126.399 128.792 125.535 128.792ZM119.871 150.44C118.527 150.44 117.487 150.04 116.751 149.24C116.015 148.44 115.647 147.416 115.647 146.168C115.647 144.888 115.999 143.16 116.703 140.984C117.439 138.776 118.351 136.84 119.439 135.176C120.559 133.512 121.679 132.68 122.799 132.68C123.215 132.68 123.551 132.808 123.807 133.064C124.095 133.288 124.239 133.624 124.239 134.072C124.239 134.36 124.111 134.76 123.855 135.272C123.599 135.752 123.183 136.456 122.607 137.384C121.583 139.08 120.767 140.584 120.159 141.896C119.583 143.176 119.295 144.392 119.295 145.544C119.295 146.536 119.471 147.208 119.823 147.56C120.175 147.912 120.719 148.088 121.455 148.088C123.983 148.088 126.495 145.64 128.991 140.744L129.711 141.512C128.591 144.328 127.167 146.52 125.439 148.088C123.711 149.656 121.855 150.44 119.871 150.44ZM131.542 150.536C130.134 150.536 129.062 150.104 128.326 149.24C127.59 148.408 127.222 147.32 127.222 145.976C127.222 144.664 127.494 143.288 128.038 141.848C128.614 140.408 129.35 139.208 130.246 138.248C131.142 137.256 132.07 136.76 133.03 136.76C133.318 136.76 133.798 136.888 134.47 137.144C134.662 135.672 135.19 134.456 136.054 133.496C136.918 132.536 138.054 132.056 139.462 132.056C141.99 132.056 143.254 133.352 143.254 135.944C143.254 137.16 142.982 138.472 142.438 139.88C141.926 141.288 141.206 142.68 140.278 144.056C140.854 144.248 141.318 144.344 141.67 144.344C143.206 144.344 144.502 143.832 145.558 142.808C146.614 141.784 147.462 140.568 148.102 139.16C148.742 137.752 149.366 136.072 149.974 134.12C149.686 133.768 149.542 133.368 149.542 132.92C149.542 132.28 149.67 131.688 149.926 131.144C150.214 130.6 150.534 130.168 150.886 129.848C151.27 129.528 151.59 129.368 151.846 129.368C152.55 129.368 152.902 129.864 152.902 130.856C152.902 130.984 152.806 131.288 152.614 131.768C152.454 132.216 152.374 132.488 152.374 132.584C152.374 132.808 152.486 133.016 152.71 133.208C152.966 133.4 153.366 133.688 153.91 134.072C155.03 134.776 155.91 135.496 156.55 136.232C157.222 136.936 157.558 137.864 157.558 139.016C157.558 139.72 157.43 140.44 157.174 141.176C156.95 141.88 156.63 142.728 156.214 143.72C155.574 145.128 155.254 146.136 155.254 146.744C155.254 147.192 155.35 147.496 155.542 147.656C155.766 147.816 156.07 147.896 156.454 147.896C157.382 147.896 158.39 147.512 159.478 146.744C160.598 145.976 161.622 145.048 162.55 143.96C163.478 142.84 164.15 141.8 164.566 140.84L165.526 141.512C164.438 143.848 162.95 145.896 161.062 147.656C159.206 149.416 157.27 150.296 155.254 150.296C154.07 150.296 153.094 149.976 152.326 149.336C151.59 148.728 151.222 147.912 151.222 146.888C151.222 146.248 151.334 145.576 151.558 144.872C151.782 144.136 152.118 143.256 152.566 142.232C152.95 141.272 153.238 140.52 153.43 139.976C153.622 139.4 153.718 138.872 153.718 138.392C153.718 137.08 152.87 135.976 151.174 135.08C150.406 137.352 149.67 139.224 148.966 140.696C148.294 142.136 147.334 143.416 146.086 144.536C144.838 145.624 143.27 146.168 141.382 146.168C140.582 146.168 139.814 146.024 139.078 145.736C137.894 147.176 136.646 148.328 135.334 149.192C134.022 150.088 132.758 150.536 131.542 150.536ZM138.79 142.856C139.526 141.768 140.086 140.648 140.47 139.496C140.886 138.344 141.094 137.256 141.094 136.232C141.094 135.528 140.966 134.984 140.71 134.6C140.454 134.216 140.166 134.024 139.846 134.024C139.174 134.024 138.534 134.44 137.926 135.272C137.35 136.104 137.062 137.112 137.062 138.296C137.062 139.032 137.222 139.816 137.542 140.648C137.894 141.48 138.31 142.216 138.79 142.856ZM132.502 148.136C133.11 148.136 133.846 147.816 134.71 147.176C135.574 146.504 136.454 145.656 137.35 144.632C135.462 143.096 134.486 140.728 134.422 137.528C133.718 138.328 132.966 139.624 132.166 141.416C131.366 143.176 130.966 144.568 130.966 145.592C130.966 146.424 131.094 147.064 131.35 147.512C131.638 147.928 132.022 148.136 132.502 148.136Z" fill="#00718A"/>
<path d="M39.0415 164.228C39.9123 164.228 40.7098 164.362 41.4341 164.63C42.1584 164.899 42.7769 165.359 43.2896 166.01C43.8104 166.653 44.2132 167.511 44.498 168.585C44.791 169.66 44.9375 170.998 44.9375 172.602C44.9375 174.213 44.791 175.56 44.498 176.642C44.2132 177.716 43.8104 178.579 43.2896 179.23C42.7687 179.873 42.1462 180.329 41.4219 180.597C40.6976 180.866 39.896 181 39.0171 181H35.2207C35.2695 180.308 35.3062 179.6 35.3306 178.876C35.3631 178.144 35.3875 177.419 35.4038 176.703C35.4201 175.979 35.4323 175.271 35.4404 174.579C35.4486 173.887 35.4526 173.228 35.4526 172.602C35.4526 171.975 35.4486 171.316 35.4404 170.624C35.4323 169.932 35.4201 169.228 35.4038 168.512C35.3875 167.796 35.3631 167.076 35.3306 166.352C35.3062 165.627 35.2695 164.919 35.2207 164.228H39.0415ZM37.4424 165.619C37.3854 166.824 37.3447 168.028 37.3203 169.232C37.304 170.429 37.2959 171.552 37.2959 172.602C37.2959 173.651 37.304 174.783 37.3203 175.995C37.3366 177.2 37.3732 178.4 37.4302 179.596H39.0659C39.4159 179.596 39.7495 179.56 40.0669 179.486C40.3924 179.405 40.6895 179.267 40.958 179.071C41.2347 178.876 41.487 178.611 41.7148 178.278C41.9427 177.936 42.134 177.509 42.2886 176.996C42.4513 176.475 42.5734 175.857 42.6548 175.141C42.7443 174.416 42.7891 173.57 42.7891 172.602C42.7891 171.633 42.7443 170.791 42.6548 170.075C42.5734 169.35 42.4513 168.732 42.2886 168.219C42.134 167.698 41.9427 167.271 41.7148 166.938C41.487 166.604 41.2347 166.339 40.958 166.144C40.6895 165.949 40.3924 165.814 40.0669 165.741C39.7495 165.66 39.4159 165.619 39.0659 165.619H37.4424ZM54.0684 164.228V165.656H49.21C49.1611 166.592 49.1245 167.528 49.1001 168.463C49.0838 169.391 49.0716 170.294 49.0635 171.173H53.7144V172.602H49.0635C49.0635 173.651 49.0716 174.778 49.0879 175.983C49.1042 177.179 49.1408 178.375 49.1978 179.572H54.1416V181H46.9883C47.0371 180.308 47.0737 179.6 47.0981 178.876C47.1307 178.144 47.1551 177.419 47.1714 176.703C47.1877 175.979 47.1999 175.271 47.208 174.579C47.2161 173.887 47.2202 173.228 47.2202 172.602C47.2202 171.975 47.2161 171.316 47.208 170.624C47.1999 169.932 47.1877 169.228 47.1714 168.512C47.1551 167.796 47.1307 167.076 47.0981 166.352C47.0737 165.627 47.0371 164.919 46.9883 164.228H54.0684ZM59.1465 179.95C59.472 179.95 59.7894 179.901 60.0986 179.804C60.416 179.698 60.6968 179.531 60.9409 179.303C61.1851 179.075 61.3804 178.786 61.5269 178.437C61.6733 178.078 61.7466 177.643 61.7466 177.13C61.7466 176.691 61.6571 176.284 61.478 175.91C61.3071 175.535 61.0793 175.177 60.7944 174.835C60.5096 174.494 60.1841 174.164 59.8179 173.847C59.4517 173.521 59.0773 173.196 58.6948 172.87C58.3123 172.545 57.938 172.211 57.5718 171.869C57.2056 171.519 56.88 171.153 56.5952 170.771C56.3104 170.38 56.0785 169.961 55.8994 169.513C55.7285 169.066 55.6431 168.577 55.6431 168.048C55.6431 167.275 55.7855 166.624 56.0703 166.095C56.3551 165.566 56.7173 165.143 57.1567 164.826C57.5962 164.5 58.0804 164.268 58.6094 164.13C59.1465 163.992 59.6673 163.922 60.1719 163.922C60.7008 163.922 61.2095 163.967 61.6978 164.057C62.1942 164.138 62.6702 164.228 63.126 164.325V166.754C62.8656 166.535 62.6174 166.335 62.3813 166.156C62.1535 165.977 61.9215 165.827 61.6855 165.705C61.4577 165.574 61.2217 165.477 60.9775 165.412C60.7334 165.338 60.473 165.302 60.1963 165.302C59.8545 165.302 59.529 165.351 59.2197 165.448C58.9186 165.538 58.6541 165.68 58.4263 165.875C58.2065 166.071 58.0275 166.319 57.8892 166.62C57.759 166.921 57.6938 167.279 57.6938 167.694C57.6938 168.272 57.8444 168.801 58.1455 169.281C58.4466 169.753 58.825 170.205 59.2808 170.636C59.7365 171.068 60.2288 171.499 60.7578 171.93C61.2868 172.361 61.7791 172.825 62.2349 173.322C62.6906 173.818 63.069 174.363 63.3701 174.958C63.6712 175.543 63.8218 176.215 63.8218 176.972C63.8218 177.541 63.7567 178.046 63.6265 178.485C63.4963 178.917 63.3172 179.295 63.0894 179.621C62.8696 179.938 62.6133 180.207 62.3203 180.426C62.0273 180.646 61.714 180.825 61.3804 180.963C61.0467 181.094 60.7008 181.187 60.3428 181.244C59.9928 181.301 59.651 181.33 59.3174 181.33C58.9186 181.33 58.5524 181.313 58.2188 181.281C57.8851 181.256 57.5718 181.216 57.2788 181.159C56.994 181.11 56.7254 181.053 56.4731 180.988C56.229 180.915 55.9889 180.837 55.7529 180.756V178.253C56.0052 178.489 56.2575 178.713 56.5098 178.925C56.762 179.128 57.0225 179.307 57.291 179.462C57.5677 179.617 57.8566 179.739 58.1577 179.828C58.4588 179.91 58.7884 179.95 59.1465 179.95ZM68.0454 164.228C67.9966 164.919 67.9559 165.627 67.9233 166.352C67.8989 167.076 67.8786 167.796 67.8623 168.512C67.846 169.228 67.8338 169.932 67.8257 170.624C67.8175 171.316 67.8135 171.975 67.8135 172.602C67.8135 173.228 67.8175 173.887 67.8257 174.579C67.8338 175.271 67.846 175.979 67.8623 176.703C67.8786 177.419 67.8989 178.144 67.9233 178.876C67.9478 179.6 67.9803 180.308 68.021 181H65.7383C65.7871 180.308 65.8237 179.6 65.8481 178.876C65.8807 178.144 65.9051 177.419 65.9214 176.703C65.9377 175.979 65.9499 175.271 65.958 174.579C65.9661 173.887 65.9702 173.228 65.9702 172.602C65.9702 171.975 65.9661 171.316 65.958 170.624C65.9499 169.932 65.9377 169.228 65.9214 168.512C65.9051 167.796 65.8807 167.076 65.8481 166.352C65.8237 165.627 65.7871 164.919 65.7383 164.228H68.0454ZM75.3818 172.748H79.8252C79.7926 173.415 79.7682 174.07 79.752 174.713C79.7438 175.356 79.7397 175.971 79.7397 176.557C79.7397 177.143 79.7397 177.68 79.7397 178.168C79.7479 178.648 79.7601 179.063 79.7764 179.413C79.7926 179.828 79.8089 180.198 79.8252 180.524C79.4102 180.736 78.9056 180.915 78.3115 181.061C77.7174 181.208 76.9972 181.281 76.1509 181.281C75.3045 181.281 74.5192 181.106 73.7949 180.756C73.0706 180.406 72.4399 179.877 71.9028 179.169C71.3657 178.453 70.9425 177.554 70.6333 176.471C70.3322 175.381 70.1816 174.099 70.1816 172.626C70.1816 171.153 70.3403 169.875 70.6577 168.793C70.9832 167.702 71.4227 166.803 71.9761 166.095C72.5295 165.379 73.1724 164.846 73.9048 164.496C74.6453 164.146 75.4307 163.971 76.2607 163.971C76.6025 163.971 76.9118 163.987 77.1885 164.02C77.4652 164.044 77.7215 164.081 77.9575 164.13C78.2017 164.179 78.4295 164.24 78.6411 164.313C78.8527 164.386 79.0602 164.464 79.2637 164.545V167.011C78.7347 166.417 78.2342 166.002 77.7622 165.766C77.2983 165.521 76.7938 165.399 76.2485 165.399C75.6219 165.399 75.0645 165.574 74.5762 165.924C74.0879 166.266 73.6729 166.754 73.3311 167.389C72.9974 168.024 72.741 168.785 72.562 169.672C72.3911 170.551 72.3057 171.527 72.3057 172.602C72.3057 173.643 72.387 174.608 72.5498 175.495C72.7126 176.374 72.9567 177.139 73.2822 177.79C73.6077 178.432 74.0146 178.937 74.5029 179.303C74.9993 179.669 75.5771 179.853 76.2363 179.853C76.5212 179.853 76.7694 179.832 76.981 179.792C77.2007 179.743 77.4163 179.661 77.6279 179.547C77.6361 179.368 77.6442 179.161 77.6523 178.925C77.6605 178.721 77.6686 178.477 77.6768 178.192C77.6849 177.899 77.689 177.562 77.689 177.179C77.689 176.764 77.6808 176.304 77.6646 175.8C77.6564 175.295 77.6361 174.75 77.6035 174.164H75.3818V172.748ZM91.2876 164.228C91.2388 164.919 91.1981 165.627 91.1655 166.352C91.1411 167.076 91.1208 167.796 91.1045 168.512C91.0882 169.228 91.076 169.932 91.0679 170.624C91.0597 171.316 91.0557 171.975 91.0557 172.602C91.0557 173.228 91.0597 173.887 91.0679 174.579C91.076 175.271 91.0882 175.979 91.1045 176.703C91.1208 177.419 91.1411 178.144 91.1655 178.876C91.1899 179.6 91.2225 180.308 91.2632 181H89.0049C88.5898 179.804 88.1829 178.664 87.7842 177.582C87.3854 176.5 86.9867 175.454 86.5879 174.445C86.1973 173.428 85.8066 172.439 85.416 171.479C85.0254 170.51 84.6348 169.55 84.2441 168.598H84.1587C84.1424 169.306 84.1343 169.997 84.1343 170.673C84.1424 171.34 84.1465 171.983 84.1465 172.602C84.1465 173.228 84.1506 173.887 84.1587 174.579C84.1668 175.271 84.179 175.979 84.1953 176.703C84.2116 177.419 84.2319 178.144 84.2563 178.876C84.2808 179.6 84.3133 180.308 84.354 181H82.1201C82.1689 180.308 82.2056 179.6 82.23 178.876C82.2625 178.144 82.2869 177.419 82.3032 176.703C82.3195 175.979 82.3317 175.271 82.3398 174.579C82.348 173.887 82.3521 173.228 82.3521 172.602C82.3521 171.975 82.348 171.316 82.3398 170.624C82.3317 169.932 82.3195 169.228 82.3032 168.512C82.2869 167.796 82.2625 167.076 82.23 166.352C82.2056 165.627 82.1689 164.919 82.1201 164.228H84.4028C85.2248 166.62 86.0304 168.878 86.8198 171.002C87.6092 173.126 88.3986 175.141 89.188 177.045H89.2734C89.2816 176.687 89.2856 176.312 89.2856 175.922C89.2856 175.531 89.2816 175.145 89.2734 174.762C89.2734 174.372 89.2694 173.993 89.2612 173.627C89.2612 173.261 89.2612 172.919 89.2612 172.602C89.2612 171.975 89.2572 171.316 89.249 170.624C89.2409 169.932 89.2287 169.228 89.2124 168.512C89.1961 167.796 89.1717 167.076 89.1392 166.352C89.1147 165.627 89.0781 164.919 89.0293 164.228H91.2876ZM102.445 164.228C103.316 164.228 104.113 164.362 104.837 164.63C105.562 164.899 106.18 165.359 106.693 166.01C107.214 166.653 107.617 167.511 107.901 168.585C108.194 169.66 108.341 170.998 108.341 172.602C108.341 174.213 108.194 175.56 107.901 176.642C107.617 177.716 107.214 178.579 106.693 179.23C106.172 179.873 105.549 180.329 104.825 180.597C104.101 180.866 103.299 181 102.42 181H98.624C98.6729 180.308 98.7095 179.6 98.7339 178.876C98.7664 178.144 98.7909 177.419 98.8071 176.703C98.8234 175.979 98.8356 175.271 98.8438 174.579C98.8519 173.887 98.856 173.228 98.856 172.602C98.856 171.975 98.8519 171.316 98.8438 170.624C98.8356 169.932 98.8234 169.228 98.8071 168.512C98.7909 167.796 98.7664 167.076 98.7339 166.352C98.7095 165.627 98.6729 164.919 98.624 164.228H102.445ZM100.846 165.619C100.789 166.824 100.748 168.028 100.724 169.232C100.707 170.429 100.699 171.552 100.699 172.602C100.699 173.651 100.707 174.783 100.724 175.995C100.74 177.2 100.777 178.4 100.833 179.596H102.469C102.819 179.596 103.153 179.56 103.47 179.486C103.796 179.405 104.093 179.267 104.361 179.071C104.638 178.876 104.89 178.611 105.118 178.278C105.346 177.936 105.537 177.509 105.692 176.996C105.855 176.475 105.977 175.857 106.058 175.141C106.148 174.416 106.192 173.57 106.192 172.602C106.192 171.633 106.148 170.791 106.058 170.075C105.977 169.35 105.855 168.732 105.692 168.219C105.537 167.698 105.346 167.271 105.118 166.938C104.89 166.604 104.638 166.339 104.361 166.144C104.093 165.949 103.796 165.814 103.47 165.741C103.153 165.66 102.819 165.619 102.469 165.619H100.846ZM120.572 172.626C120.572 174.132 120.438 175.434 120.169 176.532C119.901 177.623 119.527 178.526 119.046 179.242C118.574 179.95 118.017 180.475 117.374 180.817C116.731 181.159 116.039 181.33 115.299 181.33C114.55 181.33 113.854 181.159 113.211 180.817C112.569 180.475 112.007 179.95 111.527 179.242C111.055 178.526 110.681 177.623 110.404 176.532C110.135 175.434 110.001 174.132 110.001 172.626C110.001 171.129 110.135 169.835 110.404 168.744C110.681 167.646 111.055 166.738 111.527 166.022C112.007 165.306 112.569 164.777 113.211 164.435C113.854 164.093 114.55 163.922 115.299 163.922C116.039 163.922 116.731 164.093 117.374 164.435C118.017 164.777 118.574 165.306 119.046 166.022C119.527 166.738 119.901 167.646 120.169 168.744C120.438 169.835 120.572 171.129 120.572 172.626ZM118.473 172.626C118.473 171.373 118.391 170.29 118.229 169.379C118.066 168.467 117.842 167.719 117.557 167.133C117.272 166.539 116.935 166.103 116.544 165.827C116.161 165.542 115.746 165.399 115.299 165.399C114.843 165.399 114.42 165.542 114.029 165.827C113.647 166.103 113.309 166.539 113.016 167.133C112.731 167.719 112.507 168.467 112.345 169.379C112.182 170.29 112.101 171.373 112.101 172.626C112.101 173.887 112.182 174.974 112.345 175.885C112.507 176.797 112.731 177.545 113.016 178.131C113.309 178.717 113.647 179.153 114.029 179.438C114.42 179.714 114.843 179.853 115.299 179.853C115.746 179.853 116.161 179.714 116.544 179.438C116.935 179.153 117.272 178.717 117.557 178.131C117.842 177.545 118.066 176.797 118.229 175.885C118.391 174.974 118.473 173.887 118.473 172.626ZM124.356 172.626C124.356 173.798 124.45 174.835 124.637 175.739C124.824 176.634 125.089 177.387 125.431 177.997C125.781 178.607 126.196 179.071 126.676 179.389C127.164 179.698 127.705 179.853 128.299 179.853C128.657 179.853 128.975 179.808 129.251 179.718C129.528 179.629 129.776 179.519 129.996 179.389C130.224 179.25 130.436 179.1 130.631 178.937C130.826 178.766 131.017 178.603 131.205 178.449V180.902C130.749 181.016 130.289 181.106 129.825 181.171C129.369 181.244 128.861 181.281 128.299 181.281C127.429 181.281 126.623 181.106 125.882 180.756C125.142 180.406 124.499 179.877 123.954 179.169C123.417 178.453 122.993 177.554 122.684 176.471C122.383 175.381 122.232 174.099 122.232 172.626C122.232 171.153 122.391 169.875 122.708 168.793C123.034 167.702 123.469 166.803 124.015 166.095C124.568 165.379 125.211 164.846 125.943 164.496C126.684 164.146 127.469 163.971 128.299 163.971C128.861 163.971 129.369 164.008 129.825 164.081C130.289 164.146 130.749 164.236 131.205 164.35V166.803C131.017 166.649 130.826 166.49 130.631 166.327C130.436 166.156 130.224 166.006 129.996 165.875C129.776 165.737 129.528 165.623 129.251 165.534C128.975 165.444 128.657 165.399 128.299 165.399C127.705 165.399 127.164 165.558 126.676 165.875C126.196 166.185 125.781 166.645 125.431 167.255C125.089 167.865 124.824 168.622 124.637 169.525C124.45 170.421 124.356 171.454 124.356 172.626ZM131.986 164.228H140.348V165.656H137.235C137.17 166.852 137.129 168.048 137.113 169.245C137.097 170.441 137.088 171.56 137.088 172.602C137.088 173.228 137.092 173.887 137.101 174.579C137.109 175.271 137.121 175.979 137.137 176.703C137.153 177.419 137.174 178.144 137.198 178.876C137.223 179.6 137.255 180.308 137.296 181H135.013C135.062 180.308 135.099 179.6 135.123 178.876C135.156 178.144 135.18 177.419 135.196 176.703C135.213 175.979 135.225 175.271 135.233 174.579C135.241 173.887 135.245 173.228 135.245 172.602C135.245 171.56 135.233 170.441 135.208 169.245C135.192 168.048 135.156 166.852 135.099 165.656H131.986V164.228ZM151.334 172.626C151.334 174.132 151.2 175.434 150.931 176.532C150.663 177.623 150.288 178.526 149.808 179.242C149.336 179.95 148.779 180.475 148.136 180.817C147.493 181.159 146.801 181.33 146.061 181.33C145.312 181.33 144.616 181.159 143.973 180.817C143.33 180.475 142.769 179.95 142.289 179.242C141.817 178.526 141.442 177.623 141.166 176.532C140.897 175.434 140.763 174.132 140.763 172.626C140.763 171.129 140.897 169.835 141.166 168.744C141.442 167.646 141.817 166.738 142.289 166.022C142.769 165.306 143.33 164.777 143.973 164.435C144.616 164.093 145.312 163.922 146.061 163.922C146.801 163.922 147.493 164.093 148.136 164.435C148.779 164.777 149.336 165.306 149.808 166.022C150.288 166.738 150.663 167.646 150.931 168.744C151.2 169.835 151.334 171.129 151.334 172.626ZM149.234 172.626C149.234 171.373 149.153 170.29 148.99 169.379C148.827 168.467 148.604 167.719 148.319 167.133C148.034 166.539 147.696 166.103 147.306 165.827C146.923 165.542 146.508 165.399 146.061 165.399C145.605 165.399 145.182 165.542 144.791 165.827C144.409 166.103 144.071 166.539 143.778 167.133C143.493 167.719 143.269 168.467 143.106 169.379C142.944 170.29 142.862 171.373 142.862 172.626C142.862 173.887 142.944 174.974 143.106 175.885C143.269 176.797 143.493 177.545 143.778 178.131C144.071 178.717 144.409 179.153 144.791 179.438C145.182 179.714 145.605 179.853 146.061 179.853C146.508 179.853 146.923 179.714 147.306 179.438C147.696 179.153 148.034 178.717 148.319 178.131C148.604 177.545 148.827 176.797 148.99 175.885C149.153 174.974 149.234 173.887 149.234 172.626ZM157.364 164.228C158.74 164.228 159.802 164.63 160.55 165.436C161.307 166.242 161.686 167.462 161.686 169.098C161.686 170.156 161.502 171.031 161.136 171.723C160.77 172.406 160.229 172.931 159.513 173.297C159.692 173.997 159.916 174.758 160.184 175.58C160.42 176.288 160.713 177.106 161.063 178.034C161.421 178.961 161.856 179.95 162.369 181H159.793C159.427 179.787 159.122 178.734 158.878 177.838C158.642 176.935 158.455 176.178 158.316 175.568C158.154 174.86 158.028 174.254 157.938 173.749H155.46C155.46 174.319 155.464 174.909 155.472 175.519C155.488 176.121 155.505 176.732 155.521 177.35C155.537 177.96 155.558 178.575 155.582 179.193C155.606 179.812 155.635 180.414 155.667 181H153.385C153.434 180.308 153.47 179.6 153.495 178.876C153.527 178.144 153.552 177.419 153.568 176.703C153.584 175.979 153.596 175.271 153.604 174.579C153.613 173.887 153.617 173.228 153.617 172.602C153.617 171.975 153.613 171.316 153.604 170.624C153.596 169.932 153.584 169.228 153.568 168.512C153.552 167.796 153.527 167.076 153.495 166.352C153.47 165.627 153.434 164.919 153.385 164.228H157.364ZM155.606 165.595C155.549 166.758 155.509 167.926 155.484 169.098C155.468 170.262 155.46 171.361 155.46 172.394H157.242C157.608 172.394 157.934 172.337 158.219 172.223C158.504 172.109 158.744 171.922 158.939 171.662C159.142 171.401 159.297 171.063 159.403 170.648C159.509 170.225 159.562 169.708 159.562 169.098C159.562 167.861 159.366 166.97 158.976 166.425C158.593 165.871 158.015 165.595 157.242 165.595H155.606Z" fill="#FF9E75"/>
<defs>
<filter id="filter0_d" x="59" y="28" width="80" height="80" filterUnits="userSpaceOnUse" color-interpolation-filters="sRGB">
<feFlood flood-opacity="0" result="BackgroundImageFix"/>
<feColorMatrix in="SourceAlpha" type="matrix" values="0 0 0 0 0 0 0 0 0 0 0 0 0 0 0 0 0 0 127 0"/>
<feOffset dy="4"/>
<feGaussianBlur stdDeviation="2"/>
<feColorMatrix type="matrix" values="0 0 0 0 0 0 0 0 0 0 0 0 0 0 0 0 0 0 0.25 0"/>
<feBlend mode="normal" in2="BackgroundImageFix" result="effect1_dropShadow"/>
<feBlend mode="normal" in="SourceGraphic" in2="effect1_dropShadow" result="shape"/>
</filter>
</defs>
</svg>
