<svg width="133" height="174" viewBox="0 0 133 174" fill="none" xmlns="http://www.w3.org/2000/svg">
<mask id="mask0" mask-type="alpha" maskUnits="userSpaceOnUse" x="16" y="1" width="100" height="100">
<circle cx="66" cy="51" r="49.5" fill="#C4C4C4" stroke="black"/>
</mask>
<g mask="url(#mask0)">
<rect x="54" y="-4" width="81" height="124" fill="#07849F"/>
<g filter="url(#filter0_d)">
<circle cx="66" cy="51" r="36" fill="#FF9E75"/>
</g>
<path d="M16 1H60V106H16V1Z" fill="#07849F"/>
<rect x="41" y="1" width="5" height="109" fill="#FF9E75"/>
</g>
<path d="M16 1V0H15V1H16ZM116 1H117V0H116V1ZM116 101V102H117V101H116ZM16 101H15V102H16V101ZM16 2H116V0H16V2ZM115 1V101H117V1H115ZM116 100H16V102H116V100ZM17 101V1H15V101H17Z" fill="white"/>
<path d="M10.504 115.792C9.832 115.792 9.256 115.632 8.776 115.312C8.328 114.992 8.104 114.528 8.104 113.92C8.104 113.184 8.504 112.544 9.304 112C10.136 111.424 11.016 111.136 11.944 111.136C13.32 111.136 14.008 111.728 14.008 112.912C14.008 113.584 13.64 114.24 12.904 114.88C12.168 115.488 11.368 115.792 10.504 115.792ZM4.84 137.44C3.496 137.44 2.456 137.04 1.72 136.24C0.984 135.44 0.616 134.416 0.616 133.168C0.616 131.888 0.968 130.16 1.672 127.984C2.408 125.776 3.32 123.84 4.408 122.176C5.528 120.512 6.648 119.68 7.768 119.68C8.184 119.68 8.52 119.808 8.776 120.064C9.064 120.288 9.208 120.624 9.208 121.072C9.208 121.36 9.08 121.76 8.824 122.272C8.568 122.752 8.152 123.456 7.576 124.384C6.552 126.08 5.736 127.584 5.128 128.896C4.552 130.176 4.264 131.392 4.264 132.544C4.264 133.536 4.44 134.208 4.792 134.56C5.144 134.912 5.688 135.088 6.424 135.088C8.952 135.088 11.464 132.64 13.96 127.744L14.68 128.512C13.56 131.328 12.136 133.52 10.408 135.088C8.68 136.656 6.824 137.44 4.84 137.44ZM28.8948 136.96C27.6788 136.96 26.7348 136.656 26.0628 136.048C25.3908 135.44 25.0547 134.64 25.0547 133.648C25.0547 133.232 25.1188 132.752 25.2468 132.208C25.4068 131.664 25.5668 131.12 25.7268 130.576C26.1748 129.104 26.3988 128.016 26.3988 127.312C26.3988 126.672 26.2388 126.208 25.9188 125.92C25.5988 125.6 25.1988 125.44 24.7188 125.44C23.0228 125.44 21.3108 126.512 19.5828 128.656C17.8548 130.768 15.9988 133.456 14.0148 136.72C12.6387 136.72 11.5987 136.256 10.8947 135.328L11.3267 134.128C13.2148 129.552 14.1588 126.16 14.1588 123.952C14.4148 123.664 14.7828 123.408 15.2628 123.184C15.7428 122.928 16.2068 122.8 16.6548 122.8C17.1988 122.8 17.6148 122.928 17.9028 123.184C18.1908 123.44 18.3348 123.792 18.3348 124.24C18.3348 125.104 18.0628 126.528 17.5188 128.512C18.9588 126.592 20.4468 125.024 21.9828 123.808C23.5508 122.592 25.0868 121.984 26.5908 121.984C27.8708 121.984 28.8628 122.432 29.5668 123.328C30.2708 124.192 30.6228 125.232 30.6228 126.448C30.6228 127.152 30.5268 127.824 30.3348 128.464C30.1748 129.104 29.9188 129.824 29.5668 130.624C29.0228 131.968 28.7508 132.976 28.7508 133.648C28.7508 134.128 28.8628 134.48 29.0868 134.704C29.3108 134.928 29.5828 135.04 29.9028 135.04C30.9588 135.04 32.0948 134.32 33.3108 132.88C34.5588 131.408 35.6788 129.68 36.6708 127.696L37.4868 128.368C36.3348 131.024 35.0548 133.12 33.6468 134.656C32.2708 136.192 30.6868 136.96 28.8948 136.96ZM39.7743 138.208C38.3023 138.208 37.1503 137.776 36.3183 136.912C35.4863 136.08 35.0702 134.832 35.0702 133.168C35.0702 131.92 35.3102 130.336 35.7903 128.416C36.2703 126.464 36.9103 124.4 37.7103 122.224C36.8783 122.064 36.3183 121.92 36.0303 121.792V120.304C36.7983 120.4 37.5663 120.48 38.3343 120.544C39.7743 116.928 41.3103 113.824 42.9423 111.232C44.6063 108.64 45.9503 107.344 46.9743 107.344C47.3263 107.344 47.6303 107.472 47.8863 107.728C48.1743 107.984 48.3183 108.32 48.3183 108.736C48.3183 109.248 48.0943 109.936 47.6463 110.8C47.1983 111.664 46.4623 112.976 45.4383 114.736C44.0303 117.104 42.9263 119.088 42.1263 120.688C45.8063 120.688 48.7343 120.576 50.9103 120.352V121.936C47.1343 122.32 43.9183 122.512 41.2623 122.512C39.5983 126.448 38.7663 129.664 38.7663 132.16C38.7663 133.472 38.9743 134.4 39.3903 134.944C39.8063 135.488 40.4623 135.76 41.3583 135.76C42.9583 135.76 44.5903 135.04 46.2543 133.6C47.9503 132.128 49.4223 130.144 50.6703 127.648L51.3423 128.128C50.0303 131.104 48.3343 133.536 46.2543 135.424C44.1743 137.28 42.0143 138.208 39.7743 138.208ZM54.8024 138.112C52.7864 138.112 51.2184 137.568 50.0984 136.48C48.9784 135.392 48.4184 134 48.4184 132.304C48.4184 130.448 49.0424 128.448 50.2904 126.304C51.5384 124.128 53.1384 122.32 55.0904 120.88C57.0424 119.408 58.9624 118.672 60.8504 118.672C61.8424 118.672 62.6744 118.928 63.3464 119.44C64.0184 119.92 64.3544 120.736 64.3544 121.888C64.3544 123.424 63.7624 124.88 62.5784 126.256C61.3944 127.6 59.8584 128.704 57.9704 129.568C56.1144 130.432 54.2104 130.976 52.2584 131.2C52.1944 131.52 52.1624 131.888 52.1624 132.304C52.1624 133.136 52.3864 133.968 52.8344 134.8C53.3144 135.632 54.3224 136.048 55.8584 136.048C57.8104 136.048 59.7944 135.264 61.8104 133.696C63.8584 132.096 65.5064 130.112 66.7544 127.744L67.7144 128.512C66.4344 131.392 64.5944 133.712 62.1944 135.472C59.8264 137.232 57.3624 138.112 54.8024 138.112ZM52.7864 129.424C53.9384 129.296 55.2184 128.832 56.6264 128.032C58.0664 127.232 59.2824 126.256 60.2744 125.104C61.2664 123.92 61.7624 122.768 61.7624 121.648C61.7624 121.296 61.6984 121.056 61.5704 120.928C61.4424 120.8 61.2344 120.736 60.9464 120.736C60.0184 120.736 58.9944 121.184 57.8744 122.08C56.7864 122.944 55.7784 124.048 54.8504 125.392C53.9224 126.736 53.2344 128.08 52.7864 129.424ZM74.4738 137.248C73.2898 137.248 72.3298 136.928 71.5938 136.288C70.8578 135.68 70.4898 134.848 70.4898 133.792C70.4898 133.184 70.6018 132.528 70.8258 131.824C71.0818 131.088 71.4498 130.208 71.9297 129.184C72.3458 128.288 72.6658 127.536 72.8898 126.928C73.1138 126.288 73.2258 125.728 73.2258 125.248C73.2258 124.032 72.4258 123.008 70.8258 122.176C70.1858 123.776 69.4338 125.392 68.5698 127.024C67.7378 128.656 66.9858 130.032 66.3138 131.152L65.5938 129.76C67.0658 127.136 68.3618 124.24 69.4818 121.072C69.1618 120.752 69.0018 120.32 69.0018 119.776C69.0018 118.944 69.2578 118.16 69.7698 117.424C70.2818 116.688 70.7778 116.32 71.2578 116.32C71.5778 116.32 71.8338 116.512 72.0258 116.896C72.2498 117.28 72.3618 117.6 72.3618 117.856C72.3618 117.984 72.2818 118.272 72.1218 118.72C71.9938 119.136 71.8978 119.44 71.8338 119.632C71.8658 119.856 71.9938 120.08 72.2178 120.304C72.4418 120.496 72.8578 120.784 73.4658 121.168C74.5858 121.904 75.4498 122.624 76.0578 123.328C76.6978 124 77.0178 124.912 77.0178 126.064C77.0178 126.768 76.8898 127.472 76.6338 128.176C76.4098 128.88 76.0578 129.728 75.5778 130.72C74.8738 132.128 74.5218 133.136 74.5218 133.744C74.5218 134.48 74.9218 134.848 75.7218 134.848C76.6818 134.848 77.7218 134.464 78.8418 133.696C79.9938 132.928 81.0338 132 81.9618 130.912C82.9218 129.792 83.6258 128.752 84.0738 127.792L85.2258 128.656C84.5858 130.096 83.6898 131.472 82.5378 132.784C81.3858 134.096 80.0898 135.168 78.6498 136C77.2418 136.832 75.8498 137.248 74.4738 137.248ZM92.5353 115.792C91.8633 115.792 91.2873 115.632 90.8073 115.312C90.3593 114.992 90.1353 114.528 90.1353 113.92C90.1353 113.184 90.5353 112.544 91.3353 112C92.1673 111.424 93.0473 111.136 93.9753 111.136C95.3513 111.136 96.0393 111.728 96.0393 112.912C96.0393 113.584 95.6713 114.24 94.9353 114.88C94.1993 115.488 93.3993 115.792 92.5353 115.792ZM86.8713 137.44C85.5273 137.44 84.4873 137.04 83.7513 136.24C83.0152 135.44 82.6472 134.416 82.6472 133.168C82.6472 131.888 82.9992 130.16 83.7033 127.984C84.4393 125.776 85.3513 123.84 86.4393 122.176C87.5593 120.512 88.6793 119.68 89.7993 119.68C90.2153 119.68 90.5513 119.808 90.8073 120.064C91.0953 120.288 91.2393 120.624 91.2393 121.072C91.2393 121.36 91.1113 121.76 90.8553 122.272C90.5993 122.752 90.1833 123.456 89.6073 124.384C88.5833 126.08 87.7673 127.584 87.1593 128.896C86.5833 130.176 86.2953 131.392 86.2953 132.544C86.2953 133.536 86.4713 134.208 86.8233 134.56C87.1753 134.912 87.7193 135.088 88.4553 135.088C90.9833 135.088 93.4953 132.64 95.9913 127.744L96.7113 128.512C95.5913 131.328 94.1673 133.52 92.4393 135.088C90.7113 136.656 88.8553 137.44 86.8713 137.44ZM98.542 137.536C97.134 137.536 96.062 137.104 95.326 136.24C94.59 135.408 94.222 134.32 94.222 132.976C94.222 131.664 94.494 130.288 95.038 128.848C95.614 127.408 96.35 126.208 97.246 125.248C98.142 124.256 99.07 123.76 100.03 123.76C100.318 123.76 100.798 123.888 101.47 124.144C101.662 122.672 102.19 121.456 103.054 120.496C103.918 119.536 105.054 119.056 106.462 119.056C108.99 119.056 110.254 120.352 110.254 122.944C110.254 124.16 109.982 125.472 109.438 126.88C108.926 128.288 108.206 129.68 107.278 131.056C107.854 131.248 108.318 131.344 108.67 131.344C110.206 131.344 111.502 130.832 112.558 129.808C113.614 128.784 114.462 127.568 115.102 126.16C115.742 124.752 116.366 123.072 116.974 121.12C116.686 120.768 116.542 120.368 116.542 119.92C116.542 119.28 116.67 118.688 116.926 118.144C117.214 117.6 117.534 117.168 117.886 116.848C118.27 116.528 118.59 116.368 118.846 116.368C119.55 116.368 119.902 116.864 119.902 117.856C119.902 117.984 119.806 118.288 119.614 118.768C119.454 119.216 119.374 119.488 119.374 119.584C119.374 119.808 119.486 120.016 119.71 120.208C119.966 120.4 120.366 120.688 120.91 121.072C122.03 121.776 122.91 122.496 123.55 123.232C124.222 123.936 124.558 124.864 124.558 126.016C124.558 126.72 124.43 127.44 124.174 128.176C123.95 128.88 123.63 129.728 123.214 130.72C122.574 132.128 122.254 133.136 122.254 133.744C122.254 134.192 122.35 134.496 122.542 134.656C122.766 134.816 123.07 134.896 123.454 134.896C124.382 134.896 125.39 134.512 126.478 133.744C127.598 132.976 128.622 132.048 129.55 130.96C130.478 129.84 131.15 128.8 131.566 127.84L132.526 128.512C131.438 130.848 129.95 132.896 128.062 134.656C126.206 136.416 124.27 137.296 122.254 137.296C121.07 137.296 120.094 136.976 119.326 136.336C118.59 135.728 118.222 134.912 118.222 133.888C118.222 133.248 118.334 132.576 118.558 131.872C118.782 131.136 119.118 130.256 119.566 129.232C119.95 128.272 120.238 127.52 120.43 126.976C120.622 126.4 120.718 125.872 120.718 125.392C120.718 124.08 119.87 122.976 118.174 122.08C117.406 124.352 116.67 126.224 115.966 127.696C115.294 129.136 114.334 130.416 113.086 131.536C111.838 132.624 110.27 133.168 108.382 133.168C107.582 133.168 106.814 133.024 106.078 132.736C104.894 134.176 103.646 135.328 102.334 136.192C101.022 137.088 99.758 137.536 98.542 137.536ZM105.79 129.856C106.526 128.768 107.086 127.648 107.47 126.496C107.886 125.344 108.094 124.256 108.094 123.232C108.094 122.528 107.966 121.984 107.71 121.6C107.454 121.216 107.166 121.024 106.846 121.024C106.174 121.024 105.534 121.44 104.926 122.272C104.35 123.104 104.062 124.112 104.062 125.296C104.062 126.032 104.222 126.816 104.542 127.648C104.894 128.48 105.31 129.216 105.79 129.856ZM99.502 135.136C100.11 135.136 100.846 134.816 101.71 134.176C102.574 133.504 103.454 132.656 104.35 131.632C102.462 130.096 101.486 127.728 101.422 124.528C100.718 125.328 99.966 126.624 99.166 128.416C98.366 130.176 97.966 131.568 97.966 132.592C97.966 133.424 98.094 134.064 98.35 134.512C98.638 134.928 99.022 135.136 99.502 135.136Z" fill="#00718A"/>
<path d="M6.0415 151.228C6.91227 151.228 7.7098 151.362 8.43408 151.63C9.15837 151.899 9.77686 152.359 10.2896 153.01C10.8104 153.653 11.2132 154.511 11.498 155.585C11.791 156.66 11.9375 157.998 11.9375 159.602C11.9375 161.213 11.791 162.56 11.498 163.642C11.2132 164.716 10.8104 165.579 10.2896 166.23C9.76872 166.873 9.14616 167.329 8.42188 167.597C7.69759 167.866 6.896 168 6.01709 168H2.2207C2.26953 167.308 2.30615 166.6 2.33057 165.876C2.36312 165.144 2.38753 164.419 2.40381 163.703C2.42008 162.979 2.43229 162.271 2.44043 161.579C2.44857 160.887 2.45264 160.228 2.45264 159.602C2.45264 158.975 2.44857 158.316 2.44043 157.624C2.43229 156.932 2.42008 156.228 2.40381 155.512C2.38753 154.796 2.36312 154.076 2.33057 153.352C2.30615 152.627 2.26953 151.919 2.2207 151.228H6.0415ZM4.44238 152.619C4.38542 153.824 4.34473 155.028 4.32031 156.232C4.30404 157.429 4.2959 158.552 4.2959 159.602C4.2959 160.651 4.30404 161.783 4.32031 162.995C4.33659 164.2 4.37321 165.4 4.43018 166.596H6.06592C6.41585 166.596 6.74951 166.56 7.06689 166.486C7.39242 166.405 7.68945 166.267 7.95801 166.071C8.2347 165.876 8.48698 165.611 8.71484 165.278C8.94271 164.936 9.13395 164.509 9.28857 163.996C9.45133 163.475 9.5734 162.857 9.65479 162.141C9.7443 161.416 9.78906 160.57 9.78906 159.602C9.78906 158.633 9.7443 157.791 9.65479 157.075C9.5734 156.35 9.45133 155.732 9.28857 155.219C9.13395 154.698 8.94271 154.271 8.71484 153.938C8.48698 153.604 8.2347 153.339 7.95801 153.144C7.68945 152.949 7.39242 152.814 7.06689 152.741C6.74951 152.66 6.41585 152.619 6.06592 152.619H4.44238ZM21.0684 151.228V152.656H16.21C16.1611 153.592 16.1245 154.528 16.1001 155.463C16.0838 156.391 16.0716 157.294 16.0635 158.173H20.7144V159.602H16.0635C16.0635 160.651 16.0716 161.778 16.0879 162.983C16.1042 164.179 16.1408 165.375 16.1978 166.572H21.1416V168H13.9883C14.0371 167.308 14.0737 166.6 14.0981 165.876C14.1307 165.144 14.1551 164.419 14.1714 163.703C14.1877 162.979 14.1999 162.271 14.208 161.579C14.2161 160.887 14.2202 160.228 14.2202 159.602C14.2202 158.975 14.2161 158.316 14.208 157.624C14.1999 156.932 14.1877 156.228 14.1714 155.512C14.1551 154.796 14.1307 154.076 14.0981 153.352C14.0737 152.627 14.0371 151.919 13.9883 151.228H21.0684ZM26.1465 166.95C26.472 166.95 26.7894 166.901 27.0986 166.804C27.416 166.698 27.6968 166.531 27.9409 166.303C28.1851 166.075 28.3804 165.786 28.5269 165.437C28.6733 165.078 28.7466 164.643 28.7466 164.13C28.7466 163.691 28.6571 163.284 28.478 162.91C28.3071 162.535 28.0793 162.177 27.7944 161.835C27.5096 161.494 27.1841 161.164 26.8179 160.847C26.4517 160.521 26.0773 160.196 25.6948 159.87C25.3123 159.545 24.938 159.211 24.5718 158.869C24.2056 158.519 23.88 158.153 23.5952 157.771C23.3104 157.38 23.0785 156.961 22.8994 156.513C22.7285 156.066 22.6431 155.577 22.6431 155.048C22.6431 154.275 22.7855 153.624 23.0703 153.095C23.3551 152.566 23.7173 152.143 24.1567 151.826C24.5962 151.5 25.0804 151.268 25.6094 151.13C26.1465 150.992 26.6673 150.922 27.1719 150.922C27.7008 150.922 28.2095 150.967 28.6978 151.057C29.1942 151.138 29.6702 151.228 30.126 151.325V153.754C29.8656 153.535 29.6174 153.335 29.3813 153.156C29.1535 152.977 28.9215 152.827 28.6855 152.705C28.4577 152.574 28.2217 152.477 27.9775 152.412C27.7334 152.338 27.473 152.302 27.1963 152.302C26.8545 152.302 26.529 152.351 26.2197 152.448C25.9186 152.538 25.6541 152.68 25.4263 152.875C25.2065 153.071 25.0275 153.319 24.8892 153.62C24.759 153.921 24.6938 154.279 24.6938 154.694C24.6938 155.272 24.8444 155.801 25.1455 156.281C25.4466 156.753 25.825 157.205 26.2808 157.636C26.7365 158.068 27.2288 158.499 27.7578 158.93C28.2868 159.361 28.7791 159.825 29.2349 160.322C29.6906 160.818 30.069 161.363 30.3701 161.958C30.6712 162.543 30.8218 163.215 30.8218 163.972C30.8218 164.541 30.7567 165.046 30.6265 165.485C30.4963 165.917 30.3172 166.295 30.0894 166.621C29.8696 166.938 29.6133 167.207 29.3203 167.426C29.0273 167.646 28.714 167.825 28.3804 167.963C28.0467 168.094 27.7008 168.187 27.3428 168.244C26.9928 168.301 26.651 168.33 26.3174 168.33C25.9186 168.33 25.5524 168.313 25.2188 168.281C24.8851 168.256 24.5718 168.216 24.2788 168.159C23.994 168.11 23.7254 168.053 23.4731 167.988C23.229 167.915 22.9889 167.837 22.7529 167.756V165.253C23.0052 165.489 23.2575 165.713 23.5098 165.925C23.762 166.128 24.0225 166.307 24.291 166.462C24.5677 166.617 24.8566 166.739 25.1577 166.828C25.4588 166.91 25.7884 166.95 26.1465 166.95ZM35.0454 151.228C34.9966 151.919 34.9559 152.627 34.9233 153.352C34.8989 154.076 34.8786 154.796 34.8623 155.512C34.846 156.228 34.8338 156.932 34.8257 157.624C34.8175 158.316 34.8135 158.975 34.8135 159.602C34.8135 160.228 34.8175 160.887 34.8257 161.579C34.8338 162.271 34.846 162.979 34.8623 163.703C34.8786 164.419 34.8989 165.144 34.9233 165.876C34.9478 166.6 34.9803 167.308 35.021 168H32.7383C32.7871 167.308 32.8237 166.6 32.8481 165.876C32.8807 165.144 32.9051 164.419 32.9214 163.703C32.9377 162.979 32.9499 162.271 32.958 161.579C32.9661 160.887 32.9702 160.228 32.9702 159.602C32.9702 158.975 32.9661 158.316 32.958 157.624C32.9499 156.932 32.9377 156.228 32.9214 155.512C32.9051 154.796 32.8807 154.076 32.8481 153.352C32.8237 152.627 32.7871 151.919 32.7383 151.228H35.0454ZM42.3818 159.748H46.8252C46.7926 160.415 46.7682 161.07 46.752 161.713C46.7438 162.356 46.7397 162.971 46.7397 163.557C46.7397 164.143 46.7397 164.68 46.7397 165.168C46.7479 165.648 46.7601 166.063 46.7764 166.413C46.7926 166.828 46.8089 167.198 46.8252 167.524C46.4102 167.736 45.9056 167.915 45.3115 168.061C44.7174 168.208 43.9972 168.281 43.1509 168.281C42.3045 168.281 41.5192 168.106 40.7949 167.756C40.0706 167.406 39.4399 166.877 38.9028 166.169C38.3657 165.453 37.9425 164.554 37.6333 163.471C37.3322 162.381 37.1816 161.099 37.1816 159.626C37.1816 158.153 37.3403 156.875 37.6577 155.793C37.9832 154.702 38.4227 153.803 38.9761 153.095C39.5295 152.379 40.1724 151.846 40.9048 151.496C41.6453 151.146 42.4307 150.971 43.2607 150.971C43.6025 150.971 43.9118 150.987 44.1885 151.02C44.4652 151.044 44.7215 151.081 44.9575 151.13C45.2017 151.179 45.4295 151.24 45.6411 151.313C45.8527 151.386 46.0602 151.464 46.2637 151.545V154.011C45.7347 153.417 45.2342 153.002 44.7622 152.766C44.2983 152.521 43.7938 152.399 43.2485 152.399C42.6219 152.399 42.0645 152.574 41.5762 152.924C41.0879 153.266 40.6729 153.754 40.3311 154.389C39.9974 155.024 39.741 155.785 39.562 156.672C39.3911 157.551 39.3057 158.527 39.3057 159.602C39.3057 160.643 39.387 161.608 39.5498 162.495C39.7126 163.374 39.9567 164.139 40.2822 164.79C40.6077 165.432 41.0146 165.937 41.5029 166.303C41.9993 166.669 42.5771 166.853 43.2363 166.853C43.5212 166.853 43.7694 166.832 43.981 166.792C44.2007 166.743 44.4163 166.661 44.6279 166.547C44.6361 166.368 44.6442 166.161 44.6523 165.925C44.6605 165.721 44.6686 165.477 44.6768 165.192C44.6849 164.899 44.689 164.562 44.689 164.179C44.689 163.764 44.6808 163.304 44.6646 162.8C44.6564 162.295 44.6361 161.75 44.6035 161.164H42.3818V159.748ZM58.2876 151.228C58.2388 151.919 58.1981 152.627 58.1655 153.352C58.1411 154.076 58.1208 154.796 58.1045 155.512C58.0882 156.228 58.076 156.932 58.0679 157.624C58.0597 158.316 58.0557 158.975 58.0557 159.602C58.0557 160.228 58.0597 160.887 58.0679 161.579C58.076 162.271 58.0882 162.979 58.1045 163.703C58.1208 164.419 58.1411 165.144 58.1655 165.876C58.1899 166.6 58.2225 167.308 58.2632 168H56.0049C55.5898 166.804 55.1829 165.664 54.7842 164.582C54.3854 163.5 53.9867 162.454 53.5879 161.445C53.1973 160.428 52.8066 159.439 52.416 158.479C52.0254 157.51 51.6348 156.55 51.2441 155.598H51.1587C51.1424 156.306 51.1343 156.997 51.1343 157.673C51.1424 158.34 51.1465 158.983 51.1465 159.602C51.1465 160.228 51.1506 160.887 51.1587 161.579C51.1668 162.271 51.179 162.979 51.1953 163.703C51.2116 164.419 51.2319 165.144 51.2563 165.876C51.2808 166.6 51.3133 167.308 51.354 168H49.1201C49.1689 167.308 49.2056 166.6 49.23 165.876C49.2625 165.144 49.2869 164.419 49.3032 163.703C49.3195 162.979 49.3317 162.271 49.3398 161.579C49.348 160.887 49.3521 160.228 49.3521 159.602C49.3521 158.975 49.348 158.316 49.3398 157.624C49.3317 156.932 49.3195 156.228 49.3032 155.512C49.2869 154.796 49.2625 154.076 49.23 153.352C49.2056 152.627 49.1689 151.919 49.1201 151.228H51.4028C52.2248 153.62 53.0304 155.878 53.8198 158.002C54.6092 160.126 55.3986 162.141 56.188 164.045H56.2734C56.2816 163.687 56.2856 163.312 56.2856 162.922C56.2856 162.531 56.2816 162.145 56.2734 161.762C56.2734 161.372 56.2694 160.993 56.2612 160.627C56.2612 160.261 56.2612 159.919 56.2612 159.602C56.2612 158.975 56.2572 158.316 56.249 157.624C56.2409 156.932 56.2287 156.228 56.2124 155.512C56.1961 154.796 56.1717 154.076 56.1392 153.352C56.1147 152.627 56.0781 151.919 56.0293 151.228H58.2876ZM69.4448 151.228C70.3156 151.228 71.1131 151.362 71.8374 151.63C72.5617 151.899 73.1802 152.359 73.6929 153.01C74.2137 153.653 74.6165 154.511 74.9014 155.585C75.1943 156.66 75.3408 157.998 75.3408 159.602C75.3408 161.213 75.1943 162.56 74.9014 163.642C74.6165 164.716 74.2137 165.579 73.6929 166.23C73.172 166.873 72.5495 167.329 71.8252 167.597C71.1009 167.866 70.2993 168 69.4204 168H65.624C65.6729 167.308 65.7095 166.6 65.7339 165.876C65.7664 165.144 65.7909 164.419 65.8071 163.703C65.8234 162.979 65.8356 162.271 65.8438 161.579C65.8519 160.887 65.856 160.228 65.856 159.602C65.856 158.975 65.8519 158.316 65.8438 157.624C65.8356 156.932 65.8234 156.228 65.8071 155.512C65.7909 154.796 65.7664 154.076 65.7339 153.352C65.7095 152.627 65.6729 151.919 65.624 151.228H69.4448ZM67.8457 152.619C67.7887 153.824 67.748 155.028 67.7236 156.232C67.7074 157.429 67.6992 158.552 67.6992 159.602C67.6992 160.651 67.7074 161.783 67.7236 162.995C67.7399 164.2 67.7765 165.4 67.8335 166.596H69.4692C69.8192 166.596 70.1528 166.56 70.4702 166.486C70.7957 166.405 71.0928 166.267 71.3613 166.071C71.638 165.876 71.8903 165.611 72.1182 165.278C72.346 164.936 72.5373 164.509 72.6919 163.996C72.8547 163.475 72.9767 162.857 73.0581 162.141C73.1476 161.416 73.1924 160.57 73.1924 159.602C73.1924 158.633 73.1476 157.791 73.0581 157.075C72.9767 156.35 72.8547 155.732 72.6919 155.219C72.5373 154.698 72.346 154.271 72.1182 153.938C71.8903 153.604 71.638 153.339 71.3613 153.144C71.0928 152.949 70.7957 152.814 70.4702 152.741C70.1528 152.66 69.8192 152.619 69.4692 152.619H67.8457ZM87.5723 159.626C87.5723 161.132 87.438 162.434 87.1694 163.532C86.9009 164.623 86.5265 165.526 86.0464 166.242C85.5744 166.95 85.0169 167.475 84.374 167.817C83.7311 168.159 83.0394 168.33 82.2988 168.33C81.5501 168.33 80.8543 168.159 80.2114 167.817C79.5685 167.475 79.007 166.95 78.5269 166.242C78.0549 165.526 77.6805 164.623 77.4038 163.532C77.1353 162.434 77.001 161.132 77.001 159.626C77.001 158.129 77.1353 156.835 77.4038 155.744C77.6805 154.646 78.0549 153.738 78.5269 153.022C79.007 152.306 79.5685 151.777 80.2114 151.435C80.8543 151.093 81.5501 150.922 82.2988 150.922C83.0394 150.922 83.7311 151.093 84.374 151.435C85.0169 151.777 85.5744 152.306 86.0464 153.022C86.5265 153.738 86.9009 154.646 87.1694 155.744C87.438 156.835 87.5723 158.129 87.5723 159.626ZM85.4727 159.626C85.4727 158.373 85.3913 157.29 85.2285 156.379C85.0658 155.467 84.842 154.719 84.5571 154.133C84.2723 153.539 83.9346 153.103 83.5439 152.827C83.1615 152.542 82.7464 152.399 82.2988 152.399C81.8431 152.399 81.4199 152.542 81.0293 152.827C80.6468 153.103 80.3091 153.539 80.0161 154.133C79.7313 154.719 79.5075 155.467 79.3447 156.379C79.182 157.29 79.1006 158.373 79.1006 159.626C79.1006 160.887 79.182 161.974 79.3447 162.885C79.5075 163.797 79.7313 164.545 80.0161 165.131C80.3091 165.717 80.6468 166.153 81.0293 166.438C81.4199 166.714 81.8431 166.853 82.2988 166.853C82.7464 166.853 83.1615 166.714 83.5439 166.438C83.9346 166.153 84.2723 165.717 84.5571 165.131C84.842 164.545 85.0658 163.797 85.2285 162.885C85.3913 161.974 85.4727 160.887 85.4727 159.626ZM91.3564 159.626C91.3564 160.798 91.45 161.835 91.6372 162.739C91.8244 163.634 92.0889 164.387 92.4307 164.997C92.7806 165.607 93.1956 166.071 93.6758 166.389C94.1641 166.698 94.7052 166.853 95.2993 166.853C95.6574 166.853 95.9748 166.808 96.2515 166.718C96.5282 166.629 96.7764 166.519 96.9961 166.389C97.224 166.25 97.4355 166.1 97.6309 165.937C97.8262 165.766 98.0174 165.603 98.2046 165.449V167.902C97.7489 168.016 97.2891 168.106 96.8252 168.171C96.3695 168.244 95.8608 168.281 95.2993 168.281C94.4285 168.281 93.6229 168.106 92.8823 167.756C92.1418 167.406 91.4989 166.877 90.9536 166.169C90.4165 165.453 89.9933 164.554 89.6841 163.471C89.383 162.381 89.2324 161.099 89.2324 159.626C89.2324 158.153 89.3911 156.875 89.7085 155.793C90.034 154.702 90.4694 153.803 91.0146 153.095C91.568 152.379 92.2109 151.846 92.9434 151.496C93.6839 151.146 94.4692 150.971 95.2993 150.971C95.8608 150.971 96.3695 151.008 96.8252 151.081C97.2891 151.146 97.7489 151.236 98.2046 151.35V153.803C98.0174 153.649 97.8262 153.49 97.6309 153.327C97.4355 153.156 97.224 153.006 96.9961 152.875C96.7764 152.737 96.5282 152.623 96.2515 152.534C95.9748 152.444 95.6574 152.399 95.2993 152.399C94.7052 152.399 94.1641 152.558 93.6758 152.875C93.1956 153.185 92.7806 153.645 92.4307 154.255C92.0889 154.865 91.8244 155.622 91.6372 156.525C91.45 157.421 91.3564 158.454 91.3564 159.626ZM98.9858 151.228H107.348V152.656H104.235C104.17 153.852 104.129 155.048 104.113 156.245C104.097 157.441 104.088 158.56 104.088 159.602C104.088 160.228 104.092 160.887 104.101 161.579C104.109 162.271 104.121 162.979 104.137 163.703C104.153 164.419 104.174 165.144 104.198 165.876C104.223 166.6 104.255 167.308 104.296 168H102.013C102.062 167.308 102.099 166.6 102.123 165.876C102.156 165.144 102.18 164.419 102.196 163.703C102.213 162.979 102.225 162.271 102.233 161.579C102.241 160.887 102.245 160.228 102.245 159.602C102.245 158.56 102.233 157.441 102.208 156.245C102.192 155.048 102.156 153.852 102.099 152.656H98.9858V151.228ZM118.334 159.626C118.334 161.132 118.2 162.434 117.931 163.532C117.663 164.623 117.288 165.526 116.808 166.242C116.336 166.95 115.779 167.475 115.136 167.817C114.493 168.159 113.801 168.33 113.061 168.33C112.312 168.33 111.616 168.159 110.973 167.817C110.33 167.475 109.769 166.95 109.289 166.242C108.817 165.526 108.442 164.623 108.166 163.532C107.897 162.434 107.763 161.132 107.763 159.626C107.763 158.129 107.897 156.835 108.166 155.744C108.442 154.646 108.817 153.738 109.289 153.022C109.769 152.306 110.33 151.777 110.973 151.435C111.616 151.093 112.312 150.922 113.061 150.922C113.801 150.922 114.493 151.093 115.136 151.435C115.779 151.777 116.336 152.306 116.808 153.022C117.288 153.738 117.663 154.646 117.931 155.744C118.2 156.835 118.334 158.129 118.334 159.626ZM116.234 159.626C116.234 158.373 116.153 157.29 115.99 156.379C115.827 155.467 115.604 154.719 115.319 154.133C115.034 153.539 114.696 153.103 114.306 152.827C113.923 152.542 113.508 152.399 113.061 152.399C112.605 152.399 112.182 152.542 111.791 152.827C111.409 153.103 111.071 153.539 110.778 154.133C110.493 154.719 110.269 155.467 110.106 156.379C109.944 157.29 109.862 158.373 109.862 159.626C109.862 160.887 109.944 161.974 110.106 162.885C110.269 163.797 110.493 164.545 110.778 165.131C111.071 165.717 111.409 166.153 111.791 166.438C112.182 166.714 112.605 166.853 113.061 166.853C113.508 166.853 113.923 166.714 114.306 166.438C114.696 166.153 115.034 165.717 115.319 165.131C115.604 164.545 115.827 163.797 115.99 162.885C116.153 161.974 116.234 160.887 116.234 159.626ZM124.364 151.228C125.74 151.228 126.802 151.63 127.55 152.436C128.307 153.242 128.686 154.462 128.686 156.098C128.686 157.156 128.502 158.031 128.136 158.723C127.77 159.406 127.229 159.931 126.513 160.297C126.692 160.997 126.916 161.758 127.184 162.58C127.42 163.288 127.713 164.106 128.063 165.034C128.421 165.961 128.856 166.95 129.369 168H126.793C126.427 166.787 126.122 165.734 125.878 164.838C125.642 163.935 125.455 163.178 125.316 162.568C125.154 161.86 125.028 161.254 124.938 160.749H122.46C122.46 161.319 122.464 161.909 122.472 162.519C122.488 163.121 122.505 163.732 122.521 164.35C122.537 164.96 122.558 165.575 122.582 166.193C122.606 166.812 122.635 167.414 122.667 168H120.385C120.434 167.308 120.47 166.6 120.495 165.876C120.527 165.144 120.552 164.419 120.568 163.703C120.584 162.979 120.596 162.271 120.604 161.579C120.613 160.887 120.617 160.228 120.617 159.602C120.617 158.975 120.613 158.316 120.604 157.624C120.596 156.932 120.584 156.228 120.568 155.512C120.552 154.796 120.527 154.076 120.495 153.352C120.47 152.627 120.434 151.919 120.385 151.228H124.364ZM122.606 152.595C122.549 153.758 122.509 154.926 122.484 156.098C122.468 157.262 122.46 158.361 122.46 159.394H124.242C124.608 159.394 124.934 159.337 125.219 159.223C125.504 159.109 125.744 158.922 125.939 158.662C126.142 158.401 126.297 158.063 126.403 157.648C126.509 157.225 126.562 156.708 126.562 156.098C126.562 154.861 126.366 153.97 125.976 153.425C125.593 152.871 125.015 152.595 124.242 152.595H122.606Z" fill="#FF9E75"/>
<defs>
<filter id="filter0_d" x="26" y="15" width="80" height="80" filterUnits="userSpaceOnUse" color-interpolation-filters="sRGB">
<feFlood flood-opacity="0" result="BackgroundImageFix"/>
<feColorMatrix in="SourceAlpha" type="matrix" values="0 0 0 0 0 0 0 0 0 0 0 0 0 0 0 0 0 0 127 0"/>
<feOffset dy="4"/>
<feGaussianBlur stdDeviation="2"/>
<feColorMatrix type="matrix" values="0 0 0 0 0 0 0 0 0 0 0 0 0 0 0 0 0 0 0.25 0"/>
<feBlend mode="normal" in2="BackgroundImageFix" result="effect1_dropShadow"/>
<feBlend mode="normal" in="SourceGraphic" in2="effect1_dropShadow" result="shape"/>
</filter>
</defs>
</svg>
