<?xml version="1.0" encoding="utf-8"?>
<!-- Generator: Adobe Illustrator 24.1.2, SVG Export Plug-In . SVG Version: 6.00 Build 0)  -->
<svg version="1.1" id="Layer_1" xmlns="http://www.w3.org/2000/svg" xmlns:xlink="http://www.w3.org/1999/xlink" x="0px" y="0px"
	 viewBox="0 0 131 159" style="enable-background:new 0 0 131 159;" xml:space="preserve">
<style type="text/css">
	.st0{fill:#00718A;}
	.st1{fill:#FF9E75;}
	.st2{fill:#C4C4C4;filter:url(#Adobe_OpacityMaskFilter);stroke:#000000;}
	.st3{mask:url(#mask0_1_);}
	.st4{fill-rule:evenodd;clip-rule:evenodd;fill:#FF9E75;}
	.st5{fill-rule:evenodd;clip-rule:evenodd;fill:#FFFFFF;filter:url(#Adobe_OpacityMaskFilter_1_);}
	.st6{mask:url(#path-7-inside-1_1_);fill:#077A93;}
	.st7{fill-rule:evenodd;clip-rule:evenodd;fill:#FFFFFF;filter:url(#Adobe_OpacityMaskFilter_2_);}
	.st8{mask:url(#path-7-inside-1_2_);fill:url(#SVGID_1_);}
	.st9{fill:#07849F;}
	.st10{fill:url(#SVGID_2_);}
</style>
<path class="st0" d="M10.2,100.3c-0.6,0-1.1-0.1-1.4-0.4c-0.4-0.3-0.5-0.7-0.5-1.2c0-0.6,0.4-1.2,1.2-1.7c0.8-0.5,1.6-0.8,2.4-0.8
	c1.1,0,1.6,0.5,1.6,1.5c0,0.6-0.3,1.2-1,1.8C11.7,100,11,100.3,10.2,100.3z M4.5,122.2c-1.2,0-2.1-0.4-2.7-1.2c-0.6-0.7-1-1.7-1-2.9
	c0-1.2,0.4-3,1.1-5.2c0.7-2.2,1.6-4.1,2.7-5.8c1.1-1.7,2.1-2.5,3.2-2.5c0.3,0,0.5,0.1,0.7,0.3c0.2,0.2,0.3,0.4,0.3,0.8
	c0,0.4-0.5,1.5-1.5,3.2c-1.1,1.8-1.9,3.3-2.5,4.8c-0.6,1.4-0.9,2.7-0.9,3.9c0,1.1,0.2,1.9,0.5,2.3c0.4,0.4,1,0.6,1.8,0.6
	c2.5,0,5-2.4,7.4-7.3l0.4,0.5c-0.9,2.7-2.2,4.8-4,6.3C8.2,121.5,6.4,122.2,4.5,122.2z M28.1,122c-1.1,0-1.9-0.3-2.5-0.9
	c-0.6-0.5-0.9-1.3-0.9-2.2c0-0.4,0.1-0.9,0.2-1.4c0.2-0.6,0.3-1.1,0.5-1.7c0.2-0.6,0.4-1.2,0.5-1.8c0.2-0.6,0.2-1.2,0.2-1.7
	c0-1.6-0.6-2.4-1.9-2.4c-1.2,0-2.5,0.6-3.8,1.9c-1.3,1.3-2.5,2.7-3.6,4.3c-1,1.6-2.2,3.5-3.5,5.7c-0.5,0-1-0.1-1.5-0.3
	c-0.4-0.2-0.8-0.4-1.1-0.8c0-0.2,0.2-0.7,0.6-1.7c0.8-2,1.5-3.9,2-5.6c0.5-1.7,0.8-3.2,0.8-4.5c0.2-0.3,0.5-0.5,1-0.7
	c0.4-0.2,0.8-0.3,1.2-0.3c0.9,0,1.3,0.4,1.3,1.2c0,0.5-0.1,1.3-0.4,2.5c-0.3,1.2-0.7,2.4-1.1,3.8c1.5-2.4,3.2-4.4,4.9-6
	c1.7-1.6,3.4-2.4,5.1-2.4c1.2,0,2.1,0.4,2.6,1.3c0.6,0.8,0.9,1.8,0.9,3c0,0.7-0.1,1.4-0.3,2c-0.2,0.6-0.4,1.4-0.8,2.2
	c-0.3,0.7-0.5,1.3-0.7,1.8c-0.2,0.5-0.2,1-0.2,1.5c0,1.2,0.5,1.8,1.4,1.8c1.1,0,2.2-0.7,3.4-2.2c1.2-1.4,2.3-3.2,3.4-5.3l0.5,0.6
	C34.1,119.3,31.3,122,28.1,122z M39,123.2c-2.8,0-4.3-1.6-4.3-4.8c0-1.4,0.2-3.1,0.7-5.1c0.5-2,1.2-4.2,2.1-6.5
	c-0.8-0.1-1.3-0.3-1.7-0.4v-0.9c1.2,0.1,1.9,0.2,2.1,0.2c1.4-3.6,2.9-6.8,4.5-9.5c1.6-2.7,2.9-4,3.8-4c0.3,0,0.5,0.1,0.7,0.3
	c0.2,0.2,0.3,0.4,0.3,0.8c0,0.4-0.2,1-0.6,1.8c-0.4,0.8-1.1,2-2,3.7c-0.2,0.3-0.7,1.2-1.5,2.7c-0.8,1.4-1.6,2.9-2.3,4.4h1.8
	c2.7,0,4.9-0.1,6.9-0.3v0.9c-3.5,0.4-6.3,0.6-8.4,0.6h-0.7c-1.8,4-2.6,7.5-2.6,10.5c0,1.4,0.2,2.4,0.6,3c0.4,0.6,1.1,0.9,2.1,0.9
	c1.6,0,3.2-0.7,4.8-2.2c1.6-1.5,3-3.5,4.3-6l0.6,0.5c-1.2,2.8-2.8,5.1-4.8,6.9C43.3,122.3,41.2,123.2,39,123.2z M53.8,123.1
	c-1.9,0-3.3-0.5-4.4-1.6c-1-1-1.5-2.4-1.5-4c0-1.9,0.6-3.9,1.9-6.1c1.2-2.2,2.8-4,4.7-5.5c1.9-1.5,3.8-2.3,5.6-2.3c2,0,3,1,3,2.9
	c0,1.6-0.6,3-1.8,4.4c-1.2,1.3-2.7,2.4-4.6,3.3s-3.7,1.4-5.6,1.6c-0.1,0.5-0.2,1.1-0.2,1.7c0,1.2,0.3,2.1,0.9,2.9s1.6,1.2,2.9,1.2
	c2,0,3.9-0.8,5.9-2.4c2-1.6,3.6-3.6,4.8-6l0.6,0.4c-1.3,2.8-3.1,5.1-5.3,6.9C58.5,122.2,56.2,123.1,53.8,123.1z M51.5,115
	c1.3-0.5,2.8-1.2,4.2-2c1.5-0.9,2.7-1.9,3.7-3c1.1-1.2,1.6-2.4,1.6-3.7c0-0.4-0.1-0.7-0.2-0.8c-0.1-0.2-0.4-0.3-0.8-0.3
	c-1,0-2.1,0.5-3.3,1.5c-1.2,1-2.2,2.3-3.2,3.8C52.6,112,51.9,113.5,51.5,115z M72.9,122.2c-1.1,0-2-0.3-2.6-0.9
	c-0.6-0.6-0.9-1.3-0.9-2.3c0-1.1,0.5-2.7,1.4-4.7c0.4-1.1,0.7-1.9,0.9-2.5c0.2-0.6,0.3-1.2,0.3-1.8c0-0.8-0.2-1.4-0.6-1.9
	c-0.4-0.5-0.8-0.9-1.2-1.2c-0.4-0.3-0.8-0.5-0.9-0.6c-0.7,1.8-1.5,3.6-2.3,5.3c-0.8,1.7-1.5,3-2,3.9l-0.4-0.8c1.5-3,2.8-6,3.9-9.1
	c-0.3-0.3-0.5-0.7-0.5-1.2c0-0.6,0.1-1.1,0.3-1.6c0.3-0.5,0.5-0.9,0.9-1.2c0.4-0.3,0.6-0.4,0.8-0.4c0.4,0,0.7,0.4,0.7,1.2
	c0,0.1-0.1,0.4-0.2,0.9c-0.2,0.4-0.3,0.8-0.3,0.9c0,0.3,0.1,0.6,0.4,0.9c0.3,0.3,0.7,0.6,1.3,1c1,0.7,1.8,1.4,2.3,2.1
	c0.6,0.7,0.9,1.6,0.9,2.6c0,0.7-0.1,1.4-0.3,2.1c-0.2,0.7-0.6,1.6-1,2.7c-0.7,1.5-1.1,2.6-1.1,3.3c0,1,0.5,1.4,1.4,1.4
	s2-0.4,3.1-1.2c1.1-0.8,2.1-1.7,3.1-2.8c0.9-1.2,1.6-2.2,2-3.2l0.6,0.5c-1,2.2-2.4,4.2-4.3,5.9S74.8,122.2,72.9,122.2z M90.5,100.3
	c-0.6,0-1.1-0.1-1.4-0.4c-0.4-0.3-0.5-0.7-0.5-1.2c0-0.6,0.4-1.2,1.2-1.7c0.8-0.5,1.6-0.8,2.4-0.8c1.1,0,1.6,0.5,1.6,1.5
	c0,0.6-0.3,1.2-1,1.8C92,100,91.3,100.3,90.5,100.3z M84.8,122.2c-1.2,0-2.1-0.4-2.7-1.2c-0.6-0.7-1-1.7-1-2.9c0-1.2,0.4-3,1.1-5.2
	c0.7-2.2,1.6-4.1,2.7-5.8c1.1-1.7,2.1-2.5,3.2-2.5c0.3,0,0.5,0.1,0.7,0.3c0.2,0.2,0.3,0.4,0.3,0.8c0,0.4-0.5,1.5-1.5,3.2
	c-1.1,1.8-1.9,3.3-2.5,4.8c-0.6,1.4-0.9,2.7-0.9,3.9c0,1.1,0.2,1.9,0.5,2.3c0.4,0.4,1,0.6,1.8,0.6c2.5,0,5-2.4,7.4-7.3l0.4,0.5
	c-0.9,2.7-2.2,4.8-4,6.3C88.5,121.5,86.7,122.2,84.8,122.2z M96.1,122.5c-1.2,0-2.2-0.4-2.8-1.2c-0.7-0.8-1-1.8-1-3
	c0-1.7,0.6-3.7,1.7-6c1.2-2.3,2.7-4.2,4.5-5.8c1.8-1.6,3.6-2.4,5.4-2.4c1.1,0,1.7,0.3,2.1,1c0.1,0,0.2,0,0.3,0
	c0.5,0,0.9,0.2,1.2,0.7c0.3,0.4,0.4,0.8,0.4,1.2c0,0.4-0.2,1-0.7,2c-0.4,0.8-0.7,1.6-0.9,2.2c-0.2,0.6-0.3,1.2-0.3,1.9
	c0,0.9,0.2,1.6,0.7,2c0.4,0.4,1.2,0.6,2.2,0.6c0.8,0,1.7-0.5,2.7-1.5c1-1,1.9-2.3,2.8-3.8c0.9-1.6,1.5-3.1,1.9-4.5
	c-0.3-0.3-0.5-0.7-0.5-1.2c0-0.6,0.1-1.1,0.3-1.6c0.3-0.5,0.5-0.9,0.9-1.2c0.4-0.3,0.6-0.4,0.8-0.4c0.4,0,0.7,0.4,0.7,1.2
	c0,0.1-0.1,0.4-0.2,0.9c-0.2,0.4-0.3,0.8-0.3,0.9c0,0.3,0.1,0.6,0.4,0.9c0.3,0.3,0.7,0.6,1.3,1c1,0.7,1.8,1.4,2.3,2.1
	c0.6,0.7,0.9,1.6,0.9,2.6c0,0.7-0.1,1.4-0.3,2.1c-0.2,0.7-0.6,1.6-1,2.7c-0.7,1.5-1.1,2.6-1.1,3.3c0,1,0.5,1.4,1.4,1.4
	c1,0,2-0.4,3.1-1.2c1.1-0.8,2.1-1.7,3.1-2.8c0.9-1.2,1.6-2.2,2-3.2l0.6,0.5c-1,2.2-2.4,4.2-4.3,5.9c-1.9,1.7-3.8,2.5-5.7,2.5
	c-1.1,0-2-0.3-2.6-0.9c-0.6-0.6-0.9-1.3-0.9-2.3c0-1.1,0.5-2.7,1.4-4.7c0.4-1.1,0.7-1.9,0.9-2.5c0.2-0.6,0.3-1.2,0.3-1.8
	c0-0.8-0.2-1.4-0.6-1.9c-0.4-0.5-0.8-0.9-1.2-1.2c-0.4-0.3-0.8-0.5-0.9-0.6c-0.9,2.6-2.1,5-3.6,7.1c-1.5,2.1-3.1,3.2-4.8,3.2
	c-0.9,0-1.7-0.2-2.4-0.5c-0.7-0.4-1.2-0.9-1.6-1.7c-1.1,2.4-2.3,4.4-3.8,5.8C99.3,121.8,97.8,122.5,96.1,122.5z M97.2,120.5
	c1.1,0,2.3-0.7,3.6-2.1c1.3-1.4,2.4-3.2,3.3-5.3c-0.2-0.8-0.3-1.7-0.3-2.7c0-2,0.3-3.4,0.9-4.4c-1.7,0-3.2,0.7-4.7,2.2
	c-1.4,1.4-2.5,3.1-3.4,5c-0.8,1.9-1.2,3.5-1.2,4.8c0,0.7,0.2,1.3,0.5,1.8C96.2,120.2,96.6,120.5,97.2,120.5z"/>
<path class="st1" d="M6,136.2c0.9,0,1.7,0.1,2.4,0.4c0.7,0.3,1.3,0.7,1.9,1.4c0.5,0.6,0.9,1.5,1.2,2.6c0.3,1.1,0.4,2.4,0.4,4
	c0,1.6-0.1,3-0.4,4c-0.3,1.1-0.7,1.9-1.2,2.6c-0.5,0.6-1.1,1.1-1.9,1.4C7.7,152.9,6.9,153,6,153H2.2c0-0.7,0.1-1.4,0.1-2.1
	c0-0.7,0.1-1.5,0.1-2.2c0-0.7,0-1.4,0-2.1c0-0.7,0-1.4,0-2c0-0.6,0-1.3,0-2c0-0.7,0-1.4,0-2.1c0-0.7,0-1.4-0.1-2.2
	c0-0.7-0.1-1.4-0.1-2.1H6z M4.4,137.6c-0.1,1.2-0.1,2.4-0.1,3.6c0,1.2,0,2.3,0,3.4c0,1,0,2.2,0,3.4c0,1.2,0.1,2.4,0.1,3.6h1.6
	c0.3,0,0.7,0,1-0.1c0.3-0.1,0.6-0.2,0.9-0.4c0.3-0.2,0.5-0.5,0.8-0.8c0.2-0.3,0.4-0.8,0.6-1.3c0.2-0.5,0.3-1.1,0.4-1.9
	c0.1-0.7,0.1-1.6,0.1-2.5c0-1,0-1.8-0.1-2.5c-0.1-0.7-0.2-1.3-0.4-1.9c-0.2-0.5-0.3-0.9-0.6-1.3c-0.2-0.3-0.5-0.6-0.8-0.8
	c-0.3-0.2-0.6-0.3-0.9-0.4c-0.3-0.1-0.7-0.1-1-0.1H4.4z M21.1,136.2v1.4h-4.9c0,0.9-0.1,1.9-0.1,2.8c0,0.9,0,1.8,0,2.7h4.7v1.4h-4.7
	c0,1,0,2.2,0,3.4c0,1.2,0.1,2.4,0.1,3.6h4.9v1.4H14c0-0.7,0.1-1.4,0.1-2.1c0-0.7,0.1-1.5,0.1-2.2c0-0.7,0-1.4,0-2.1c0-0.7,0-1.4,0-2
	c0-0.6,0-1.3,0-2c0-0.7,0-1.4,0-2.1c0-0.7,0-1.4-0.1-2.2c0-0.7-0.1-1.4-0.1-2.1H21.1z M26.1,151.9c0.3,0,0.6,0,1-0.1
	c0.3-0.1,0.6-0.3,0.8-0.5c0.2-0.2,0.4-0.5,0.6-0.9c0.1-0.4,0.2-0.8,0.2-1.3c0-0.4-0.1-0.8-0.3-1.2c-0.2-0.4-0.4-0.7-0.7-1.1
	c-0.3-0.3-0.6-0.7-1-1c-0.4-0.3-0.7-0.7-1.1-1c-0.4-0.3-0.8-0.7-1.1-1c-0.4-0.4-0.7-0.7-1-1.1c-0.3-0.4-0.5-0.8-0.7-1.3
	c-0.2-0.4-0.3-0.9-0.3-1.5c0-0.8,0.1-1.4,0.4-2c0.3-0.5,0.6-1,1.1-1.3c0.4-0.3,0.9-0.6,1.5-0.7c0.5-0.1,1.1-0.2,1.6-0.2
	c0.5,0,1,0,1.5,0.1c0.5,0.1,1,0.2,1.4,0.3v2.4c-0.3-0.2-0.5-0.4-0.7-0.6c-0.2-0.2-0.5-0.3-0.7-0.5c-0.2-0.1-0.5-0.2-0.7-0.3
	c-0.2-0.1-0.5-0.1-0.8-0.1c-0.3,0-0.7,0-1,0.1c-0.3,0.1-0.6,0.2-0.8,0.4c-0.2,0.2-0.4,0.4-0.5,0.7c-0.1,0.3-0.2,0.7-0.2,1.1
	c0,0.6,0.2,1.1,0.5,1.6c0.3,0.5,0.7,0.9,1.1,1.4c0.5,0.4,0.9,0.9,1.5,1.3c0.5,0.4,1,0.9,1.5,1.4c0.5,0.5,0.8,1,1.1,1.6
	c0.3,0.6,0.5,1.3,0.5,2c0,0.6-0.1,1.1-0.2,1.5c-0.1,0.4-0.3,0.8-0.5,1.1c-0.2,0.3-0.5,0.6-0.8,0.8c-0.3,0.2-0.6,0.4-0.9,0.5
	c-0.3,0.1-0.7,0.2-1,0.3c-0.4,0.1-0.7,0.1-1,0.1c-0.4,0-0.8,0-1.1,0c-0.3,0-0.6-0.1-0.9-0.1c-0.3,0-0.6-0.1-0.8-0.2
	c-0.2-0.1-0.5-0.2-0.7-0.2v-2.5c0.3,0.2,0.5,0.5,0.8,0.7c0.3,0.2,0.5,0.4,0.8,0.5c0.3,0.2,0.6,0.3,0.9,0.4
	C25.5,151.9,25.8,151.9,26.1,151.9z M35,136.2c0,0.7-0.1,1.4-0.1,2.1c0,0.7,0,1.4-0.1,2.2c0,0.7,0,1.4,0,2.1c0,0.7,0,1.4,0,2
	c0,0.6,0,1.3,0,2c0,0.7,0,1.4,0,2.1c0,0.7,0,1.4,0.1,2.2c0,0.7,0.1,1.4,0.1,2.1h-2.3c0-0.7,0.1-1.4,0.1-2.1c0-0.7,0.1-1.5,0.1-2.2
	c0-0.7,0-1.4,0-2.1s0-1.4,0-2c0-0.6,0-1.3,0-2c0-0.7,0-1.4,0-2.1c0-0.7,0-1.4-0.1-2.2c0-0.7-0.1-1.4-0.1-2.1H35z M42.4,144.7h4.4
	c0,0.7-0.1,1.3-0.1,2c0,0.6,0,1.3,0,1.8c0,0.6,0,1.1,0,1.6c0,0.5,0,0.9,0,1.2c0,0.4,0,0.8,0,1.1c-0.4,0.2-0.9,0.4-1.5,0.5
	c-0.6,0.1-1.3,0.2-2.2,0.2c-0.8,0-1.6-0.2-2.4-0.5c-0.7-0.3-1.4-0.9-1.9-1.6c-0.5-0.7-1-1.6-1.3-2.7c-0.3-1.1-0.5-2.4-0.5-3.8
	c0-1.5,0.2-2.8,0.5-3.8c0.3-1.1,0.8-2,1.3-2.7c0.6-0.7,1.2-1.2,1.9-1.6c0.7-0.4,1.5-0.5,2.4-0.5c0.3,0,0.7,0,0.9,0
	c0.3,0,0.5,0.1,0.8,0.1c0.2,0,0.5,0.1,0.7,0.2c0.2,0.1,0.4,0.2,0.6,0.2v2.5c-0.5-0.6-1-1-1.5-1.2c-0.5-0.2-1-0.4-1.5-0.4
	c-0.6,0-1.2,0.2-1.7,0.5c-0.5,0.3-0.9,0.8-1.2,1.5c-0.3,0.6-0.6,1.4-0.8,2.3c-0.2,0.9-0.3,1.9-0.3,2.9c0,1,0.1,2,0.2,2.9
	c0.2,0.9,0.4,1.6,0.7,2.3c0.3,0.6,0.7,1.1,1.2,1.5c0.5,0.4,1.1,0.6,1.7,0.6c0.3,0,0.5,0,0.7-0.1c0.2,0,0.4-0.1,0.6-0.2
	c0-0.2,0-0.4,0-0.6c0-0.2,0-0.4,0-0.7c0-0.3,0-0.6,0-1c0-0.4,0-0.9,0-1.4c0-0.5,0-1.1-0.1-1.6h-2.2V144.7z M58.3,136.2
	c0,0.7-0.1,1.4-0.1,2.1c0,0.7,0,1.4-0.1,2.2c0,0.7,0,1.4,0,2.1c0,0.7,0,1.4,0,2c0,0.6,0,1.3,0,2c0,0.7,0,1.4,0,2.1
	c0,0.7,0,1.4,0.1,2.2c0,0.7,0.1,1.4,0.1,2.1H56c-0.4-1.2-0.8-2.3-1.2-3.4c-0.4-1.1-0.8-2.1-1.2-3.1c-0.4-1-0.8-2-1.2-3
	c-0.4-1-0.8-1.9-1.2-2.9h-0.1c0,0.7,0,1.4,0,2.1c0,0.7,0,1.3,0,1.9c0,0.6,0,1.3,0,2c0,0.7,0,1.4,0,2.1c0,0.7,0,1.4,0.1,2.2
	c0,0.7,0.1,1.4,0.1,2.1h-2.2c0-0.7,0.1-1.4,0.1-2.1c0-0.7,0.1-1.5,0.1-2.2c0-0.7,0-1.4,0-2.1c0-0.7,0-1.4,0-2c0-0.6,0-1.3,0-2
	c0-0.7,0-1.4,0-2.1c0-0.7,0-1.4-0.1-2.2c0-0.7-0.1-1.4-0.1-2.1h2.3c0.8,2.4,1.6,4.7,2.4,6.8c0.8,2.1,1.6,4.1,2.4,6h0.1
	c0-0.4,0-0.7,0-1.1c0-0.4,0-0.8,0-1.2c0-0.4,0-0.8,0-1.1c0-0.4,0-0.7,0-1c0-0.6,0-1.3,0-2c0-0.7,0-1.4,0-2.1c0-0.7,0-1.4-0.1-2.2
	c0-0.7-0.1-1.4-0.1-2.1H58.3z M69.4,136.2c0.9,0,1.7,0.1,2.4,0.4c0.7,0.3,1.3,0.7,1.9,1.4c0.5,0.6,0.9,1.5,1.2,2.6
	c0.3,1.1,0.4,2.4,0.4,4c0,1.6-0.1,3-0.4,4c-0.3,1.1-0.7,1.9-1.2,2.6c-0.5,0.6-1.1,1.1-1.9,1.4c-0.7,0.3-1.5,0.4-2.4,0.4h-3.8
	c0-0.7,0.1-1.4,0.1-2.1c0-0.7,0.1-1.5,0.1-2.2c0-0.7,0-1.4,0-2.1c0-0.7,0-1.4,0-2c0-0.6,0-1.3,0-2c0-0.7,0-1.4,0-2.1
	c0-0.7,0-1.4-0.1-2.2c0-0.7-0.1-1.4-0.1-2.1H69.4z M67.8,137.6c-0.1,1.2-0.1,2.4-0.1,3.6c0,1.2,0,2.3,0,3.4c0,1,0,2.2,0,3.4
	c0,1.2,0.1,2.4,0.1,3.6h1.6c0.3,0,0.7,0,1-0.1c0.3-0.1,0.6-0.2,0.9-0.4c0.3-0.2,0.5-0.5,0.8-0.8c0.2-0.3,0.4-0.8,0.6-1.3
	c0.2-0.5,0.3-1.1,0.4-1.9c0.1-0.7,0.1-1.6,0.1-2.5c0-1,0-1.8-0.1-2.5c-0.1-0.7-0.2-1.3-0.4-1.9c-0.2-0.5-0.3-0.9-0.6-1.3
	c-0.2-0.3-0.5-0.6-0.8-0.8c-0.3-0.2-0.6-0.3-0.9-0.4c-0.3-0.1-0.7-0.1-1-0.1H67.8z M87.6,144.6c0,1.5-0.1,2.8-0.4,3.9
	c-0.3,1.1-0.6,2-1.1,2.7c-0.5,0.7-1,1.2-1.7,1.6s-1.3,0.5-2.1,0.5c-0.7,0-1.4-0.2-2.1-0.5c-0.6-0.3-1.2-0.9-1.7-1.6
	c-0.5-0.7-0.8-1.6-1.1-2.7c-0.3-1.1-0.4-2.4-0.4-3.9c0-1.5,0.1-2.8,0.4-3.9c0.3-1.1,0.7-2,1.1-2.7c0.5-0.7,1-1.2,1.7-1.6
	c0.6-0.3,1.3-0.5,2.1-0.5c0.7,0,1.4,0.2,2.1,0.5s1.2,0.9,1.7,1.6c0.5,0.7,0.9,1.6,1.1,2.7C87.4,141.8,87.6,143.1,87.6,144.6z
	 M85.5,144.6c0-1.3-0.1-2.3-0.2-3.2c-0.2-0.9-0.4-1.7-0.7-2.2c-0.3-0.6-0.6-1-1-1.3c-0.4-0.3-0.8-0.4-1.2-0.4
	c-0.5,0-0.9,0.1-1.3,0.4c-0.4,0.3-0.7,0.7-1,1.3c-0.3,0.6-0.5,1.3-0.7,2.2c-0.2,0.9-0.2,2-0.2,3.2c0,1.3,0.1,2.3,0.2,3.3
	c0.2,0.9,0.4,1.7,0.7,2.2c0.3,0.6,0.6,1,1,1.3c0.4,0.3,0.8,0.4,1.3,0.4c0.4,0,0.9-0.1,1.2-0.4c0.4-0.3,0.7-0.7,1-1.3
	c0.3-0.6,0.5-1.3,0.7-2.2C85.4,147,85.5,145.9,85.5,144.6z M91.4,144.6c0,1.2,0.1,2.2,0.3,3.1c0.2,0.9,0.5,1.6,0.8,2.3
	c0.3,0.6,0.8,1.1,1.2,1.4c0.5,0.3,1,0.5,1.6,0.5c0.4,0,0.7,0,1-0.1c0.3-0.1,0.5-0.2,0.7-0.3c0.2-0.1,0.4-0.3,0.6-0.5
	c0.2-0.2,0.4-0.3,0.6-0.5v2.5c-0.5,0.1-0.9,0.2-1.4,0.3c-0.5,0.1-1,0.1-1.5,0.1c-0.9,0-1.7-0.2-2.4-0.5c-0.7-0.3-1.4-0.9-1.9-1.6
	c-0.5-0.7-1-1.6-1.3-2.7c-0.3-1.1-0.5-2.4-0.5-3.8c0-1.5,0.2-2.8,0.5-3.8c0.3-1.1,0.8-2,1.3-2.7c0.6-0.7,1.2-1.2,1.9-1.6
	c0.7-0.4,1.5-0.5,2.4-0.5c0.6,0,1.1,0,1.5,0.1c0.5,0.1,0.9,0.2,1.4,0.3v2.5c-0.2-0.2-0.4-0.3-0.6-0.5c-0.2-0.2-0.4-0.3-0.6-0.5
	c-0.2-0.1-0.5-0.3-0.7-0.3c-0.3-0.1-0.6-0.1-1-0.1c-0.6,0-1.1,0.2-1.6,0.5c-0.5,0.3-0.9,0.8-1.2,1.4c-0.3,0.6-0.6,1.4-0.8,2.3
	C91.4,142.4,91.4,143.5,91.4,144.6z M99,136.2h8.4v1.4h-3.1c-0.1,1.2-0.1,2.4-0.1,3.6c0,1.2,0,2.3,0,3.4c0,0.6,0,1.3,0,2
	c0,0.7,0,1.4,0,2.1c0,0.7,0,1.4,0.1,2.2c0,0.7,0.1,1.4,0.1,2.1H102c0-0.7,0.1-1.4,0.1-2.1c0-0.7,0.1-1.5,0.1-2.2c0-0.7,0-1.4,0-2.1
	c0-0.7,0-1.4,0-2c0-1,0-2.2,0-3.4c0-1.2-0.1-2.4-0.1-3.6H99V136.2z M118.3,144.6c0,1.5-0.1,2.8-0.4,3.9c-0.3,1.1-0.6,2-1.1,2.7
	c-0.5,0.7-1,1.2-1.7,1.6c-0.6,0.3-1.3,0.5-2.1,0.5c-0.7,0-1.4-0.2-2.1-0.5s-1.2-0.9-1.7-1.6c-0.5-0.7-0.8-1.6-1.1-2.7
	c-0.3-1.1-0.4-2.4-0.4-3.9c0-1.5,0.1-2.8,0.4-3.9c0.3-1.1,0.7-2,1.1-2.7c0.5-0.7,1-1.2,1.7-1.6s1.3-0.5,2.1-0.5
	c0.7,0,1.4,0.2,2.1,0.5c0.6,0.3,1.2,0.9,1.7,1.6c0.5,0.7,0.9,1.6,1.1,2.7C118.2,141.8,118.3,143.1,118.3,144.6z M116.2,144.6
	c0-1.3-0.1-2.3-0.2-3.2c-0.2-0.9-0.4-1.7-0.7-2.2c-0.3-0.6-0.6-1-1-1.3c-0.4-0.3-0.8-0.4-1.2-0.4c-0.5,0-0.9,0.1-1.3,0.4
	c-0.4,0.3-0.7,0.7-1,1.3c-0.3,0.6-0.5,1.3-0.7,2.2c-0.2,0.9-0.2,2-0.2,3.2c0,1.3,0.1,2.3,0.2,3.3c0.2,0.9,0.4,1.7,0.7,2.2
	c0.3,0.6,0.6,1,1,1.3c0.4,0.3,0.8,0.4,1.3,0.4c0.4,0,0.9-0.1,1.2-0.4c0.4-0.3,0.7-0.7,1-1.3c0.3-0.6,0.5-1.3,0.7-2.2
	C116.2,147,116.2,145.9,116.2,144.6z M124.4,136.2c1.4,0,2.4,0.4,3.2,1.2c0.8,0.8,1.1,2,1.1,3.7c0,1.1-0.2,1.9-0.6,2.6
	c-0.4,0.7-0.9,1.2-1.6,1.6c0.2,0.7,0.4,1.5,0.7,2.3c0.2,0.7,0.5,1.5,0.9,2.5c0.4,0.9,0.8,1.9,1.3,3h-2.6c-0.4-1.2-0.7-2.3-0.9-3.2
	c-0.2-0.9-0.4-1.7-0.6-2.3c-0.2-0.7-0.3-1.3-0.4-1.8h-2.5c0,0.6,0,1.2,0,1.8c0,0.6,0,1.2,0,1.8c0,0.6,0,1.2,0.1,1.8
	c0,0.6,0.1,1.2,0.1,1.8h-2.3c0-0.7,0.1-1.4,0.1-2.1c0-0.7,0.1-1.5,0.1-2.2c0-0.7,0-1.4,0-2.1c0-0.7,0-1.4,0-2c0-0.6,0-1.3,0-2
	c0-0.7,0-1.4,0-2.1c0-0.7,0-1.4-0.1-2.2c0-0.7-0.1-1.4-0.1-2.1H124.4z M122.6,137.6c-0.1,1.2-0.1,2.3-0.1,3.5c0,1.2,0,2.3,0,3.3h1.8
	c0.4,0,0.7-0.1,1-0.2c0.3-0.1,0.5-0.3,0.7-0.6c0.2-0.3,0.4-0.6,0.5-1c0.1-0.4,0.2-0.9,0.2-1.5c0-1.2-0.2-2.1-0.6-2.7
	c-0.4-0.6-1-0.8-1.7-0.8H122.6z"/>
<defs>
	<filter id="Adobe_OpacityMaskFilter" filterUnits="userSpaceOnUse" x="20.6" y="-9.4" width="98" height="114.2">
		<feColorMatrix  type="matrix" values="1 0 0 0 0  0 1 0 0 0  0 0 1 0 0  0 0 0 1 0"/>
	</filter>
</defs>
<mask maskUnits="userSpaceOnUse" x="20.6" y="-9.4" width="98" height="114.2" id="mask0_1_">
	<circle class="st2" cx="65.5" cy="44.5" r="38"/>
</mask>
<g class="st3">
	<rect x="56.3" y="2.1" class="st0" width="62.4" height="95.5"/>
	<g>
		<path class="st4" d="M60.9,71.8c1.5,0.3,3,0.4,4.6,0.4c15.3,0,27.7-12.4,27.7-27.7S80.8,16.8,65.5,16.8c-1.6,0-3.1,0.1-4.6,0.4
			V71.8z"/>
		<defs>
			<filter id="Adobe_OpacityMaskFilter_1_" filterUnits="userSpaceOnUse" x="59.9" y="15.8" width="34.3" height="57.4">
				<feColorMatrix  type="matrix" values="1 0 0 0 0  0 1 0 0 0  0 0 1 0 0  0 0 0 1 0"/>
			</filter>
		</defs>
		<mask maskUnits="userSpaceOnUse" x="59.9" y="15.8" width="34.3" height="57.4" id="path-7-inside-1_1_">
			<path class="st5" d="M60.9,71.8c1.5,0.3,3,0.4,4.6,0.4c15.3,0,27.7-12.4,27.7-27.7S80.8,16.8,65.5,16.8c-1.6,0-3.1,0.1-4.6,0.4
				V71.8z"/>
		</mask>
		<path class="st6" d="M60.9,71.8h-1v0.8l0.8,0.1L60.9,71.8z M60.9,17.2l-0.2-1l-0.8,0.1v0.8H60.9z M65.5,71.2c-1.5,0-3-0.1-4.5-0.4
			l-0.3,2c1.6,0.3,3.2,0.4,4.8,0.4V71.2z M92.2,44.5c0,14.8-12,26.7-26.7,26.7v2c15.9,0,28.7-12.9,28.7-28.7H92.2z M65.5,17.8
			c14.8,0,26.7,12,26.7,26.7h2c0-15.9-12.9-28.7-28.7-28.7V17.8z M61,18.1c1.4-0.2,2.9-0.4,4.5-0.4v-2c-1.6,0-3.2,0.1-4.8,0.4
			L61,18.1z M59.9,17.2v54.7h2V17.2H59.9z"/>
		<defs>
			<filter id="Adobe_OpacityMaskFilter_2_" filterUnits="userSpaceOnUse" x="59.9" y="15.8" width="34.3" height="57.4">
				<feColorMatrix  type="matrix" values="1 0 0 0 0  0 1 0 0 0  0 0 1 0 0  0 0 0 1 0"/>
			</filter>
		</defs>
		<mask maskUnits="userSpaceOnUse" x="59.9" y="15.8" width="34.3" height="57.4" id="path-7-inside-1_2_">
			<path class="st7" d="M60.9,71.8c1.5,0.3,3,0.4,4.6,0.4c15.3,0,27.7-12.4,27.7-27.7S80.8,16.8,65.5,16.8c-1.6,0-3.1,0.1-4.6,0.4
				V71.8z"/>
		</mask>
		
			<linearGradient id="SVGID_1_" gradientUnits="userSpaceOnUse" x1="77.05" y1="143.22" x2="77.05" y2="87.78" gradientTransform="matrix(1 0 0 -1 0 160)">
			<stop  offset="0" style="stop-color:#FFFFFF"/>
			<stop  offset="1" style="stop-color:#FFFFFF;stop-opacity:0"/>
		</linearGradient>
		<path class="st8" d="M60.9,71.8h-1v0.8l0.8,0.1L60.9,71.8z M60.9,17.2l-0.2-1l-0.8,0.1v0.8H60.9z M65.5,71.2c-1.5,0-3-0.1-4.5-0.4
			l-0.3,2c1.6,0.3,3.2,0.4,4.8,0.4V71.2z M92.2,44.5c0,14.8-12,26.7-26.7,26.7v2c15.9,0,28.7-12.9,28.7-28.7H92.2z M65.5,17.8
			c14.8,0,26.7,12,26.7,26.7h2c0-15.9-12.9-28.7-28.7-28.7V17.8z M61,18.1c1.4-0.2,2.9-0.4,4.5-0.4v-2c-1.6,0-3.2,0.1-4.8,0.4
			L61,18.1z M59.9,17.2v54.7h2V17.2H59.9z"/>
	</g>
	<rect x="20.6" y="-9.4" class="st9" width="35.9" height="114.2"/>
	
		<linearGradient id="SVGID_2_" gradientUnits="userSpaceOnUse" x1="38.5499" y1="169.4" x2="38.5499" y2="55.183" gradientTransform="matrix(1 0 0 -1 0 160)">
		<stop  offset="0" style="stop-color:#FFFFFF"/>
		<stop  offset="1" style="stop-color:#FFFFFF;stop-opacity:0"/>
	</linearGradient>
	<rect x="20.6" y="-9.4" class="st10" width="35.9" height="114.2"/>
	<rect x="46.3" y="6" class="st1" width="3.8" height="83.9"/>
</g>
</svg>
