<?xml version="1.0" encoding="utf-8"?>
<!-- Generator: Adobe Illustrator 24.1.2, SVG Export Plug-In . SVG Version: 6.00 Build 0)  -->
<svg version="1.1" id="Layer_1" xmlns="http://www.w3.org/2000/svg" xmlns:xlink="http://www.w3.org/1999/xlink" x="0px" y="0px"
	 viewBox="0 0 175 175" style="enable-background:new 0 0 175 175;" xml:space="preserve">
<style type="text/css">
	.st0{fill:#00718A;}
	.st1{fill:#FF9E75;}
	.st2{fill:#C4C4C4;filter:url(#Adobe_OpacityMaskFilter);stroke:#000000;}
	.st3{mask:url(#mask0_1_);}
	.st4{fill-rule:evenodd;clip-rule:evenodd;fill:#FF9E75;}
	.st5{fill-rule:evenodd;clip-rule:evenodd;fill:#FFFFFF;filter:url(#Adobe_OpacityMaskFilter_1_);}
	.st6{mask:url(#path-7-inside-1_1_);fill:#077A93;}
	.st7{fill-rule:evenodd;clip-rule:evenodd;fill:#FFFFFF;filter:url(#Adobe_OpacityMaskFilter_2_);}
	.st8{mask:url(#path-7-inside-1_2_);fill:url(#SVGID_1_);}
	.st9{fill:#07849F;}
	.st10{fill:url(#SVGID_2_);}
</style>
<path class="st0" d="M32.2,108.3c-0.6,0-1.1-0.1-1.4-0.4c-0.4-0.3-0.5-0.7-0.5-1.2c0-0.6,0.4-1.2,1.2-1.7c0.8-0.5,1.6-0.8,2.4-0.8
	c1.1,0,1.6,0.5,1.6,1.5c0,0.6-0.3,1.2-1,1.8C33.7,108,33,108.3,32.2,108.3z M26.5,130.2c-1.2,0-2.1-0.4-2.7-1.2
	c-0.6-0.7-1-1.7-1-2.9c0-1.2,0.4-3,1.1-5.2c0.7-2.2,1.6-4.1,2.7-5.8c1.1-1.7,2.1-2.5,3.2-2.5c0.3,0,0.5,0.1,0.7,0.3
	c0.2,0.2,0.3,0.4,0.3,0.8c0,0.4-0.5,1.5-1.5,3.2c-1.1,1.8-1.9,3.3-2.5,4.8c-0.6,1.4-0.9,2.7-0.9,3.9c0,1.1,0.2,1.9,0.5,2.3
	c0.4,0.4,1,0.6,1.8,0.6c2.5,0,5-2.4,7.4-7.3l0.4,0.5c-0.9,2.7-2.2,4.8-4,6.3C30.2,129.5,28.4,130.2,26.5,130.2z M50.1,130
	c-1.1,0-1.9-0.3-2.5-0.9c-0.6-0.5-0.9-1.3-0.9-2.2c0-0.4,0.1-0.9,0.2-1.4c0.2-0.6,0.3-1.1,0.5-1.7c0.2-0.6,0.4-1.2,0.5-1.8
	c0.2-0.6,0.2-1.2,0.2-1.7c0-1.6-0.6-2.4-1.9-2.4c-1.2,0-2.5,0.6-3.8,1.9c-1.3,1.3-2.5,2.7-3.6,4.3c-1,1.6-2.2,3.5-3.5,5.7
	c-0.5,0-1-0.1-1.5-0.3c-0.4-0.2-0.8-0.4-1.1-0.8c0-0.2,0.2-0.7,0.6-1.7c0.8-2,1.5-3.9,2-5.6c0.5-1.7,0.8-3.2,0.8-4.5
	c0.2-0.3,0.5-0.5,1-0.7c0.4-0.2,0.8-0.3,1.2-0.3c0.9,0,1.3,0.4,1.3,1.2c0,0.5-0.1,1.3-0.4,2.5c-0.3,1.2-0.7,2.4-1.1,3.8
	c1.5-2.4,3.2-4.4,4.9-6c1.7-1.6,3.4-2.4,5.1-2.4c1.2,0,2.1,0.4,2.6,1.3c0.6,0.8,0.9,1.8,0.9,3c0,0.7-0.1,1.4-0.3,2
	c-0.2,0.6-0.4,1.4-0.8,2.2c-0.3,0.7-0.5,1.3-0.7,1.8c-0.2,0.5-0.2,1-0.2,1.5c0,1.2,0.5,1.8,1.4,1.8c1.1,0,2.2-0.7,3.4-2.2
	c1.2-1.4,2.3-3.2,3.4-5.3l0.5,0.6C56.1,127.3,53.3,130,50.1,130z M61,131.2c-2.8,0-4.3-1.6-4.3-4.8c0-1.4,0.2-3.1,0.7-5.1
	c0.5-2,1.2-4.2,2.1-6.5c-0.8-0.1-1.3-0.3-1.7-0.4v-0.9c1.2,0.1,1.9,0.2,2.1,0.2c1.4-3.6,2.9-6.8,4.5-9.5c1.6-2.7,2.9-4,3.8-4
	c0.3,0,0.5,0.1,0.7,0.3c0.2,0.2,0.3,0.4,0.3,0.8c0,0.4-0.2,1-0.6,1.8c-0.4,0.8-1.1,2-2,3.7c-0.2,0.3-0.7,1.2-1.5,2.7
	c-0.8,1.4-1.6,2.9-2.3,4.4h1.8c2.7,0,4.9-0.1,6.9-0.3v0.9c-3.5,0.4-6.3,0.6-8.4,0.6h-0.7c-1.8,4-2.6,7.5-2.6,10.5
	c0,1.4,0.2,2.4,0.6,3c0.4,0.6,1.1,0.9,2.1,0.9c1.6,0,3.2-0.7,4.8-2.2c1.6-1.5,3-3.5,4.3-6l0.6,0.5c-1.2,2.8-2.8,5.1-4.8,6.9
	C65.3,130.3,63.2,131.2,61,131.2z M75.8,131.1c-1.9,0-3.3-0.5-4.4-1.6c-1-1-1.5-2.4-1.5-4c0-1.9,0.6-3.9,1.9-6.1
	c1.2-2.2,2.8-4,4.7-5.5c1.9-1.5,3.8-2.3,5.6-2.3c2,0,3,1,3,2.9c0,1.6-0.6,3-1.8,4.4c-1.2,1.3-2.7,2.4-4.6,3.3
	c-1.9,0.9-3.7,1.4-5.6,1.6c-0.1,0.5-0.2,1.1-0.2,1.7c0,1.2,0.3,2.1,0.9,2.9c0.6,0.8,1.6,1.2,2.9,1.2c2,0,3.9-0.8,5.9-2.4
	c2-1.6,3.6-3.6,4.8-6l0.6,0.4c-1.3,2.8-3.1,5.1-5.3,6.9C80.5,130.2,78.2,131.1,75.8,131.1z M73.5,123c1.3-0.5,2.8-1.2,4.2-2
	c1.5-0.9,2.7-1.9,3.7-3c1.1-1.2,1.6-2.4,1.6-3.7c0-0.4-0.1-0.7-0.2-0.8c-0.1-0.2-0.4-0.3-0.8-0.3c-1,0-2.1,0.5-3.3,1.5
	c-1.2,1-2.2,2.3-3.2,3.8C74.6,120,73.9,121.5,73.5,123z M94.9,130.2c-1.1,0-2-0.3-2.6-0.9c-0.6-0.6-0.9-1.3-0.9-2.3
	c0-1.1,0.5-2.7,1.4-4.7c0.4-1.1,0.7-1.9,0.9-2.5c0.2-0.6,0.3-1.2,0.3-1.8c0-0.8-0.2-1.4-0.6-1.9c-0.4-0.5-0.8-0.9-1.2-1.2
	c-0.4-0.3-0.8-0.5-0.9-0.6c-0.7,1.8-1.5,3.6-2.3,5.3c-0.8,1.7-1.5,3-2,3.9l-0.4-0.8c1.5-3,2.8-6,3.9-9.1c-0.3-0.3-0.5-0.7-0.5-1.2
	c0-0.6,0.1-1.1,0.3-1.6c0.3-0.5,0.5-0.9,0.9-1.2c0.4-0.3,0.6-0.4,0.8-0.4c0.4,0,0.7,0.4,0.7,1.2c0,0.1-0.1,0.4-0.2,0.9
	c-0.2,0.4-0.3,0.8-0.3,0.9c0,0.3,0.1,0.6,0.4,0.9c0.3,0.3,0.7,0.6,1.3,1c1,0.7,1.8,1.4,2.3,2.1c0.6,0.7,0.9,1.6,0.9,2.6
	c0,0.7-0.1,1.4-0.3,2.1c-0.2,0.7-0.6,1.6-1,2.7c-0.7,1.5-1.1,2.6-1.1,3.3c0,1,0.5,1.4,1.4,1.4s2-0.4,3.1-1.2
	c1.1-0.8,2.1-1.7,3.1-2.8c0.9-1.2,1.6-2.2,2-3.2l0.6,0.5c-1,2.2-2.4,4.2-4.3,5.9C98.7,129.4,96.8,130.2,94.9,130.2z M112.5,108.3
	c-0.6,0-1.1-0.1-1.4-0.4c-0.4-0.3-0.5-0.7-0.5-1.2c0-0.6,0.4-1.2,1.2-1.7c0.8-0.5,1.6-0.8,2.4-0.8c1.1,0,1.6,0.5,1.6,1.5
	c0,0.6-0.3,1.2-1,1.8C114,108,113.3,108.3,112.5,108.3z M106.8,130.2c-1.2,0-2.1-0.4-2.7-1.2c-0.6-0.7-1-1.7-1-2.9
	c0-1.2,0.4-3,1.1-5.2c0.7-2.2,1.6-4.1,2.7-5.8c1.1-1.7,2.1-2.5,3.2-2.5c0.3,0,0.5,0.1,0.7,0.3c0.2,0.2,0.3,0.4,0.3,0.8
	c0,0.4-0.5,1.5-1.5,3.2c-1.1,1.8-1.9,3.3-2.5,4.8c-0.6,1.4-0.9,2.7-0.9,3.9c0,1.1,0.2,1.9,0.5,2.3c0.4,0.4,1,0.6,1.8,0.6
	c2.5,0,5-2.4,7.4-7.3l0.4,0.5c-0.9,2.7-2.2,4.8-4,6.3C110.5,129.5,108.7,130.2,106.8,130.2z M118.1,130.5c-1.2,0-2.2-0.4-2.8-1.2
	s-1-1.8-1-3c0-1.7,0.6-3.7,1.7-6c1.2-2.3,2.7-4.2,4.5-5.8c1.8-1.6,3.6-2.4,5.4-2.4c1.1,0,1.7,0.3,2.1,1c0.1,0,0.2,0,0.3,0
	c0.5,0,0.9,0.2,1.2,0.7c0.3,0.4,0.4,0.8,0.4,1.2c0,0.4-0.2,1-0.7,2c-0.4,0.8-0.7,1.6-0.9,2.2c-0.2,0.6-0.3,1.2-0.3,1.9
	c0,0.9,0.2,1.6,0.7,2c0.4,0.4,1.2,0.6,2.2,0.6c0.8,0,1.7-0.5,2.7-1.5c1-1,1.9-2.3,2.8-3.8c0.9-1.6,1.5-3.1,1.9-4.5
	c-0.3-0.3-0.5-0.7-0.5-1.2c0-0.6,0.1-1.1,0.3-1.6c0.3-0.5,0.5-0.9,0.9-1.2c0.4-0.3,0.6-0.4,0.8-0.4c0.4,0,0.7,0.4,0.7,1.2
	c0,0.1-0.1,0.4-0.2,0.9c-0.2,0.4-0.3,0.8-0.3,0.9c0,0.3,0.1,0.6,0.4,0.9c0.3,0.3,0.7,0.6,1.3,1c1,0.7,1.8,1.4,2.3,2.1
	c0.6,0.7,0.9,1.6,0.9,2.6c0,0.7-0.1,1.4-0.3,2.1c-0.2,0.7-0.6,1.6-1,2.7c-0.7,1.5-1.1,2.6-1.1,3.3c0,1,0.5,1.4,1.4,1.4
	c1,0,2-0.4,3.1-1.2c1.1-0.8,2.1-1.7,3.1-2.8c0.9-1.2,1.6-2.2,2-3.2l0.6,0.5c-1,2.2-2.4,4.2-4.3,5.9c-1.9,1.7-3.8,2.5-5.7,2.5
	c-1.1,0-2-0.3-2.6-0.9c-0.6-0.6-0.9-1.3-0.9-2.3c0-1.1,0.5-2.7,1.4-4.7c0.4-1.1,0.7-1.9,0.9-2.5c0.2-0.6,0.3-1.2,0.3-1.8
	c0-0.8-0.2-1.4-0.6-1.9c-0.4-0.5-0.8-0.9-1.2-1.2c-0.4-0.3-0.8-0.5-0.9-0.6c-0.9,2.6-2.1,5-3.6,7.1c-1.5,2.1-3.1,3.2-4.8,3.2
	c-0.9,0-1.7-0.2-2.4-0.5c-0.7-0.4-1.2-0.9-1.6-1.7c-1.1,2.4-2.3,4.4-3.8,5.8C121.3,129.8,119.8,130.5,118.1,130.5z M119.2,128.5
	c1.1,0,2.3-0.7,3.6-2.1c1.3-1.4,2.4-3.2,3.3-5.3c-0.2-0.8-0.3-1.7-0.3-2.7c0-2,0.3-3.4,0.9-4.4c-1.7,0-3.2,0.7-4.7,2.2
	c-1.4,1.4-2.5,3.1-3.4,5c-0.8,1.9-1.2,3.5-1.2,4.8c0,0.7,0.2,1.3,0.5,1.8C118.2,128.2,118.6,128.5,119.2,128.5z"/>
<path class="st1" d="M28,144.2c0.9,0,1.7,0.1,2.4,0.4c0.7,0.3,1.3,0.7,1.9,1.4c0.5,0.6,0.9,1.5,1.2,2.6c0.3,1.1,0.4,2.4,0.4,4
	c0,1.6-0.1,3-0.4,4c-0.3,1.1-0.7,1.9-1.2,2.6c-0.5,0.6-1.1,1.1-1.9,1.4c-0.7,0.3-1.5,0.4-2.4,0.4h-3.8c0-0.7,0.1-1.4,0.1-2.1
	c0-0.7,0.1-1.5,0.1-2.2c0-0.7,0-1.4,0-2.1s0-1.4,0-2c0-0.6,0-1.3,0-2c0-0.7,0-1.4,0-2.1c0-0.7,0-1.4-0.1-2.2c0-0.7-0.1-1.4-0.1-2.1
	H28z M26.4,145.6c-0.1,1.2-0.1,2.4-0.1,3.6c0,1.2,0,2.3,0,3.4c0,1,0,2.2,0,3.4c0,1.2,0.1,2.4,0.1,3.6h1.6c0.3,0,0.7,0,1-0.1
	c0.3-0.1,0.6-0.2,0.9-0.4c0.3-0.2,0.5-0.5,0.8-0.8c0.2-0.3,0.4-0.8,0.6-1.3c0.2-0.5,0.3-1.1,0.4-1.9c0.1-0.7,0.1-1.6,0.1-2.5
	c0-1,0-1.8-0.1-2.5c-0.1-0.7-0.2-1.3-0.4-1.9c-0.2-0.5-0.3-0.9-0.6-1.3c-0.2-0.3-0.5-0.6-0.8-0.8c-0.3-0.2-0.6-0.3-0.9-0.4
	c-0.3-0.1-0.7-0.1-1-0.1H26.4z M43.1,144.2v1.4h-4.9c0,0.9-0.1,1.9-0.1,2.8c0,0.9,0,1.8,0,2.7h4.7v1.4h-4.7c0,1,0,2.2,0,3.4
	c0,1.2,0.1,2.4,0.1,3.6h4.9v1.4H36c0-0.7,0.1-1.4,0.1-2.1c0-0.7,0.1-1.5,0.1-2.2c0-0.7,0-1.4,0-2.1c0-0.7,0-1.4,0-2c0-0.6,0-1.3,0-2
	c0-0.7,0-1.4,0-2.1c0-0.7,0-1.4-0.1-2.2c0-0.7-0.1-1.4-0.1-2.1H43.1z M48.1,159.9c0.3,0,0.6,0,1-0.1c0.3-0.1,0.6-0.3,0.8-0.5
	c0.2-0.2,0.4-0.5,0.6-0.9c0.1-0.4,0.2-0.8,0.2-1.3c0-0.4-0.1-0.8-0.3-1.2c-0.2-0.4-0.4-0.7-0.7-1.1c-0.3-0.3-0.6-0.7-1-1
	c-0.4-0.3-0.7-0.7-1.1-1c-0.4-0.3-0.8-0.7-1.1-1c-0.4-0.4-0.7-0.7-1-1.1c-0.3-0.4-0.5-0.8-0.7-1.3c-0.2-0.4-0.3-0.9-0.3-1.5
	c0-0.8,0.1-1.4,0.4-2c0.3-0.5,0.6-1,1.1-1.3c0.4-0.3,0.9-0.6,1.5-0.7c0.5-0.1,1.1-0.2,1.6-0.2c0.5,0,1,0,1.5,0.1
	c0.5,0.1,1,0.2,1.4,0.3v2.4c-0.3-0.2-0.5-0.4-0.7-0.6c-0.2-0.2-0.5-0.3-0.7-0.5c-0.2-0.1-0.5-0.2-0.7-0.3c-0.2-0.1-0.5-0.1-0.8-0.1
	c-0.3,0-0.7,0-1,0.1c-0.3,0.1-0.6,0.2-0.8,0.4c-0.2,0.2-0.4,0.4-0.5,0.7c-0.1,0.3-0.2,0.7-0.2,1.1c0,0.6,0.2,1.1,0.5,1.6
	c0.3,0.5,0.7,0.9,1.1,1.4c0.5,0.4,0.9,0.9,1.5,1.3c0.5,0.4,1,0.9,1.5,1.4c0.5,0.5,0.8,1,1.1,1.6c0.3,0.6,0.5,1.3,0.5,2
	c0,0.6-0.1,1.1-0.2,1.5c-0.1,0.4-0.3,0.8-0.5,1.1c-0.2,0.3-0.5,0.6-0.8,0.8c-0.3,0.2-0.6,0.4-0.9,0.5c-0.3,0.1-0.7,0.2-1,0.3
	c-0.4,0.1-0.7,0.1-1,0.1c-0.4,0-0.8,0-1.1,0c-0.3,0-0.6-0.1-0.9-0.1c-0.3,0-0.6-0.1-0.8-0.2c-0.2-0.1-0.5-0.2-0.7-0.2v-2.5
	c0.3,0.2,0.5,0.5,0.8,0.7c0.3,0.2,0.5,0.4,0.8,0.5c0.3,0.2,0.6,0.3,0.9,0.4C47.5,159.9,47.8,159.9,48.1,159.9z M57,144.2
	c0,0.7-0.1,1.4-0.1,2.1c0,0.7,0,1.4-0.1,2.2c0,0.7,0,1.4,0,2.1c0,0.7,0,1.4,0,2c0,0.6,0,1.3,0,2c0,0.7,0,1.4,0,2.1
	c0,0.7,0,1.4,0.1,2.2c0,0.7,0.1,1.4,0.1,2.1h-2.3c0-0.7,0.1-1.4,0.1-2.1c0-0.7,0.1-1.5,0.1-2.2c0-0.7,0-1.4,0-2.1s0-1.4,0-2
	c0-0.6,0-1.3,0-2c0-0.7,0-1.4,0-2.1c0-0.7,0-1.4-0.1-2.2c0-0.7-0.1-1.4-0.1-2.1H57z M64.4,152.7h4.4c0,0.7-0.1,1.3-0.1,2
	c0,0.6,0,1.3,0,1.8c0,0.6,0,1.1,0,1.6c0,0.5,0,0.9,0,1.2c0,0.4,0,0.8,0,1.1c-0.4,0.2-0.9,0.4-1.5,0.5c-0.6,0.1-1.3,0.2-2.2,0.2
	c-0.8,0-1.6-0.2-2.4-0.5c-0.7-0.3-1.4-0.9-1.9-1.6c-0.5-0.7-1-1.6-1.3-2.7c-0.3-1.1-0.5-2.4-0.5-3.8c0-1.5,0.2-2.8,0.5-3.8
	c0.3-1.1,0.8-2,1.3-2.7c0.6-0.7,1.2-1.2,1.9-1.6c0.7-0.4,1.5-0.5,2.4-0.5c0.3,0,0.7,0,0.9,0c0.3,0,0.5,0.1,0.8,0.1
	c0.2,0,0.5,0.1,0.7,0.2c0.2,0.1,0.4,0.2,0.6,0.2v2.5c-0.5-0.6-1-1-1.5-1.2c-0.5-0.2-1-0.4-1.5-0.4c-0.6,0-1.2,0.2-1.7,0.5
	c-0.5,0.3-0.9,0.8-1.2,1.5c-0.3,0.6-0.6,1.4-0.8,2.3c-0.2,0.9-0.3,1.9-0.3,2.9c0,1,0.1,2,0.2,2.9c0.2,0.9,0.4,1.6,0.7,2.3
	c0.3,0.6,0.7,1.1,1.2,1.5c0.5,0.4,1.1,0.6,1.7,0.6c0.3,0,0.5,0,0.7-0.1c0.2,0,0.4-0.1,0.6-0.2c0-0.2,0-0.4,0-0.6c0-0.2,0-0.4,0-0.7
	c0-0.3,0-0.6,0-1c0-0.4,0-0.9,0-1.4c0-0.5,0-1.1-0.1-1.6h-2.2V152.7z M80.3,144.2c0,0.7-0.1,1.4-0.1,2.1c0,0.7,0,1.4-0.1,2.2
	c0,0.7,0,1.4,0,2.1c0,0.7,0,1.4,0,2c0,0.6,0,1.3,0,2c0,0.7,0,1.4,0,2.1c0,0.7,0,1.4,0.1,2.2c0,0.7,0.1,1.4,0.1,2.1H78
	c-0.4-1.2-0.8-2.3-1.2-3.4c-0.4-1.1-0.8-2.1-1.2-3.1c-0.4-1-0.8-2-1.2-3c-0.4-1-0.8-1.9-1.2-2.9h-0.1c0,0.7,0,1.4,0,2.1
	c0,0.7,0,1.3,0,1.9c0,0.6,0,1.3,0,2c0,0.7,0,1.4,0,2.1c0,0.7,0,1.4,0.1,2.2c0,0.7,0.1,1.4,0.1,2.1h-2.2c0-0.7,0.1-1.4,0.1-2.1
	c0-0.7,0.1-1.5,0.1-2.2c0-0.7,0-1.4,0-2.1c0-0.7,0-1.4,0-2c0-0.6,0-1.3,0-2c0-0.7,0-1.4,0-2.1c0-0.7,0-1.4-0.1-2.2
	c0-0.7-0.1-1.4-0.1-2.1h2.3c0.8,2.4,1.6,4.7,2.4,6.8c0.8,2.1,1.6,4.1,2.4,6h0.1c0-0.4,0-0.7,0-1.1c0-0.4,0-0.8,0-1.2
	c0-0.4,0-0.8,0-1.1c0-0.4,0-0.7,0-1c0-0.6,0-1.3,0-2c0-0.7,0-1.4,0-2.1c0-0.7,0-1.4-0.1-2.2c0-0.7-0.1-1.4-0.1-2.1H80.3z
	 M91.4,144.2c0.9,0,1.7,0.1,2.4,0.4c0.7,0.3,1.3,0.7,1.9,1.4c0.5,0.6,0.9,1.5,1.2,2.6c0.3,1.1,0.4,2.4,0.4,4c0,1.6-0.1,3-0.4,4
	c-0.3,1.1-0.7,1.9-1.2,2.6c-0.5,0.6-1.1,1.1-1.9,1.4c-0.7,0.3-1.5,0.4-2.4,0.4h-3.8c0-0.7,0.1-1.4,0.1-2.1c0-0.7,0.1-1.5,0.1-2.2
	c0-0.7,0-1.4,0-2.1c0-0.7,0-1.4,0-2c0-0.6,0-1.3,0-2c0-0.7,0-1.4,0-2.1c0-0.7,0-1.4-0.1-2.2c0-0.7-0.1-1.4-0.1-2.1H91.4z
	 M89.8,145.6c-0.1,1.2-0.1,2.4-0.1,3.6c0,1.2,0,2.3,0,3.4c0,1,0,2.2,0,3.4c0,1.2,0.1,2.4,0.1,3.6h1.6c0.3,0,0.7,0,1-0.1
	c0.3-0.1,0.6-0.2,0.9-0.4c0.3-0.2,0.5-0.5,0.8-0.8c0.2-0.3,0.4-0.8,0.6-1.3c0.2-0.5,0.3-1.1,0.4-1.9c0.1-0.7,0.1-1.6,0.1-2.5
	c0-1,0-1.8-0.1-2.5c-0.1-0.7-0.2-1.3-0.4-1.9c-0.2-0.5-0.3-0.9-0.6-1.3c-0.2-0.3-0.5-0.6-0.8-0.8c-0.3-0.2-0.6-0.3-0.9-0.4
	c-0.3-0.1-0.7-0.1-1-0.1H89.8z M109.6,152.6c0,1.5-0.1,2.8-0.4,3.9c-0.3,1.1-0.6,2-1.1,2.7c-0.5,0.7-1,1.2-1.7,1.6s-1.3,0.5-2.1,0.5
	c-0.7,0-1.4-0.2-2.1-0.5c-0.6-0.3-1.2-0.9-1.7-1.6c-0.5-0.7-0.8-1.6-1.1-2.7c-0.3-1.1-0.4-2.4-0.4-3.9c0-1.5,0.1-2.8,0.4-3.9
	c0.3-1.1,0.7-2,1.1-2.7c0.5-0.7,1-1.2,1.7-1.6c0.6-0.3,1.3-0.5,2.1-0.5c0.7,0,1.4,0.2,2.1,0.5s1.2,0.9,1.7,1.6
	c0.5,0.7,0.9,1.6,1.1,2.7C109.4,149.8,109.6,151.1,109.6,152.6z M107.5,152.6c0-1.3-0.1-2.3-0.2-3.2c-0.2-0.9-0.4-1.7-0.7-2.2
	c-0.3-0.6-0.6-1-1-1.3c-0.4-0.3-0.8-0.4-1.2-0.4c-0.5,0-0.9,0.1-1.3,0.4c-0.4,0.3-0.7,0.7-1,1.3c-0.3,0.6-0.5,1.3-0.7,2.2
	c-0.2,0.9-0.2,2-0.2,3.2c0,1.3,0.1,2.3,0.2,3.3c0.2,0.9,0.4,1.7,0.7,2.2c0.3,0.6,0.6,1,1,1.3c0.4,0.3,0.8,0.4,1.3,0.4
	c0.4,0,0.9-0.1,1.2-0.4c0.4-0.3,0.7-0.7,1-1.3c0.3-0.6,0.5-1.3,0.7-2.2C107.4,155,107.5,153.9,107.5,152.6z M113.4,152.6
	c0,1.2,0.1,2.2,0.3,3.1c0.2,0.9,0.5,1.6,0.8,2.3c0.3,0.6,0.8,1.1,1.2,1.4c0.5,0.3,1,0.5,1.6,0.5c0.4,0,0.7,0,1-0.1
	c0.3-0.1,0.5-0.2,0.7-0.3c0.2-0.1,0.4-0.3,0.6-0.5c0.2-0.2,0.4-0.3,0.6-0.5v2.5c-0.5,0.1-0.9,0.2-1.4,0.3c-0.5,0.1-1,0.1-1.5,0.1
	c-0.9,0-1.7-0.2-2.4-0.5c-0.7-0.3-1.4-0.9-1.9-1.6c-0.5-0.7-1-1.6-1.3-2.7c-0.3-1.1-0.5-2.4-0.5-3.8c0-1.5,0.2-2.8,0.5-3.8
	c0.3-1.1,0.8-2,1.3-2.7c0.6-0.7,1.2-1.2,1.9-1.6c0.7-0.4,1.5-0.5,2.4-0.5c0.6,0,1.1,0,1.5,0.1c0.5,0.1,0.9,0.2,1.4,0.3v2.5
	c-0.2-0.2-0.4-0.3-0.6-0.5c-0.2-0.2-0.4-0.3-0.6-0.5c-0.2-0.1-0.5-0.3-0.7-0.3c-0.3-0.1-0.6-0.1-1-0.1c-0.6,0-1.1,0.2-1.6,0.5
	c-0.5,0.3-0.9,0.8-1.2,1.4c-0.3,0.6-0.6,1.4-0.8,2.3C113.4,150.4,113.4,151.5,113.4,152.6z M121,144.2h8.4v1.4h-3.1
	c-0.1,1.2-0.1,2.4-0.1,3.6c0,1.2,0,2.3,0,3.4c0,0.6,0,1.3,0,2c0,0.7,0,1.4,0,2.1c0,0.7,0,1.4,0.1,2.2c0,0.7,0.1,1.4,0.1,2.1H124
	c0-0.7,0.1-1.4,0.1-2.1c0-0.7,0.1-1.5,0.1-2.2c0-0.7,0-1.4,0-2.1c0-0.7,0-1.4,0-2c0-1,0-2.2,0-3.4c0-1.2-0.1-2.4-0.1-3.6H121V144.2z
	 M140.3,152.6c0,1.5-0.1,2.8-0.4,3.9c-0.3,1.1-0.6,2-1.1,2.7c-0.5,0.7-1,1.2-1.7,1.6c-0.6,0.3-1.3,0.5-2.1,0.5
	c-0.7,0-1.4-0.2-2.1-0.5c-0.6-0.3-1.2-0.9-1.7-1.6c-0.5-0.7-0.8-1.6-1.1-2.7c-0.3-1.1-0.4-2.4-0.4-3.9c0-1.5,0.1-2.8,0.4-3.9
	c0.3-1.1,0.7-2,1.1-2.7c0.5-0.7,1-1.2,1.7-1.6c0.6-0.3,1.3-0.5,2.1-0.5c0.7,0,1.4,0.2,2.1,0.5c0.6,0.3,1.2,0.9,1.7,1.6
	c0.5,0.7,0.9,1.6,1.1,2.7C140.2,149.8,140.3,151.1,140.3,152.6z M138.2,152.6c0-1.3-0.1-2.3-0.2-3.2c-0.2-0.9-0.4-1.7-0.7-2.2
	c-0.3-0.6-0.6-1-1-1.3c-0.4-0.3-0.8-0.4-1.2-0.4c-0.5,0-0.9,0.1-1.3,0.4c-0.4,0.3-0.7,0.7-1,1.3c-0.3,0.6-0.5,1.3-0.7,2.2
	c-0.2,0.9-0.2,2-0.2,3.2c0,1.3,0.1,2.3,0.2,3.3c0.2,0.9,0.4,1.7,0.7,2.2c0.3,0.6,0.6,1,1,1.3c0.4,0.3,0.8,0.4,1.3,0.4
	c0.4,0,0.9-0.1,1.2-0.4c0.4-0.3,0.7-0.7,1-1.3s0.5-1.3,0.7-2.2C138.2,155,138.2,153.9,138.2,152.6z M146.4,144.2
	c1.4,0,2.4,0.4,3.2,1.2c0.8,0.8,1.1,2,1.1,3.7c0,1.1-0.2,1.9-0.6,2.6c-0.4,0.7-0.9,1.2-1.6,1.6c0.2,0.7,0.4,1.5,0.7,2.3
	c0.2,0.7,0.5,1.5,0.9,2.5c0.4,0.9,0.8,1.9,1.3,3h-2.6c-0.4-1.2-0.7-2.3-0.9-3.2c-0.2-0.9-0.4-1.7-0.6-2.3c-0.2-0.7-0.3-1.3-0.4-1.8
	h-2.5c0,0.6,0,1.2,0,1.8c0,0.6,0,1.2,0,1.8c0,0.6,0,1.2,0.1,1.8c0,0.6,0.1,1.2,0.1,1.8h-2.3c0-0.7,0.1-1.4,0.1-2.1
	c0-0.7,0.1-1.5,0.1-2.2c0-0.7,0-1.4,0-2.1c0-0.7,0-1.4,0-2c0-0.6,0-1.3,0-2c0-0.7,0-1.4,0-2.1c0-0.7,0-1.4-0.1-2.2
	c0-0.7-0.1-1.4-0.1-2.1H146.4z M144.6,145.6c-0.1,1.2-0.1,2.3-0.1,3.5c0,1.2,0,2.3,0,3.3h1.8c0.4,0,0.7-0.1,1-0.2
	c0.3-0.1,0.5-0.3,0.7-0.6c0.2-0.3,0.4-0.6,0.5-1c0.1-0.4,0.2-0.9,0.2-1.5c0-1.2-0.2-2.1-0.6-2.7c-0.4-0.6-1-0.8-1.7-0.8H144.6z"/>
<defs>
	<filter id="Adobe_OpacityMaskFilter" filterUnits="userSpaceOnUse" x="42.6" y="-1.4" width="98" height="114.2">
		<feColorMatrix  type="matrix" values="1 0 0 0 0  0 1 0 0 0  0 0 1 0 0  0 0 0 1 0"/>
	</filter>
</defs>
<mask maskUnits="userSpaceOnUse" x="42.6" y="-1.4" width="98" height="114.2" id="mask0_1_">
	<circle class="st2" cx="87.5" cy="52.5" r="38"/>
</mask>
<g class="st3">
	<rect x="78.3" y="10.1" class="st0" width="62.4" height="95.5"/>
	<g>
		<path class="st4" d="M82.9,79.8c1.5,0.3,3,0.4,4.6,0.4c15.3,0,27.7-12.4,27.7-27.7s-12.4-27.7-27.7-27.7c-1.6,0-3.1,0.1-4.6,0.4
			V79.8z"/>
		<defs>
			<filter id="Adobe_OpacityMaskFilter_1_" filterUnits="userSpaceOnUse" x="81.9" y="23.8" width="34.3" height="57.4">
				<feColorMatrix  type="matrix" values="1 0 0 0 0  0 1 0 0 0  0 0 1 0 0  0 0 0 1 0"/>
			</filter>
		</defs>
		<mask maskUnits="userSpaceOnUse" x="81.9" y="23.8" width="34.3" height="57.4" id="path-7-inside-1_1_">
			<path class="st5" d="M82.9,79.8c1.5,0.3,3,0.4,4.6,0.4c15.3,0,27.7-12.4,27.7-27.7s-12.4-27.7-27.7-27.7c-1.6,0-3.1,0.1-4.6,0.4
				V79.8z"/>
		</mask>
		<path class="st6" d="M82.9,79.8h-1v0.8l0.8,0.1L82.9,79.8z M82.9,25.2l-0.2-1l-0.8,0.1v0.8H82.9z M87.5,79.2c-1.5,0-3-0.1-4.5-0.4
			l-0.3,2c1.6,0.3,3.2,0.4,4.8,0.4V79.2z M114.2,52.5c0,14.8-12,26.7-26.7,26.7v2c15.9,0,28.7-12.9,28.7-28.7H114.2z M87.5,25.8
			c14.8,0,26.7,12,26.7,26.7h2c0-15.9-12.9-28.7-28.7-28.7V25.8z M83,26.1c1.4-0.2,2.9-0.4,4.5-0.4v-2c-1.6,0-3.2,0.1-4.8,0.4
			L83,26.1z M81.9,25.2v54.7h2V25.2H81.9z"/>
		<defs>
			<filter id="Adobe_OpacityMaskFilter_2_" filterUnits="userSpaceOnUse" x="81.9" y="23.8" width="34.3" height="57.4">
				<feColorMatrix  type="matrix" values="1 0 0 0 0  0 1 0 0 0  0 0 1 0 0  0 0 0 1 0"/>
			</filter>
		</defs>
		<mask maskUnits="userSpaceOnUse" x="81.9" y="23.8" width="34.3" height="57.4" id="path-7-inside-1_2_">
			<path class="st7" d="M82.9,79.8c1.5,0.3,3,0.4,4.6,0.4c15.3,0,27.7-12.4,27.7-27.7s-12.4-27.7-27.7-27.7c-1.6,0-3.1,0.1-4.6,0.4
				V79.8z"/>
		</mask>
		
			<linearGradient id="SVGID_1_" gradientUnits="userSpaceOnUse" x1="99.05" y1="151.22" x2="99.05" y2="95.78" gradientTransform="matrix(1 0 0 -1 0 176)">
			<stop  offset="0" style="stop-color:#FFFFFF"/>
			<stop  offset="1" style="stop-color:#FFFFFF;stop-opacity:0"/>
		</linearGradient>
		<path class="st8" d="M82.9,79.8h-1v0.8l0.8,0.1L82.9,79.8z M82.9,25.2l-0.2-1l-0.8,0.1v0.8H82.9z M87.5,79.2c-1.5,0-3-0.1-4.5-0.4
			l-0.3,2c1.6,0.3,3.2,0.4,4.8,0.4V79.2z M114.2,52.5c0,14.8-12,26.7-26.7,26.7v2c15.9,0,28.7-12.9,28.7-28.7H114.2z M87.5,25.8
			c14.8,0,26.7,12,26.7,26.7h2c0-15.9-12.9-28.7-28.7-28.7V25.8z M83,26.1c1.4-0.2,2.9-0.4,4.5-0.4v-2c-1.6,0-3.2,0.1-4.8,0.4
			L83,26.1z M81.9,25.2v54.7h2V25.2H81.9z"/>
	</g>
	<rect x="42.6" y="-1.4" class="st9" width="35.9" height="114.2"/>
	
		<linearGradient id="SVGID_2_" gradientUnits="userSpaceOnUse" x1="60.5499" y1="177.4" x2="60.5499" y2="63.183" gradientTransform="matrix(1 0 0 -1 0 176)">
		<stop  offset="0" style="stop-color:#FFFFFF"/>
		<stop  offset="1" style="stop-color:#FFFFFF;stop-opacity:0"/>
	</linearGradient>
	<rect x="42.6" y="-1.4" class="st10" width="35.9" height="114.2"/>
	<rect x="68.3" y="14" class="st1" width="3.8" height="83.9"/>
</g>
</svg>
