<?xml version="1.0" encoding="utf-8"?>
<!-- Generator: Adobe Illustrator 24.1.2, SVG Export Plug-In . SVG Version: 6.00 Build 0)  -->
<svg version="1.1" id="Layer_1" xmlns="http://www.w3.org/2000/svg" xmlns:xlink="http://www.w3.org/1999/xlink" x="0px" y="0px"
	 viewBox="0 0 60 60" style="enable-background:new 0 0 60 60;" xml:space="preserve">
<style type="text/css">
	.st0{fill:#C4C4C4;filter:url(#Adobe_OpacityMaskFilter);stroke:#000000;}
	.st1{mask:url(#mask0_1_);}
	.st2{fill:#00718A;}
	.st3{fill-rule:evenodd;clip-rule:evenodd;fill:#FF9E75;}
	.st4{fill-rule:evenodd;clip-rule:evenodd;fill:#FFFFFF;filter:url(#Adobe_OpacityMaskFilter_1_);}
	.st5{mask:url(#path-4-inside-1_1_);fill:#077A93;}
	.st6{fill-rule:evenodd;clip-rule:evenodd;fill:#FFFFFF;filter:url(#Adobe_OpacityMaskFilter_2_);}
	.st7{mask:url(#path-4-inside-1_2_);fill:url(#SVGID_1_);}
	.st8{fill:#07849F;}
	.st9{fill:url(#SVGID_2_);}
	.st10{fill:#FF9E75;}
</style>
<defs>
	<filter id="Adobe_OpacityMaskFilter" filterUnits="userSpaceOnUse" x="-5" y="-12" width="76.4" height="89">
		<feColorMatrix  type="matrix" values="1 0 0 0 0  0 1 0 0 0  0 0 1 0 0  0 0 0 1 0"/>
	</filter>
</defs>
<mask maskUnits="userSpaceOnUse" x="-5" y="-12" width="76.4" height="89" id="mask0_1_">
	<circle class="st0" cx="30" cy="30" r="29.5"/>
</mask>
<g class="st1">
	<rect x="22.8" y="-3" class="st2" width="48.6" height="74.4"/>
	<g>
		<path class="st3" d="M26.4,51.3c1.2,0.2,2.4,0.3,3.6,0.3c11.9,0,21.6-9.7,21.6-21.6c0-11.9-9.7-21.6-21.6-21.6
			c-1.2,0-2.4,0.1-3.6,0.3V51.3z"/>
		<defs>
			<filter id="Adobe_OpacityMaskFilter_1_" filterUnits="userSpaceOnUse" x="25.4" y="7.4" width="27.2" height="45.2">
				<feColorMatrix  type="matrix" values="1 0 0 0 0  0 1 0 0 0  0 0 1 0 0  0 0 0 1 0"/>
			</filter>
		</defs>
		<mask maskUnits="userSpaceOnUse" x="25.4" y="7.4" width="27.2" height="45.2" id="path-4-inside-1_1_">
			<path class="st4" d="M26.4,51.3c1.2,0.2,2.4,0.3,3.6,0.3c11.9,0,21.6-9.7,21.6-21.6c0-11.9-9.7-21.6-21.6-21.6
				c-1.2,0-2.4,0.1-3.6,0.3V51.3z"/>
		</mask>
		<path class="st5" d="M26.4,51.3h-1v0.8l0.8,0.1L26.4,51.3z M26.4,8.7l-0.2-1l-0.8,0.1v0.8H26.4z M30,50.6c-1.2,0-2.3-0.1-3.4-0.3
			l-0.3,2c1.2,0.2,2.5,0.3,3.8,0.3V50.6z M50.6,30c0,11.4-9.2,20.6-20.6,20.6v2c12.5,0,22.6-10.1,22.6-22.6H50.6z M30,9.4
			c11.4,0,20.6,9.2,20.6,20.6h2C52.6,17.5,42.5,7.4,30,7.4V9.4z M26.6,9.7c1.1-0.2,2.3-0.3,3.4-0.3v-2c-1.3,0-2.5,0.1-3.8,0.3
			L26.6,9.7z M25.4,8.7v42.6h2V8.7H25.4z"/>
		<defs>
			<filter id="Adobe_OpacityMaskFilter_2_" filterUnits="userSpaceOnUse" x="25.4" y="7.4" width="27.2" height="45.2">
				<feColorMatrix  type="matrix" values="1 0 0 0 0  0 1 0 0 0  0 0 1 0 0  0 0 0 1 0"/>
			</filter>
		</defs>
		<mask maskUnits="userSpaceOnUse" x="25.4" y="7.4" width="27.2" height="45.2" id="path-4-inside-1_2_">
			<path class="st6" d="M26.4,51.3c1.2,0.2,2.4,0.3,3.6,0.3c11.9,0,21.6-9.7,21.6-21.6c0-11.9-9.7-21.6-21.6-21.6
				c-1.2,0-2.4,0.1-3.6,0.3V51.3z"/>
		</mask>
		
			<linearGradient id="SVGID_1_" gradientUnits="userSpaceOnUse" x1="39" y1="53.6" x2="39" y2="10.4" gradientTransform="matrix(1 0 0 -1 0 62)">
			<stop  offset="0" style="stop-color:#FFFFFF"/>
			<stop  offset="1" style="stop-color:#FFFFFF;stop-opacity:0"/>
		</linearGradient>
		<path class="st7" d="M26.4,51.3h-1v0.8l0.8,0.1L26.4,51.3z M26.4,8.7l-0.2-1l-0.8,0.1v0.8H26.4z M30,50.6c-1.2,0-2.3-0.1-3.4-0.3
			l-0.3,2c1.2,0.2,2.5,0.3,3.8,0.3V50.6z M50.6,30c0,11.4-9.2,20.6-20.6,20.6v2c12.5,0,22.6-10.1,22.6-22.6H50.6z M30,9.4
			c11.4,0,20.6,9.2,20.6,20.6h2C52.6,17.5,42.5,7.4,30,7.4V9.4z M26.6,9.7c1.1-0.2,2.3-0.3,3.4-0.3v-2c-1.3,0-2.5,0.1-3.8,0.3
			L26.6,9.7z M25.4,8.7v42.6h2V8.7H25.4z"/>
	</g>
	<rect x="-5" y="-12" class="st8" width="28" height="89"/>
	
		<linearGradient id="SVGID_2_" gradientUnits="userSpaceOnUse" x1="9" y1="74" x2="9" y2="-15" gradientTransform="matrix(1 0 0 -1 0 62)">
		<stop  offset="0" style="stop-color:#FFFFFF"/>
		<stop  offset="1" style="stop-color:#FFFFFF;stop-opacity:0"/>
	</linearGradient>
	<rect x="-5" y="-12" class="st9" width="28" height="89"/>
	<rect x="15" class="st10" width="3" height="65.4"/>
</g>
</svg>
