<?xml version="1.0" standalone="no"?>
<!DOCTYPE svg PUBLIC "-//W3C//DTD SVG 20010904//EN"
 "http://www.w3.org/TR/2001/REC-SVG-20010904/DTD/svg10.dtd">
<svg version="1.0" xmlns="http://www.w3.org/2000/svg"
 width="255.000000pt" height="255.000000pt" viewBox="0 0 255.000000 255.000000"
 preserveAspectRatio="xMidYMid meet">
<metadata>
Created by potrace 1.16, written by Peter Selinger 2001-2019
</metadata>
<g transform="translate(0.000000,255.000000) scale(0.100000,-0.100000)"
fill="#000000" stroke="none">
<path d="M1113 2135 c-179 -32 -319 -104 -452 -229 -136 -130 -223 -294 -255
-479 l-11 -68 -65 -23 c-111 -38 -233 -124 -228 -160 3 -20 10 -21 152 -26
l149 -5 18 -78 c58 -246 235 -460 472 -572 275 -131 601 -105 857 66 183 123
321 326 363 534 l14 70 159 5 c153 5 159 6 162 27 3 22 -71 90 -254 232 -81
62 -87 70 -108 131 -31 90 -70 164 -127 241 -191 259 -527 392 -846 334z m396
-84 c51 -17 125 -50 163 -72 85 -50 206 -163 260 -243 34 -49 98 -174 98 -190
0 -3 -37 15 -82 39 -130 69 -255 106 -373 112 -122 6 -155 -4 -336 -109 -168
-96 -253 -134 -351 -158 -82 -19 -419 -62 -427 -54 -3 3 1 32 8 65 54 261 233
479 481 586 115 49 196 63 340 59 109 -3 137 -7 219 -35z m164 -426 c46 -19
-249 -192 -363 -214 -30 -5 -116 -13 -190 -16 -122 -5 -131 -4 -100 9 54 20
135 63 236 122 50 29 120 67 155 84 60 30 69 31 154 27 50 -3 98 -8 108 -12z
m240 -91 c82 -42 203 -123 317 -215 l105 -84 -165 -3 c-127 -2 -166 0 -169 10
-2 7 -19 28 -37 46 -83 83 -194 -4 -194 -153 0 -56 19 -88 61 -102 48 -15 84
-6 126 33 36 34 39 50 10 68 -13 8 -22 5 -44 -15 -38 -35 -59 -41 -78 -23 -30
31 -7 131 37 158 22 13 54 -14 62 -55 5 -28 7 -29 66 -29 l60 0 -6 -27 c-27
-126 -70 -228 -132 -319 -51 -76 -171 -190 -249 -237 -376 -229 -873 -110
-1106 264 -45 73 -98 199 -110 265 -6 30 -4 32 31 38 20 3 153 6 295 6 225 0
257 -2 257 -15 0 -9 9 -34 21 -56 37 -73 127 -88 183 -32 52 52 47 109 -13
149 -22 14 -42 32 -45 40 -9 22 34 17 60 -7 13 -12 30 -19 39 -15 56 21 -4 96
-78 96 -104 0 -119 -91 -26 -156 22 -15 39 -30 39 -33 0 -14 -26 -39 -46 -45
-30 -9 -54 14 -74 74 l-19 55 -433 -2 -433 -3 25 20 c14 11 49 29 79 40 118
45 171 51 566 60 330 8 390 12 458 29 101 26 210 84 322 170 l90 68 48 -18
c26 -11 71 -31 100 -45z"/>
<path d="M1407 1313 c-12 -20 -77 -239 -77 -260 0 -28 26 -41 44 -22 18 20 89
257 82 274 -6 16 -41 21 -49 8z"/>
<path d="M1582 1304 c-42 -29 -23 -97 39 -140 45 -31 46 -37 19 -64 -39 -39
-74 -18 -100 60 -15 46 -23 55 -42 55 -21 0 -23 -4 -21 -42 1 -22 11 -60 23
-83 38 -74 127 -90 184 -33 52 52 47 109 -13 149 -22 14 -42 32 -45 40 -9 22
34 17 60 -7 13 -12 30 -19 39 -15 56 21 -4 96 -78 96 -23 0 -53 -7 -65 -16z"/>
</g>
</svg>
