<?xml version="1.0" encoding="utf-8"?>
<!-- Generator: Adobe Illustrator 24.1.2, SVG Export Plug-In . SVG Version: 6.00 Build 0)  -->
<svg version="1.1" id="Layer_1" xmlns="http://www.w3.org/2000/svg" xmlns:xlink="http://www.w3.org/1999/xlink" x="0px" y="0px"
	 viewBox="0 0 425 425" style="enable-background:new 0 0 425 425;" xml:space="preserve">
<g transform="translate(0.000000,380.000000) scale(0.100000,-0.100000)">
	<path d="M1941,3055c-434-55-810-306-1024-685c-79-140-161-397-162-505c0-19-4-40-8-46s-41-21-82-33c-41-13-109-41-150-62
		c-95-50-235-151-235-170c0-12,39-14,237-17l237-2l11-58c63-311,183-537,396-742c110-106,195-167,320-231c323-164,710-193,1054-79
		c449,148,802,549,892,1014l23,116h130c208,0,385,11,385,25c0,19-296,265-458,381l-83,60l-40,119c-70,211-162,359-324,521
		c-197,199-418,319-688,375C2257,3059,2049,3069,1941,3055z M2362,2996c449-92,821-416,977-850c15-41,25-76,22-78c-2-2-35,15-72,38
		c-211,130-488,228-690,245c-161,13-248-17-544-188c-378-219-503-259-945-304c-88-9-195-22-237-28l-78-13v30c0,16,9,74,21,130
		c110,541,564,960,1124,1036C2044,3029,2245,3020,2362,2996z M2676,2300c46-8,103-20,127-27l43-13l-108-81c-269-203-428-276-653-304
		c-108-13-623-12-565,1c160,37,318,109,590,269C2393,2312,2479,2335,2676,2300z M2957,2221c87-32,254-117,358-182
		c189-116,571-421,548-436c-7-4-149-8-314-8h-302l-6,34c-17,90-122,144-194,100c-114-69-153-313-61-378c27-19,109-22,142-5
		c36,19,87,72,87,91c0,26-23,22-51-8c-52-56-130-72-164-34c-24,26-31,105-15,170c15,64,82,140,123,140c35,0,84-44,92-83
		c14-71,8-67,111-67c107,0,102,8,79-102c-54-259-174-478-364-669c-243-243-531-371-871-386C1515,369,941,821,811,1455
		c-8,41-14,76-12,77c1,2,221,6,488,10l485,6l23-67c27-83,68-132,121-146c79-22,168,25,191,101c17,57,5,82-67,139
		c-78,61-99,95-70,116c10,8,39,14,63,14c36,0,48-5,70-30c29-33,52-39,52-14c0,54-59,88-141,82c-131-9-133-101-5-198
		c63-48,73-68,52-108c-29-57-87-80-141-57c-41,16-63,49-92,134l-22,66l-723-4l-723-3l58,42c134,97,265,145,498,182
		c118,18,198,22,669,28c565,8,583,9,736,60c128,43,291,140,474,284c52,41,96,75,97,75C2894,2245,2923,2234,2957,2221z"/>
	<path d="M2286,1544c-45-145-60-204-52-212s14-8,22,0c11,11,129,377,129,401c0,6-8,12-18,12C2352,1745,2337,1709,2286,1544z"/>
	<path d="M2633,1729c-65-35-42-107,57-184c74-59,80-80,40-129c-36-41-84-56-127-38c-45,19-57,36-88,125c-17,48-34,78-44,80
		c-22,5-21-18,5-99c37-117,104-170,195-153c64,12,124,80,124,141c0,38-19,63-80,108c-28,21-58,51-66,68c-15,28-15,31,2,44
		c10,7,38,13,62,13c36,0,49-5,72-30c29-31,45-37,55-20c10,15-14,49-48,70C2753,1749,2672,1751,2633,1729z"/>
</g>
</svg>
