<?xml version="1.0" encoding="utf-8"?>
<!-- Generator: Adobe Illustrator 24.1.2, SVG Export Plug-In . SVG Version: 6.00 Build 0)  -->
<svg version="1.1" id="Layer_1" xmlns="http://www.w3.org/2000/svg" xmlns:xlink="http://www.w3.org/1999/xlink" x="0px" y="0px"
	 viewBox="0 0 300 300" style="enable-background:new 0 0 300 300;" xml:space="preserve">
<g transform="translate(0.000000,255.000000) scale(0.100000,-0.100000)">
	<path d="M1338,1910c-179-32-319-104-452-229c-136-130-223-294-255-479l-11-68l-65-23c-111-38-233-124-228-160c3-20,10-21,152-26
		l149-5l18-78c58-246,235-460,472-572c275-131,601-105,857,66c183,123,321,326,363,534l14,70l159,5c153,5,159,6,162,27
		c3,22-71,90-254,232c-81,62-87,70-108,131c-31,90-70,164-127,241C1993,1835,1657,1968,1338,1910z M1734,1826c51-17,125-50,163-72
		c85-50,206-163,260-243c34-49,98-174,98-190c0-3-37,15-82,39c-130,69-255,106-373,112c-122,6-155-4-336-109
		c-168-96-253-134-351-158c-82-19-419-62-427-54c-3,3,1,32,8,65c54,261,233,479,481,586c115,49,196,63,340,59
		C1624,1858,1652,1854,1734,1826z M1898,1400c46-19-249-192-363-214c-30-5-116-13-190-16c-122-5-131-4-100,9c54,20,135,63,236,122
		c50,29,120,67,155,84c60,30,69,31,154,27C1840,1409,1888,1404,1898,1400z M2138,1309c82-42,203-123,317-215l105-84l-165-3
		c-127-2-166,0-169,10c-2,7-19,28-37,46c-83,83-194-4-194-153c0-56,19-88,61-102c48-15,84-6,126,33c36,34,39,50,10,68
		c-13,8-22,5-44-15c-38-35-59-41-78-23c-30,31-7,131,37,158c22,13,54-14,62-55c5-28,7-29,66-29h60l-6-27c-27-126-70-228-132-319
		c-51-76-171-190-249-237c-376-229-873-110-1106,264c-45,73-98,199-110,265c-6,30-4,32,31,38c20,3,153,6,295,6c225,0,257-2,257-15
		c0-9,9-34,21-56c37-73,127-88,183-32c52,52,47,109-13,149c-22,14-42,32-45,40c-9,22,34,17,60-7c13-12,30-19,39-15c56,21-4,96-78,96
		c-104,0-119-91-26-156c22-15,39-30,39-33c0-14-26-39-46-45c-30-9-54,14-74,74l-19,55l-433-2l-433-3l25,20c14,11,49,29,79,40
		c118,45,171,51,566,60c330,8,390,12,458,29c101,26,210,84,322,170l90,68l48-18C2064,1343,2109,1323,2138,1309z"/>
	<path d="M1632,1088c-12-20-77-239-77-260c0-28,26-41,44-22c18,20,89,257,82,274C1675,1096,1640,1101,1632,1088z"/>
	<path d="M1807,1079c-42-29-23-97,39-140c45-31,46-37,19-64c-39-39-74-18-100,60c-15,46-23,55-42,55c-21,0-23-4-21-42
		c1-22,11-60,23-83c38-74,127-90,184-33c52,52,47,109-13,149c-22,14-42,32-45,40c-9,22,34,17,60-7c13-12,30-19,39-15
		c56,21-4,96-78,96C1849,1095,1819,1088,1807,1079z"/>
</g>
</svg>
