<?xml version="1.0" standalone="no"?>
<!DOCTYPE svg PUBLIC "-//W3C//DTD SVG 20010904//EN"
 "http://www.w3.org/TR/2001/REC-SVG-20010904/DTD/svg10.dtd">
<svg version="1.0" xmlns="http://www.w3.org/2000/svg"
 width="380.000000pt" height="380.000000pt" viewBox="0 0 380.000000 380.000000"
 preserveAspectRatio="xMidYMid meet">
<metadata>
Created by potrace 1.16, written by Peter Selinger 2001-2019
</metadata>
<g transform="translate(0.000000,380.000000) scale(0.100000,-0.100000)"
fill="#000000" stroke="none">
<path d="M1716 3280 c-434 -55 -810 -306 -1024 -685 -79 -140 -161 -397 -162
-505 0 -19 -4 -40 -8 -46 -4 -6 -41 -21 -82 -33 -41 -13 -109 -41 -150 -62
-95 -50 -235 -151 -235 -170 0 -12 39 -14 237 -17 l237 -2 11 -58 c63 -311
183 -537 396 -742 110 -106 195 -167 320 -231 323 -164 710 -193 1054 -79 449
148 802 549 892 1014 l23 116 130 0 c208 0 385 11 385 25 0 19 -296 265 -458
381 l-83 60 -40 119 c-70 211 -162 359 -324 521 -197 199 -418 319 -688 375
-115 23 -323 33 -431 19z m421 -59 c449 -92 821 -416 977 -850 15 -41 25 -76
22 -78 -2 -2 -35 15 -72 38 -211 130 -488 228 -690 245 -161 13 -248 -17 -544
-188 -378 -219 -503 -259 -945 -304 -88 -9 -195 -22 -237 -28 l-78 -13 0 30
c0 16 9 74 21 130 110 541 564 960 1124 1036 104 15 305 6 422 -18z m314 -696
c46 -8 103 -20 127 -27 l43 -13 -108 -81 c-269 -203 -428 -276 -653 -304 -108
-13 -623 -12 -565 1 160 37 318 109 590 269 283 167 369 190 566 155z m281
-79 c87 -32 254 -117 358 -182 189 -116 571 -421 548 -436 -7 -4 -149 -8 -314
-8 l-302 0 -6 34 c-17 90 -122 144 -194 100 -114 -69 -153 -313 -61 -378 27
-19 109 -22 142 -5 36 19 87 72 87 91 0 26 -23 22 -51 -8 -52 -56 -130 -72
-164 -34 -24 26 -31 105 -15 170 15 64 82 140 123 140 35 0 84 -44 92 -83 14
-71 8 -67 111 -67 107 0 102 8 79 -102 -54 -259 -174 -478 -364 -669 -243
-243 -531 -371 -871 -386 -640 -29 -1214 423 -1344 1057 -8 41 -14 76 -12 77
1 2 221 6 488 10 l485 6 23 -67 c27 -83 68 -132 121 -146 79 -22 168 25 191
101 17 57 5 82 -67 139 -78 61 -99 95 -70 116 10 8 39 14 63 14 36 0 48 -5 70
-30 29 -33 52 -39 52 -14 0 54 -59 88 -141 82 -131 -9 -133 -101 -5 -198 63
-48 73 -68 52 -108 -29 -57 -87 -80 -141 -57 -41 16 -63 49 -92 134 l-22 66
-723 -4 -723 -3 58 42 c134 97 265 145 498 182 118 18 198 22 669 28 565 8
583 9 736 60 128 43 291 140 474 284 52 41 96 75 97 75 2 1 31 -10 65 -23z"/>
<path d="M2061 1769 c-45 -145 -60 -204 -52 -212 8 -8 14 -8 22 0 11 11 129
377 129 401 0 6 -8 12 -18 12 -15 0 -30 -36 -81 -201z"/>
<path d="M2408 1954 c-65 -35 -42 -107 57 -184 74 -59 80 -80 40 -129 -36 -41
-84 -56 -127 -38 -45 19 -57 36 -88 125 -17 48 -34 78 -44 80 -22 5 -21 -18 5
-99 37 -117 104 -170 195 -153 64 12 124 80 124 141 0 38 -19 63 -80 108 -28
21 -58 51 -66 68 -15 28 -15 31 2 44 10 7 38 13 62 13 36 0 49 -5 72 -30 29
-31 45 -37 55 -20 10 15 -14 49 -48 70 -39 24 -120 26 -159 4z"/>
</g>
</svg>
