<?xml version="1.0" encoding="utf-8"?>
<!-- Generator: Adobe Illustrator 24.1.2, SVG Export Plug-In . SVG Version: 6.00 Build 0)  -->
<svg version="1.1" id="Layer_1" xmlns="http://www.w3.org/2000/svg" xmlns:xlink="http://www.w3.org/1999/xlink" x="0px" y="0px"
	 viewBox="0 0 200 200" style="enable-background:new 0 0 200 200;" xml:space="preserve">
<style type="text/css">
	.st0{fill:#C4C4C4;filter:url(#Adobe_OpacityMaskFilter);stroke:#000000;}
	.st1{mask:url(#mask0_1_);}
	.st2{fill:#07849F;}
	.st3{fill:#FF9E75;}
	.st4{fill:#00718A;}
</style>
<defs>
	<filter id="Adobe_OpacityMaskFilter" filterUnits="userSpaceOnUse" x="49.5" y="-102.8" width="119" height="342.5">
		<feColorMatrix  type="matrix" values="1 0 0 0 0  0 1 0 0 0  0 0 1 0 0  0 0 0 1 0"/>
	</filter>
</defs>
<mask maskUnits="userSpaceOnUse" x="49.5" y="-102.8" width="119" height="342.5" id="mask0_1_">
	<circle class="st0" cx="99.5" cy="64" r="49.5"/>
</mask>
<g class="st1">
	<rect x="87.5" y="9" class="st2" width="81" height="124"/>
	<g>
		<g style="opacity:0.5;">
			<image style="overflow:visible;" width="90" height="90" xlink:href="848D640.png"  transform="matrix(1 0 0 1 54.5 23)">
			</image>
		</g>
		<g>
			<g>
				<circle class="st3" cx="99.5" cy="64" r="36"/>
			</g>
		</g>
	</g>
	<path class="st2" d="M49.5,14h44v105h-44V14z"/>
	<rect x="63.8" y="-102.8" class="st3" width="15.7" height="342.5"/>
</g>
<path class="st4" d="M44,128.8c-0.7,0-1.2-0.2-1.7-0.5c-0.4-0.3-0.7-0.8-0.7-1.4c0-0.7,0.4-1.4,1.2-1.9c0.8-0.6,1.7-0.9,2.6-0.9
	c1.4,0,2.1,0.6,2.1,1.8c0,0.7-0.4,1.3-1.1,2C45.7,128.5,44.9,128.8,44,128.8z M38.3,150.4c-1.3,0-2.4-0.4-3.1-1.2
	c-0.7-0.8-1.1-1.8-1.1-3.1c0-1.3,0.4-3,1.1-5.2c0.7-2.2,1.6-4.1,2.7-5.8c1.1-1.7,2.2-2.5,3.4-2.5c0.4,0,0.8,0.1,1,0.4
	c0.3,0.2,0.4,0.6,0.4,1c0,0.3-0.1,0.7-0.4,1.2c-0.3,0.5-0.7,1.2-1.2,2.1c-1,1.7-1.8,3.2-2.4,4.5c-0.6,1.3-0.9,2.5-0.9,3.6
	c0,1,0.2,1.7,0.5,2s0.9,0.5,1.6,0.5c2.5,0,5-2.4,7.5-7.3l0.7,0.8c-1.1,2.8-2.5,5-4.3,6.6C42.2,149.7,40.3,150.4,38.3,150.4z
	 M62.4,150c-1.2,0-2.2-0.3-2.8-0.9c-0.7-0.6-1-1.4-1-2.4c0-0.4,0.1-0.9,0.2-1.4c0.2-0.5,0.3-1.1,0.5-1.6c0.4-1.5,0.7-2.6,0.7-3.3
	c0-0.6-0.2-1.1-0.5-1.4c-0.3-0.3-0.7-0.5-1.2-0.5c-1.7,0-3.4,1.1-5.1,3.2c-1.7,2.1-3.6,4.8-5.6,8.1c-1.4,0-2.4-0.5-3.1-1.4l0.4-1.2
	c1.9-4.6,2.8-8,2.8-10.2c0.3-0.3,0.6-0.5,1.1-0.8c0.5-0.3,0.9-0.4,1.4-0.4c0.5,0,1,0.1,1.2,0.4c0.3,0.3,0.4,0.6,0.4,1.1
	c0,0.9-0.3,2.3-0.8,4.3c1.4-1.9,2.9-3.5,4.5-4.7c1.6-1.2,3.1-1.8,4.6-1.8c1.3,0,2.3,0.4,3,1.3c0.7,0.9,1.1,1.9,1.1,3.1
	c0,0.7-0.1,1.4-0.3,2c-0.2,0.6-0.4,1.4-0.8,2.2c-0.5,1.3-0.8,2.4-0.8,3c0,0.5,0.1,0.8,0.3,1.1s0.5,0.3,0.8,0.3
	c1.1,0,2.2-0.7,3.4-2.2c1.2-1.5,2.4-3.2,3.4-5.2l0.8,0.7c-1.2,2.7-2.4,4.8-3.8,6.3C65.8,149.2,64.2,150,62.4,150z M73.3,151.2
	c-1.5,0-2.6-0.4-3.5-1.3c-0.8-0.8-1.2-2.1-1.2-3.7c0-1.2,0.2-2.8,0.7-4.8c0.5-2,1.1-4,1.9-6.2c-0.8-0.2-1.4-0.3-1.7-0.4v-1.5
	c0.8,0.1,1.5,0.2,2.3,0.2c1.4-3.6,3-6.7,4.6-9.3c1.7-2.6,3-3.9,4-3.9c0.4,0,0.7,0.1,0.9,0.4c0.3,0.3,0.4,0.6,0.4,1
	c0,0.5-0.2,1.2-0.7,2.1c-0.4,0.9-1.2,2.2-2.2,3.9c-1.4,2.4-2.5,4.4-3.3,6c3.7,0,6.6-0.1,8.8-0.3v1.6c-3.8,0.4-7,0.6-9.6,0.6
	c-1.7,3.9-2.5,7.2-2.5,9.6c0,1.3,0.2,2.2,0.6,2.8s1.1,0.8,2,0.8c1.6,0,3.2-0.7,4.9-2.2c1.7-1.5,3.2-3.5,4.4-6l0.7,0.5
	c-1.3,3-3,5.4-5.1,7.3C77.7,150.3,75.5,151.2,73.3,151.2z M88.3,151.1c-2,0-3.6-0.5-4.7-1.6c-1.1-1.1-1.7-2.5-1.7-4.2
	c0-1.9,0.6-3.9,1.9-6c1.2-2.2,2.8-4,4.8-5.4c2-1.5,3.9-2.2,5.8-2.2c1,0,1.8,0.3,2.5,0.8c0.7,0.5,1,1.3,1,2.4c0,1.5-0.6,3-1.8,4.4
	c-1.2,1.3-2.7,2.4-4.6,3.3c-1.9,0.9-3.8,1.4-5.7,1.6c-0.1,0.3-0.1,0.7-0.1,1.1c0,0.8,0.2,1.7,0.7,2.5c0.5,0.8,1.5,1.2,3,1.2
	c2,0,3.9-0.8,6-2.4c2-1.6,3.7-3.6,4.9-6l1,0.8c-1.3,2.9-3.1,5.2-5.5,7C93.3,150.2,90.9,151.1,88.3,151.1z M86.3,142.4
	c1.2-0.1,2.4-0.6,3.8-1.4c1.4-0.8,2.7-1.8,3.6-2.9c1-1.2,1.5-2.3,1.5-3.5c0-0.4-0.1-0.6-0.2-0.7c-0.1-0.1-0.3-0.2-0.6-0.2
	c-0.9,0-2,0.4-3.1,1.3c-1.1,0.9-2.1,2-3,3.3C87.4,139.7,86.7,141.1,86.3,142.4z M108,150.2c-1.2,0-2.1-0.3-2.9-1
	c-0.7-0.6-1.1-1.4-1.1-2.5c0-0.6,0.1-1.3,0.3-2c0.3-0.7,0.6-1.6,1.1-2.6c0.4-0.9,0.7-1.6,1-2.3c0.2-0.6,0.3-1.2,0.3-1.7
	c0-1.2-0.8-2.2-2.4-3.1c-0.6,1.6-1.4,3.2-2.3,4.8c-0.8,1.6-1.6,3-2.3,4.1l-0.7-1.4c1.5-2.6,2.8-5.5,3.9-8.7
	c-0.3-0.3-0.5-0.8-0.5-1.3c0-0.8,0.3-1.6,0.8-2.4c0.5-0.7,1-1.1,1.5-1.1c0.3,0,0.6,0.2,0.8,0.6c0.2,0.4,0.3,0.7,0.3,1
	c0,0.1-0.1,0.4-0.2,0.9c-0.1,0.4-0.2,0.7-0.3,0.9c0,0.2,0.2,0.4,0.4,0.7c0.2,0.2,0.6,0.5,1.2,0.9c1.1,0.7,2,1.5,2.6,2.2
	c0.6,0.7,1,1.6,1,2.7c0,0.7-0.1,1.4-0.4,2.1c-0.2,0.7-0.6,1.6-1.1,2.5c-0.7,1.4-1.1,2.4-1.1,3c0,0.7,0.4,1.1,1.2,1.1
	c1,0,2-0.4,3.1-1.2c1.2-0.8,2.2-1.7,3.1-2.8c1-1.1,1.7-2.2,2.1-3.1l1.2,0.9c-0.6,1.4-1.5,2.8-2.7,4.1c-1.2,1.3-2.4,2.4-3.9,3.2
	C110.7,149.8,109.3,150.2,108,150.2z M126,128.8c-0.7,0-1.2-0.2-1.7-0.5c-0.4-0.3-0.7-0.8-0.7-1.4c0-0.7,0.4-1.4,1.2-1.9
	c0.8-0.6,1.7-0.9,2.6-0.9c1.4,0,2.1,0.6,2.1,1.8c0,0.7-0.4,1.3-1.1,2C127.7,128.5,126.9,128.8,126,128.8z M120.4,150.4
	c-1.3,0-2.4-0.4-3.1-1.2c-0.7-0.8-1.1-1.8-1.1-3.1c0-1.3,0.4-3,1.1-5.2c0.7-2.2,1.6-4.1,2.7-5.8c1.1-1.7,2.2-2.5,3.4-2.5
	c0.4,0,0.8,0.1,1,0.4c0.3,0.2,0.4,0.6,0.4,1c0,0.3-0.1,0.7-0.4,1.2c-0.3,0.5-0.7,1.2-1.2,2.1c-1,1.7-1.8,3.2-2.4,4.5
	c-0.6,1.3-0.9,2.5-0.9,3.6c0,1,0.2,1.7,0.5,2c0.4,0.4,0.9,0.5,1.6,0.5c2.5,0,5-2.4,7.5-7.3l0.7,0.8c-1.1,2.8-2.5,5-4.3,6.6
	C124.2,149.7,122.4,150.4,120.4,150.4z M132,150.5c-1.4,0-2.5-0.4-3.2-1.3c-0.7-0.8-1.1-1.9-1.1-3.3c0-1.3,0.3-2.7,0.8-4.1
	c0.6-1.4,1.3-2.6,2.2-3.6c0.9-1,1.8-1.5,2.8-1.5c0.3,0,0.8,0.1,1.4,0.4c0.2-1.5,0.7-2.7,1.6-3.6s2-1.4,3.4-1.4
	c2.5,0,3.8,1.3,3.8,3.9c0,1.2-0.3,2.5-0.8,3.9c-0.5,1.4-1.2,2.8-2.2,4.2c0.6,0.2,1,0.3,1.4,0.3c1.5,0,2.8-0.5,3.9-1.5
	s1.9-2.2,2.5-3.6c0.6-1.4,1.3-3.1,1.9-5c-0.3-0.4-0.4-0.8-0.4-1.2c0-0.6,0.1-1.2,0.4-1.8c0.3-0.5,0.6-1,1-1.3c0.4-0.3,0.7-0.5,1-0.5
	c0.7,0,1.1,0.5,1.1,1.5c0,0.1-0.1,0.4-0.3,0.9c-0.2,0.4-0.2,0.7-0.2,0.8c0,0.2,0.1,0.4,0.3,0.6c0.3,0.2,0.7,0.5,1.2,0.9
	c1.1,0.7,2,1.4,2.6,2.2c0.7,0.7,1,1.6,1,2.8c0,0.7-0.1,1.4-0.4,2.2c-0.2,0.7-0.5,1.6-1,2.5c-0.6,1.4-1,2.4-1,3
	c0,0.4,0.1,0.8,0.3,0.9c0.2,0.2,0.5,0.2,0.9,0.2c0.9,0,1.9-0.4,3-1.2c1.1-0.8,2.1-1.7,3.1-2.8c0.9-1.1,1.6-2.2,2-3.1l1,0.7
	c-1.1,2.3-2.6,4.4-4.5,6.1c-1.9,1.8-3.8,2.6-5.8,2.6c-1.2,0-2.2-0.3-2.9-1c-0.7-0.6-1.1-1.4-1.1-2.4c0-0.6,0.1-1.3,0.3-2
	c0.2-0.7,0.6-1.6,1-2.6c0.4-1,0.7-1.7,0.9-2.3c0.2-0.6,0.3-1.1,0.3-1.6c0-1.3-0.8-2.4-2.5-3.3c-0.8,2.3-1.5,4.1-2.2,5.6
	c-0.7,1.4-1.6,2.7-2.9,3.8c-1.2,1.1-2.8,1.6-4.7,1.6c-0.8,0-1.6-0.1-2.3-0.4c-1.2,1.4-2.4,2.6-3.7,3.5
	C134.5,150.1,133.3,150.5,132,150.5z M139.3,142.9c0.7-1.1,1.3-2.2,1.7-3.4c0.4-1.2,0.6-2.2,0.6-3.3c0-0.7-0.1-1.2-0.4-1.6
	c-0.3-0.4-0.5-0.6-0.9-0.6c-0.7,0-1.3,0.4-1.9,1.2c-0.6,0.8-0.9,1.8-0.9,3c0,0.7,0.2,1.5,0.5,2.4
	C138.4,141.5,138.8,142.2,139.3,142.9z M133,148.1c0.6,0,1.3-0.3,2.2-1c0.9-0.7,1.7-1.5,2.6-2.5c-1.9-1.5-2.9-3.9-2.9-7.1
	c-0.7,0.8-1.5,2.1-2.3,3.9c-0.8,1.8-1.2,3.2-1.2,4.2c0,0.8,0.1,1.5,0.4,1.9C132.1,147.9,132.5,148.1,133,148.1z"/>
<path class="st3" d="M39.5,164.2c0.9,0,1.7,0.1,2.4,0.4c0.7,0.3,1.3,0.7,1.9,1.4c0.5,0.6,0.9,1.5,1.2,2.6c0.3,1.1,0.4,2.4,0.4,4
	c0,1.6-0.1,3-0.4,4c-0.3,1.1-0.7,1.9-1.2,2.6c-0.5,0.6-1.1,1.1-1.9,1.4c-0.7,0.3-1.5,0.4-2.4,0.4h-3.8c0-0.7,0.1-1.4,0.1-2.1
	c0-0.7,0.1-1.5,0.1-2.2c0-0.7,0-1.4,0-2.1s0-1.4,0-2c0-0.6,0-1.3,0-2c0-0.7,0-1.4,0-2.1c0-0.7,0-1.4-0.1-2.2c0-0.7-0.1-1.4-0.1-2.1
	H39.5z M37.9,165.6c-0.1,1.2-0.1,2.4-0.1,3.6c0,1.2,0,2.3,0,3.4c0,1,0,2.2,0,3.4c0,1.2,0.1,2.4,0.1,3.6h1.6c0.3,0,0.7,0,1-0.1
	c0.3-0.1,0.6-0.2,0.9-0.4c0.3-0.2,0.5-0.5,0.8-0.8c0.2-0.3,0.4-0.8,0.6-1.3c0.2-0.5,0.3-1.1,0.4-1.9c0.1-0.7,0.1-1.6,0.1-2.5
	c0-1,0-1.8-0.1-2.5c-0.1-0.7-0.2-1.3-0.4-1.9c-0.2-0.5-0.3-0.9-0.6-1.3c-0.2-0.3-0.5-0.6-0.8-0.8c-0.3-0.2-0.6-0.3-0.9-0.4
	c-0.3-0.1-0.7-0.1-1-0.1H37.9z M54.6,164.2v1.4h-4.9c0,0.9-0.1,1.9-0.1,2.8c0,0.9,0,1.8,0,2.7h4.7v1.4h-4.7c0,1,0,2.2,0,3.4
	c0,1.2,0.1,2.4,0.1,3.6h4.9v1.4h-7.2c0-0.7,0.1-1.4,0.1-2.1c0-0.7,0.1-1.5,0.1-2.2c0-0.7,0-1.4,0-2.1c0-0.7,0-1.4,0-2
	c0-0.6,0-1.3,0-2c0-0.7,0-1.4,0-2.1c0-0.7,0-1.4-0.1-2.2c0-0.7-0.1-1.4-0.1-2.1H54.6z M59.6,179.9c0.3,0,0.6,0,1-0.1
	c0.3-0.1,0.6-0.3,0.8-0.5c0.2-0.2,0.4-0.5,0.6-0.9c0.1-0.4,0.2-0.8,0.2-1.3c0-0.4-0.1-0.8-0.3-1.2c-0.2-0.4-0.4-0.7-0.7-1.1
	c-0.3-0.3-0.6-0.7-1-1c-0.4-0.3-0.7-0.7-1.1-1c-0.4-0.3-0.8-0.7-1.1-1c-0.4-0.4-0.7-0.7-1-1.1c-0.3-0.4-0.5-0.8-0.7-1.3
	c-0.2-0.4-0.3-0.9-0.3-1.5c0-0.8,0.1-1.4,0.4-2c0.3-0.5,0.6-1,1.1-1.3c0.4-0.3,0.9-0.6,1.5-0.7c0.5-0.1,1.1-0.2,1.6-0.2
	c0.5,0,1,0,1.5,0.1c0.5,0.1,1,0.2,1.4,0.3v2.4c-0.3-0.2-0.5-0.4-0.7-0.6c-0.2-0.2-0.5-0.3-0.7-0.5c-0.2-0.1-0.5-0.2-0.7-0.3
	c-0.2-0.1-0.5-0.1-0.8-0.1c-0.3,0-0.7,0-1,0.1c-0.3,0.1-0.6,0.2-0.8,0.4c-0.2,0.2-0.4,0.4-0.5,0.7c-0.1,0.3-0.2,0.7-0.2,1.1
	c0,0.6,0.2,1.1,0.5,1.6c0.3,0.5,0.7,0.9,1.1,1.4c0.5,0.4,0.9,0.9,1.5,1.3c0.5,0.4,1,0.9,1.5,1.4c0.5,0.5,0.8,1,1.1,1.6
	c0.3,0.6,0.5,1.3,0.5,2c0,0.6-0.1,1.1-0.2,1.5c-0.1,0.4-0.3,0.8-0.5,1.1c-0.2,0.3-0.5,0.6-0.8,0.8c-0.3,0.2-0.6,0.4-0.9,0.5
	c-0.3,0.1-0.7,0.2-1,0.3c-0.4,0.1-0.7,0.1-1,0.1c-0.4,0-0.8,0-1.1,0c-0.3,0-0.6-0.1-0.9-0.1c-0.3,0-0.6-0.1-0.8-0.2
	c-0.2-0.1-0.5-0.2-0.7-0.2v-2.5c0.3,0.2,0.5,0.5,0.8,0.7c0.3,0.2,0.5,0.4,0.8,0.5c0.3,0.2,0.6,0.3,0.9,0.4
	C59,179.9,59.3,179.9,59.6,179.9z M68.5,164.2c0,0.7-0.1,1.4-0.1,2.1c0,0.7,0,1.4-0.1,2.2c0,0.7,0,1.4,0,2.1c0,0.7,0,1.4,0,2
	c0,0.6,0,1.3,0,2c0,0.7,0,1.4,0,2.1c0,0.7,0,1.4,0.1,2.2c0,0.7,0.1,1.4,0.1,2.1h-2.3c0-0.7,0.1-1.4,0.1-2.1c0-0.7,0.1-1.5,0.1-2.2
	c0-0.7,0-1.4,0-2.1s0-1.4,0-2c0-0.6,0-1.3,0-2c0-0.7,0-1.4,0-2.1c0-0.7,0-1.4-0.1-2.2c0-0.7-0.1-1.4-0.1-2.1H68.5z M75.9,172.7h4.4
	c0,0.7-0.1,1.3-0.1,2c0,0.6,0,1.3,0,1.8c0,0.6,0,1.1,0,1.6c0,0.5,0,0.9,0,1.2c0,0.4,0,0.8,0,1.1c-0.4,0.2-0.9,0.4-1.5,0.5
	c-0.6,0.1-1.3,0.2-2.2,0.2c-0.8,0-1.6-0.2-2.4-0.5c-0.7-0.3-1.4-0.9-1.9-1.6c-0.5-0.7-1-1.6-1.3-2.7c-0.3-1.1-0.5-2.4-0.5-3.8
	c0-1.5,0.2-2.8,0.5-3.8c0.3-1.1,0.8-2,1.3-2.7c0.6-0.7,1.2-1.2,1.9-1.6c0.7-0.4,1.5-0.5,2.4-0.5c0.3,0,0.7,0,0.9,0
	c0.3,0,0.5,0.1,0.8,0.1c0.2,0,0.5,0.1,0.7,0.2c0.2,0.1,0.4,0.2,0.6,0.2v2.5c-0.5-0.6-1-1-1.5-1.2c-0.5-0.2-1-0.4-1.5-0.4
	c-0.6,0-1.2,0.2-1.7,0.5c-0.5,0.3-0.9,0.8-1.2,1.5c-0.3,0.6-0.6,1.4-0.8,2.3c-0.2,0.9-0.3,1.9-0.3,2.9c0,1,0.1,2,0.2,2.9
	c0.2,0.9,0.4,1.6,0.7,2.3c0.3,0.6,0.7,1.1,1.2,1.5c0.5,0.4,1.1,0.6,1.7,0.6c0.3,0,0.5,0,0.7-0.1c0.2,0,0.4-0.1,0.6-0.2
	c0-0.2,0-0.4,0-0.6c0-0.2,0-0.4,0-0.7c0-0.3,0-0.6,0-1c0-0.4,0-0.9,0-1.4c0-0.5,0-1.1-0.1-1.6h-2.2V172.7z M91.8,164.2
	c0,0.7-0.1,1.4-0.1,2.1c0,0.7,0,1.4-0.1,2.2c0,0.7,0,1.4,0,2.1c0,0.7,0,1.4,0,2c0,0.6,0,1.3,0,2c0,0.7,0,1.4,0,2.1
	c0,0.7,0,1.4,0.1,2.2c0,0.7,0.1,1.4,0.1,2.1h-2.3c-0.4-1.2-0.8-2.3-1.2-3.4c-0.4-1.1-0.8-2.1-1.2-3.1c-0.4-1-0.8-2-1.2-3
	c-0.4-1-0.8-1.9-1.2-2.9h-0.1c0,0.7,0,1.4,0,2.1c0,0.7,0,1.3,0,1.9c0,0.6,0,1.3,0,2c0,0.7,0,1.4,0,2.1c0,0.7,0,1.4,0.1,2.2
	c0,0.7,0.1,1.4,0.1,2.1h-2.2c0-0.7,0.1-1.4,0.1-2.1c0-0.7,0.1-1.5,0.1-2.2c0-0.7,0-1.4,0-2.1c0-0.7,0-1.4,0-2c0-0.6,0-1.3,0-2
	c0-0.7,0-1.4,0-2.1c0-0.7,0-1.4-0.1-2.2c0-0.7-0.1-1.4-0.1-2.1h2.3c0.8,2.4,1.6,4.7,2.4,6.8c0.8,2.1,1.6,4.1,2.4,6h0.1
	c0-0.4,0-0.7,0-1.1c0-0.4,0-0.8,0-1.2c0-0.4,0-0.8,0-1.1c0-0.4,0-0.7,0-1c0-0.6,0-1.3,0-2c0-0.7,0-1.4,0-2.1c0-0.7,0-1.4-0.1-2.2
	c0-0.7-0.1-1.4-0.1-2.1H91.8z M102.9,164.2c0.9,0,1.7,0.1,2.4,0.4c0.7,0.3,1.3,0.7,1.9,1.4c0.5,0.6,0.9,1.5,1.2,2.6
	c0.3,1.1,0.4,2.4,0.4,4c0,1.6-0.1,3-0.4,4c-0.3,1.1-0.7,1.9-1.2,2.6c-0.5,0.6-1.1,1.1-1.9,1.4c-0.7,0.3-1.5,0.4-2.4,0.4h-3.8
	c0-0.7,0.1-1.4,0.1-2.1c0-0.7,0.1-1.5,0.1-2.2c0-0.7,0-1.4,0-2.1c0-0.7,0-1.4,0-2c0-0.6,0-1.3,0-2c0-0.7,0-1.4,0-2.1
	c0-0.7,0-1.4-0.1-2.2c0-0.7-0.1-1.4-0.1-2.1H102.9z M101.3,165.6c-0.1,1.2-0.1,2.4-0.1,3.6c0,1.2,0,2.3,0,3.4c0,1,0,2.2,0,3.4
	c0,1.2,0.1,2.4,0.1,3.6h1.6c0.3,0,0.7,0,1-0.1c0.3-0.1,0.6-0.2,0.9-0.4c0.3-0.2,0.5-0.5,0.8-0.8c0.2-0.3,0.4-0.8,0.6-1.3
	c0.2-0.5,0.3-1.1,0.4-1.9c0.1-0.7,0.1-1.6,0.1-2.5c0-1,0-1.8-0.1-2.5c-0.1-0.7-0.2-1.3-0.4-1.9c-0.2-0.5-0.3-0.9-0.6-1.3
	c-0.2-0.3-0.5-0.6-0.8-0.8c-0.3-0.2-0.6-0.3-0.9-0.4c-0.3-0.1-0.7-0.1-1-0.1H101.3z M121.1,172.6c0,1.5-0.1,2.8-0.4,3.9
	c-0.3,1.1-0.6,2-1.1,2.7c-0.5,0.7-1,1.2-1.7,1.6s-1.3,0.5-2.1,0.5c-0.7,0-1.4-0.2-2.1-0.5c-0.6-0.3-1.2-0.9-1.7-1.6
	c-0.5-0.7-0.8-1.6-1.1-2.7c-0.3-1.1-0.4-2.4-0.4-3.9c0-1.5,0.1-2.8,0.4-3.9c0.3-1.1,0.7-2,1.1-2.7c0.5-0.7,1-1.2,1.7-1.6
	c0.6-0.3,1.3-0.5,2.1-0.5c0.7,0,1.4,0.2,2.1,0.5s1.2,0.9,1.7,1.6c0.5,0.7,0.9,1.6,1.1,2.7C120.9,169.8,121.1,171.1,121.1,172.6z
	 M119,172.6c0-1.3-0.1-2.3-0.2-3.2c-0.2-0.9-0.4-1.7-0.7-2.2c-0.3-0.6-0.6-1-1-1.3c-0.4-0.3-0.8-0.4-1.2-0.4c-0.5,0-0.9,0.1-1.3,0.4
	c-0.4,0.3-0.7,0.7-1,1.3c-0.3,0.6-0.5,1.3-0.7,2.2c-0.2,0.9-0.2,2-0.2,3.2c0,1.3,0.1,2.3,0.2,3.3c0.2,0.9,0.4,1.7,0.7,2.2
	c0.3,0.6,0.6,1,1,1.3c0.4,0.3,0.8,0.4,1.3,0.4c0.4,0,0.9-0.1,1.2-0.4c0.4-0.3,0.7-0.7,1-1.3c0.3-0.6,0.5-1.3,0.7-2.2
	C118.9,175,119,173.9,119,172.6z M124.9,172.6c0,1.2,0.1,2.2,0.3,3.1c0.2,0.9,0.5,1.6,0.8,2.3c0.3,0.6,0.8,1.1,1.2,1.4
	c0.5,0.3,1,0.5,1.6,0.5c0.4,0,0.7,0,1-0.1c0.3-0.1,0.5-0.2,0.7-0.3c0.2-0.1,0.4-0.3,0.6-0.5c0.2-0.2,0.4-0.3,0.6-0.5v2.5
	c-0.5,0.1-0.9,0.2-1.4,0.3c-0.5,0.1-1,0.1-1.5,0.1c-0.9,0-1.7-0.2-2.4-0.5c-0.7-0.3-1.4-0.9-1.9-1.6c-0.5-0.7-1-1.6-1.3-2.7
	c-0.3-1.1-0.5-2.4-0.5-3.8c0-1.5,0.2-2.8,0.5-3.8c0.3-1.1,0.8-2,1.3-2.7c0.6-0.7,1.2-1.2,1.9-1.6c0.7-0.4,1.5-0.5,2.4-0.5
	c0.6,0,1.1,0,1.5,0.1c0.5,0.1,0.9,0.2,1.4,0.3v2.5c-0.2-0.2-0.4-0.3-0.6-0.5c-0.2-0.2-0.4-0.3-0.6-0.5c-0.2-0.1-0.5-0.3-0.7-0.3
	c-0.3-0.1-0.6-0.1-1-0.1c-0.6,0-1.1,0.2-1.6,0.5c-0.5,0.3-0.9,0.8-1.2,1.4c-0.3,0.6-0.6,1.4-0.8,2.3
	C124.9,170.4,124.9,171.5,124.9,172.6z M132.5,164.2h8.4v1.4h-3.1c-0.1,1.2-0.1,2.4-0.1,3.6c0,1.2,0,2.3,0,3.4c0,0.6,0,1.3,0,2
	c0,0.7,0,1.4,0,2.1c0,0.7,0,1.4,0.1,2.2c0,0.7,0.1,1.4,0.1,2.1h-2.3c0-0.7,0.1-1.4,0.1-2.1c0-0.7,0.1-1.5,0.1-2.2c0-0.7,0-1.4,0-2.1
	s0-1.4,0-2c0-1,0-2.2,0-3.4c0-1.2-0.1-2.4-0.1-3.6h-3.1V164.2z M151.8,172.6c0,1.5-0.1,2.8-0.4,3.9c-0.3,1.1-0.6,2-1.1,2.7
	c-0.5,0.7-1,1.2-1.7,1.6c-0.6,0.3-1.3,0.5-2.1,0.5c-0.7,0-1.4-0.2-2.1-0.5c-0.6-0.3-1.2-0.9-1.7-1.6c-0.5-0.7-0.8-1.6-1.1-2.7
	c-0.3-1.1-0.4-2.4-0.4-3.9c0-1.5,0.1-2.8,0.4-3.9c0.3-1.1,0.7-2,1.1-2.7c0.5-0.7,1-1.2,1.7-1.6c0.6-0.3,1.3-0.5,2.1-0.5
	c0.7,0,1.4,0.2,2.1,0.5c0.6,0.3,1.2,0.9,1.7,1.6c0.5,0.7,0.9,1.6,1.1,2.7C151.7,169.8,151.8,171.1,151.8,172.6z M149.7,172.6
	c0-1.3-0.1-2.3-0.2-3.2c-0.2-0.9-0.4-1.7-0.7-2.2c-0.3-0.6-0.6-1-1-1.3c-0.4-0.3-0.8-0.4-1.2-0.4c-0.5,0-0.9,0.1-1.3,0.4
	c-0.4,0.3-0.7,0.7-1,1.3c-0.3,0.6-0.5,1.3-0.7,2.2c-0.2,0.9-0.2,2-0.2,3.2c0,1.3,0.1,2.3,0.2,3.3c0.2,0.9,0.4,1.7,0.7,2.2
	c0.3,0.6,0.6,1,1,1.3c0.4,0.3,0.8,0.4,1.3,0.4c0.4,0,0.9-0.1,1.2-0.4c0.4-0.3,0.7-0.7,1-1.3s0.5-1.3,0.7-2.2
	C149.7,175,149.7,173.9,149.7,172.6z M157.9,164.2c1.4,0,2.4,0.4,3.2,1.2c0.8,0.8,1.1,2,1.1,3.7c0,1.1-0.2,1.9-0.6,2.6
	c-0.4,0.7-0.9,1.2-1.6,1.6c0.2,0.7,0.4,1.5,0.7,2.3c0.2,0.7,0.5,1.5,0.9,2.5c0.4,0.9,0.8,1.9,1.3,3h-2.6c-0.4-1.2-0.7-2.3-0.9-3.2
	c-0.2-0.9-0.4-1.7-0.6-2.3c-0.2-0.7-0.3-1.3-0.4-1.8H156c0,0.6,0,1.2,0,1.8c0,0.6,0,1.2,0,1.8c0,0.6,0,1.2,0.1,1.8
	c0,0.6,0.1,1.2,0.1,1.8h-2.3c0-0.7,0.1-1.4,0.1-2.1c0-0.7,0.1-1.5,0.1-2.2c0-0.7,0-1.4,0-2.1c0-0.7,0-1.4,0-2c0-0.6,0-1.3,0-2
	c0-0.7,0-1.4,0-2.1c0-0.7,0-1.4-0.1-2.2c0-0.7-0.1-1.4-0.1-2.1H157.9z M156.1,165.6c-0.1,1.2-0.1,2.3-0.1,3.5c0,1.2,0,2.3,0,3.3h1.8
	c0.4,0,0.7-0.1,1-0.2c0.3-0.1,0.5-0.3,0.7-0.6c0.2-0.3,0.4-0.6,0.5-1c0.1-0.4,0.2-0.9,0.2-1.5c0-1.2-0.2-2.1-0.6-2.7
	c-0.4-0.6-1-0.8-1.7-0.8H156.1z"/>
</svg>
