<svg width="574" height="574" viewBox="0 0 574 574" fill="none" xmlns="http://www.w3.org/2000/svg">
<rect x="5" y="5" width="564" height="564" stroke="#CF9F7F" stroke-width="10"/>
<path d="M287 411.031L392.249 456.639L498 411.031V234.613L392.249 284.732L287 234.613V411.031Z" fill="#FFBD8A"/>
<path d="M357.166 364.182C364.833 383.187 371.526 399.06 379.706 413.102C387.887 427.143 381.886 442.837 368.5 446.5L392.249 456.639L404.5 451.5C404.5 451.5 418.849 418.402 422.096 408.662C433.369 374.842 422.096 350.969 422.096 300.77C417.138 325.19 408.768 365.304 390.632 371.508C384.168 373.719 377.475 374.899 357.166 364.182Z" fill="white"/>
<circle cx="384.889" cy="346.474" r="17.2328" fill="white"/>
<path d="M301.747 226.672L392.5 285.661L483.253 226.672" stroke="#FFBD8A" stroke-width="3"/>
<path d="M322.167 221L392.5 285.661L462.833 221" stroke="#FFBD8A" stroke-width="3"/>
<path d="M254.267 408.564C254.267 420.515 256.857 429.219 262.036 434.675C267.216 440.132 276.204 442.86 289 442.86V455.331C280.5 455.331 268.945 455.331 259.5 455.331C240.305 455.331 229.5 455.331 213.136 455.331V420.645C207.651 432.337 199.425 441.301 188.457 447.536C177.488 453.512 164.083 456.5 148.239 456.5C118.99 456.5 95.9873 447.536 79.2301 429.609C62.7776 411.682 54.7036 385.44 55.0083 350.885C55.0083 328.281 59.5785 309.054 68.7188 293.206C78.1637 277.097 90.6555 265.015 106.194 256.961C122.037 248.907 139.404 244.88 158.294 244.88C169.871 244.88 180.383 246.828 189.828 250.726C199.577 254.363 207.347 260.079 213.136 267.873V192.267C213.136 180.315 213.136 174.5 213.136 167.5C213.136 160.5 213.136 139 213.136 128V118C223 118 215.86 118 225 118C225 118 243 118 254.267 118V408.564ZM161.493 444.808C173.375 444.808 184.039 440.911 193.484 433.117C202.929 425.322 209.479 414.28 213.136 399.99V283.852C204.909 263.846 187.847 253.843 161.95 253.843C143.06 253.843 127.826 262.157 116.248 278.786C104.671 295.154 99.0341 319.187 99.3388 350.885C99.0341 382.063 104.214 405.576 114.877 421.425C125.541 437.014 141.079 444.808 161.493 444.808Z" fill="#FFBD8A"/>
<path d="M213.136 118L518 118V128H356.318H213.136V118Z" fill="#FFBD8A"/>
</svg>
