<svg width="297" height="41" viewBox="0 0 297 41" fill="none" xmlns="http://www.w3.org/2000/svg">
<path fill-rule="evenodd" clip-rule="evenodd" d="M8.352 2H0V31H8.352V2Z" fill="#007D8C"/>
<path fill-rule="evenodd" clip-rule="evenodd" d="M8.35205 10.3521V31.0001L29.0001 31.0001L8.35205 10.3521Z" fill="#CA3F3F"/>
<path fill-rule="evenodd" clip-rule="evenodd" d="M8.35205 10.3521V31.0001L29.0001 31.0001L8.35205 10.3521Z" fill="#3A3F47"/>
<path fill-rule="evenodd" clip-rule="evenodd" d="M29 31L29 10.352L8.352 10.352L29 31Z" fill="#FBFFCA"/>
<path fill-rule="evenodd" clip-rule="evenodd" d="M29.0001 2.00134L8.35205 10.3521L29.0001 10.3521V2.00134Z" fill="#005752"/>
<path fill-rule="evenodd" clip-rule="evenodd" d="M8.352 10.3507L29 1.99998L8.352 1.99998V10.3507Z" fill="#FFE68C"/>
<path d="M43.9594 14.52L44.5994 13.6L55.5594 1.88H61.5594L49.5194 14.6L61.9994 31H56.0794L46.1194 17.56L44.0794 19.56V31H39.3594V1.88H44.0794V13.04L43.9594 14.52ZM81.8975 24.16H71.2975L68.4975 31H63.8975L76.7775 0.679999H77.0575L89.9375 31H84.5775L81.8975 24.16ZM80.3375 20.16L76.6975 10.96L72.9375 20.16H80.3375ZM110.826 31L104.266 20.88H103.786H99.5863V31H94.9063V1.88H103.106C106.36 1.88 108.96 2.70667 110.906 4.36C112.88 6.01333 113.866 8.30667 113.866 11.24C113.866 13.0267 113.48 14.6933 112.706 16.24C111.96 17.76 110.773 18.9333 109.146 19.76L116.226 31H110.826ZM99.5863 16.4H103.746C105.613 16.4 106.96 15.8933 107.786 14.88C108.64 13.84 109.066 12.68 109.066 11.4C109.066 10.6533 108.906 9.90667 108.586 9.16C108.266 8.38667 107.72 7.73333 106.946 7.2C106.173 6.64 105.16 6.36 103.906 6.36H99.5863V16.4ZM141.023 1.88V6.36H126.383V14.12H139.423V18.6H126.383V26.52H141.583V31H121.703V1.88H141.023ZM173.751 1.88V32.04H173.631L152.631 11.68L152.751 31H148.031V0.879999H148.271L169.191 21.48L169.111 1.88H173.751ZM216.194 28.72C215.34 29.3333 214.154 29.92 212.634 30.48C211.14 31.04 209.5 31.32 207.714 31.32C204.7 31.32 202.06 30.6667 199.794 29.36C197.554 28.0267 195.82 26.2533 194.594 24.04C193.394 21.8 192.794 19.3467 192.794 16.68C192.794 13.7733 193.394 11.1733 194.594 8.88C195.82 6.58666 197.514 4.8 199.674 3.52C201.86 2.21333 204.34 1.56 207.114 1.56C208.82 1.56 210.394 1.78666 211.834 2.24C213.3 2.69333 214.594 3.26667 215.714 3.96L213.874 8.32C211.714 6.8 209.514 6.04 207.274 6.04C205.567 6.04 203.967 6.50667 202.474 7.44C201.007 8.34667 199.834 9.6 198.954 11.2C198.074 12.7733 197.634 14.5067 197.634 16.4C197.634 18.4 198.034 20.2 198.834 21.8C199.66 23.3733 200.82 24.6133 202.314 25.52C203.834 26.4 205.58 26.84 207.554 26.84C208.967 26.84 210.234 26.6267 211.354 26.2C212.5 25.7733 213.46 25.2267 214.234 24.56L216.194 28.72ZM246.086 31H241.406V18.6H227.086V31H222.406V1.88H227.086V14.16H241.406V1.88H246.086V31ZM252.286 16.48C252.286 13.8133 252.953 11.3467 254.286 9.08C255.619 6.78667 257.419 4.96 259.686 3.6C261.979 2.24 264.473 1.56 267.166 1.56C269.833 1.56 272.299 2.24 274.566 3.6C276.859 4.96 278.686 6.78667 280.046 9.08C281.406 11.3733 282.086 13.84 282.086 16.48C282.086 19.1733 281.406 21.6533 280.046 23.92C278.713 26.1867 276.899 27.9867 274.606 29.32C272.313 30.6533 269.833 31.32 267.166 31.32C264.473 31.32 261.979 30.6667 259.686 29.36C257.419 28.0267 255.619 26.2267 254.286 23.96C252.953 21.6933 252.286 19.2 252.286 16.48ZM257.086 16.48C257.086 18.3733 257.539 20.1067 258.446 21.68C259.353 23.2533 260.579 24.5067 262.126 25.44C263.699 26.3733 265.419 26.84 267.286 26.84C269.126 26.84 270.806 26.3867 272.326 25.48C273.846 24.5467 275.046 23.2933 275.926 21.72C276.833 20.12 277.286 18.3733 277.286 16.48C277.286 14.5867 276.833 12.84 275.926 11.24C275.019 9.64 273.793 8.37333 272.246 7.44C270.699 6.50667 269.006 6.04 267.166 6.04C265.299 6.04 263.593 6.50667 262.046 7.44C260.526 8.37333 259.313 9.64 258.406 11.24C257.526 12.84 257.086 14.5867 257.086 16.48ZM292.985 1.88V31H288.305V1.88H292.985Z" fill="#89E3EF"/>
</svg>
