<svg width="295" height="52" viewBox="0 0 295 52" fill="none" xmlns="http://www.w3.org/2000/svg">
<line x1="7.85205" y1="36" x2="7.85205" y2="7" stroke="black"/>
<path fill-rule="evenodd" clip-rule="evenodd" d="M8.352 7H0V35.8842H8.352V7Z" fill="#007D8C"/>
<path fill-rule="evenodd" clip-rule="evenodd" d="M8.35205 15.3187V35.8843L29.0001 35.8843L8.35205 15.3187Z" fill="#CA3F3F"/>
<path fill-rule="evenodd" clip-rule="evenodd" d="M8.35205 15.3187V35.8843L29.0001 35.8843L8.35205 15.3187Z" fill="#3A3F47"/>
<path fill-rule="evenodd" clip-rule="evenodd" d="M29 35.8843L29 15.3187L8.352 15.3187L29 35.8843Z" fill="#FFE68C"/>
<path fill-rule="evenodd" clip-rule="evenodd" d="M29.0001 7.00134L8.35205 15.3187L29.0001 15.3187V7.00134Z" fill="#005752"/>
<path fill-rule="evenodd" clip-rule="evenodd" d="M8.352 15.3174L29 7L8.352 6.99999V15.3174Z" fill="#FFC040"/>
<path d="M41.7797 19.52L42.4197 18.6L53.3797 6.88H59.3797L47.3397 19.6L59.8197 36H53.8997L43.9397 22.56L41.8997 24.56V36H37.1797V6.88H41.8997V18.04L41.7797 19.52ZM79.7178 29.16H69.1178L66.3178 36H61.7178L74.5978 5.68H74.8778L87.7578 36H82.3978L79.7178 29.16ZM78.1578 25.16L74.5178 15.96L70.7578 25.16H78.1578ZM108.647 36L102.087 25.88H101.607H97.4066V36H92.7266V6.88H100.927C104.18 6.88 106.78 7.70667 108.727 9.36C110.7 11.0133 111.687 13.3067 111.687 16.24C111.687 18.0267 111.3 19.6933 110.527 21.24C109.78 22.76 108.593 23.9333 106.967 24.76L114.047 36H108.647ZM97.4066 21.4H101.567C103.433 21.4 104.78 20.8933 105.607 19.88C106.46 18.84 106.887 17.68 106.887 16.4C106.887 15.6533 106.727 14.9067 106.407 14.16C106.087 13.3867 105.54 12.7333 104.767 12.2C103.993 11.64 102.98 11.36 101.727 11.36H97.4066V21.4ZM138.843 6.88V11.36H124.203V19.12H137.243V23.6H124.203V31.52H139.403V36H119.523V6.88H138.843ZM171.572 6.88V37.04H171.452L150.452 16.68L150.572 36H145.852V5.88H146.092L167.012 26.48L166.932 6.88H171.572ZM214.014 33.72C213.161 34.3333 211.974 34.92 210.454 35.48C208.961 36.04 207.321 36.32 205.534 36.32C202.521 36.32 199.881 35.6667 197.614 34.36C195.374 33.0267 193.641 31.2533 192.414 29.04C191.214 26.8 190.614 24.3467 190.614 21.68C190.614 18.7733 191.214 16.1733 192.414 13.88C193.641 11.5867 195.334 9.8 197.494 8.52C199.681 7.21333 202.161 6.56 204.934 6.56C206.641 6.56 208.214 6.78666 209.654 7.24C211.121 7.69333 212.414 8.26667 213.534 8.96L211.694 13.32C209.534 11.8 207.334 11.04 205.094 11.04C203.387 11.04 201.787 11.5067 200.294 12.44C198.827 13.3467 197.654 14.6 196.774 16.2C195.894 17.7733 195.454 19.5067 195.454 21.4C195.454 23.4 195.854 25.2 196.654 26.8C197.481 28.3733 198.641 29.6133 200.134 30.52C201.654 31.4 203.401 31.84 205.374 31.84C206.787 31.84 208.054 31.6267 209.174 31.2C210.321 30.7733 211.281 30.2267 212.054 29.56L214.014 33.72ZM243.907 36H239.227V23.6H224.907V36H220.227V6.88H224.907V19.16H239.227V6.88H243.907V36ZM250.106 21.48C250.106 18.8133 250.773 16.3467 252.106 14.08C253.44 11.7867 255.24 9.96 257.506 8.6C259.8 7.24 262.293 6.56 264.986 6.56C267.653 6.56 270.12 7.24 272.386 8.6C274.68 9.96 276.506 11.7867 277.866 14.08C279.226 16.3733 279.906 18.84 279.906 21.48C279.906 24.1733 279.226 26.6533 277.866 28.92C276.533 31.1867 274.72 32.9867 272.426 34.32C270.133 35.6533 267.653 36.32 264.986 36.32C262.293 36.32 259.8 35.6667 257.506 34.36C255.24 33.0267 253.44 31.2267 252.106 28.96C250.773 26.6933 250.106 24.2 250.106 21.48ZM254.906 21.48C254.906 23.3733 255.36 25.1067 256.266 26.68C257.173 28.2533 258.4 29.5067 259.946 30.44C261.52 31.3733 263.24 31.84 265.106 31.84C266.946 31.84 268.626 31.3867 270.146 30.48C271.666 29.5467 272.866 28.2933 273.746 26.72C274.653 25.12 275.106 23.3733 275.106 21.48C275.106 19.5867 274.653 17.84 273.746 16.24C272.84 14.64 271.613 13.3733 270.066 12.44C268.52 11.5067 266.826 11.04 264.986 11.04C263.12 11.04 261.413 11.5067 259.866 12.44C258.346 13.3733 257.133 14.64 256.226 16.24C255.346 17.84 254.906 19.5867 254.906 21.48ZM290.805 6.88V36H286.125V6.88H290.805Z" fill="#D50600"/>
</svg>
